<?xml version="1.0" encoding="utf-8"?>
<!-- Generator: Adobe Illustrator 15.1.0, SVG Export Plug-In . SVG Version: 6.00 Build 0)  -->
<!DOCTYPE svg PUBLIC "-//W3C//DTD SVG 1.1//EN" "http://www.w3.org/Graphics/SVG/1.1/DTD/svg11.dtd">
<svg version="1.1" id="Layer_1" xmlns="http://www.w3.org/2000/svg" xmlns:xlink="http://www.w3.org/1999/xlink" x="0px" y="0px"
	 width="72px" height="72px" viewBox="0 0 72 72" enable-background="new 0 0 72 72" xml:space="preserve">
<g>
	<linearGradient id="SVGID_1_" gradientUnits="userSpaceOnUse" x1="27.771" y1="33.5586" x2="27.729" y2="43.1831">
		<stop  offset="0" style="stop-color:#2F50A2"/>
		<stop  offset="0.218" style="stop-color:#2E4D9B"/>
		<stop  offset="0.4665" style="stop-color:#2D458E"/>
		<stop  offset="0.73" style="stop-color:#2B397B"/>
		<stop  offset="1" style="stop-color:#272964"/>
	</linearGradient>
	<path fill="url(#SVGID_1_)" d="M31.03,41.787c-0.077,0-0.148-0.024-0.206-0.07c-0.062-0.049-0.105-0.123-0.136-0.221
		c-0.03-0.099-0.045-0.342-0.045-0.726v-3.266c0-0.906-0.04-1.487-0.126-1.739c-0.139-0.396-0.439-0.762-0.903-1.103
		c-0.467-0.337-1.097-0.507-1.896-0.507c-0.192,0-0.383,0.009-0.571,0.027c-0.458,0.043-0.903,0.138-1.336,0.287
		c-0.611,0.212-1.087,0.513-1.431,0.906c-0.341,0.394-0.514,0.805-0.514,1.238c0,0.304,0.129,0.572,0.384,0.798
		c0.255,0.228,0.571,0.345,0.949,0.345c0.354,0,0.639-0.104,0.86-0.311c0.218-0.209,0.329-0.458,0.329-0.752
		c0-0.24-0.117-0.489-0.344-0.747c-0.167-0.188-0.252-0.344-0.252-0.47c0-0.145,0.081-0.27,0.233-0.378
		c0.252-0.171,0.575-0.261,0.965-0.261c0.054,0,0.106,0.003,0.157,0.009c0.178,0.021,0.341,0.081,0.492,0.176
		c0.19,0.123,0.323,0.268,0.391,0.434c0.07,0.165,0.104,0.564,0.104,1.201v0.848c-0.353,0.161-0.681,0.317-0.986,0.467
		c-1.302,0.638-2.176,1.163-2.623,1.579c-0.554,0.514-0.827,1.092-0.827,1.732c0,0.474,0.156,0.87,0.476,1.184
		c0.316,0.316,0.716,0.473,1.195,0.473c0.546,0,1.14-0.201,1.779-0.606c0.317-0.2,0.646-0.45,0.986-0.751
		c0.058,0.454,0.224,0.795,0.495,1.02s0.645,0.338,1.125,0.338c0.409,0,0.774-0.102,1.094-0.301c0.322-0.2,0.633-0.522,0.931-0.968
		l-0.267-0.216C31.346,41.677,31.186,41.787,31.03,41.787z M28.132,40.924c-0.371,0.314-0.699,0.481-0.986,0.502l-0.059,0.002
		c-0.27,0-0.479-0.08-0.629-0.242c-0.2-0.213-0.298-0.455-0.298-0.732c0-0.328,0.117-0.653,0.353-0.979
		c0.169-0.231,0.379-0.456,0.633-0.673c0.278-0.239,0.607-0.471,0.986-0.693V40.924z"/>
	<linearGradient id="SVGID_2_" gradientUnits="userSpaceOnUse" x1="37.0107" y1="33.5996" x2="36.9688" y2="43.2242">
		<stop  offset="0" style="stop-color:#2F50A2"/>
		<stop  offset="0.218" style="stop-color:#2E4D9B"/>
		<stop  offset="0.4665" style="stop-color:#2D458E"/>
		<stop  offset="0.73" style="stop-color:#2B397B"/>
		<stop  offset="1" style="stop-color:#272964"/>
	</linearGradient>
	<path fill="url(#SVGID_2_)" d="M39.915,34.663c-0.511-0.337-1.054-0.507-1.629-0.507c-0.297,0-0.585,0.045-0.864,0.136
		c-0.515,0.167-1,0.487-1.458,0.96v-4.636h-3.493v0.335c0.307,0.012,0.522,0.059,0.651,0.138c0.129,0.083,0.225,0.206,0.286,0.375
		c0.041,0.113,0.062,0.412,0.062,0.899v10.7h0.308l1.395-0.908c0.341,0.325,0.688,0.559,1.045,0.703
		c0.351,0.145,0.754,0.215,1.206,0.216h0.007c0.786,0,1.487-0.196,2.099-0.591c0.611-0.393,1.1-0.965,1.465-1.714
		c0.369-0.749,0.551-1.585,0.551-2.501c0-0.817-0.145-1.536-0.434-2.163C40.824,35.483,40.425,35.004,39.915,34.663z M38.658,41.148
		c-0.148,0.516-0.329,0.86-0.551,1.035c-0.193,0.156-0.422,0.241-0.686,0.258c-0.033,0.002-0.066,0.004-0.101,0.004
		c-0.353,0-0.645-0.111-0.872-0.329c-0.228-0.218-0.372-0.507-0.434-0.86c-0.034-0.209-0.052-0.694-0.052-1.456v-3.745
		c0.466-0.574,0.951-0.863,1.458-0.873h0.025c0.396,0,0.713,0.172,0.946,0.522c0.323,0.48,0.485,1.364,0.485,2.655
		C38.879,39.701,38.805,40.633,38.658,41.148z"/>
	<linearGradient id="SVGID_3_" gradientUnits="userSpaceOnUse" x1="46.5977" y1="33.6411" x2="46.5557" y2="43.2661">
		<stop  offset="0" style="stop-color:#2F50A2"/>
		<stop  offset="0.218" style="stop-color:#2E4D9B"/>
		<stop  offset="0.4665" style="stop-color:#2D458E"/>
		<stop  offset="0.73" style="stop-color:#2B397B"/>
		<stop  offset="1" style="stop-color:#272964"/>
	</linearGradient>
	<path fill="url(#SVGID_3_)" d="M49.826,40.654c-0.363,0.384-0.674,0.645-0.938,0.783s-0.544,0.205-0.839,0.205
		c-0.448,0-0.839-0.129-1.167-0.387c-0.439-0.354-0.783-0.891-1.035-1.616c-0.252-0.722-0.379-1.48-0.379-2.271
		c0-0.955,0.154-1.662,0.467-2.126c0.203-0.304,0.449-0.458,0.738-0.458c0.188,0,0.347,0.074,0.484,0.224
		c0.139,0.151,0.229,0.416,0.262,0.792c0.055,0.6,0.197,1.017,0.427,1.25c0.233,0.234,0.526,0.351,0.879,0.351
		c0.335,0,0.608-0.102,0.813-0.304c0.21-0.207,0.311-0.479,0.311-0.821c0-0.541-0.254-1.029-0.768-1.465
		c-0.513-0.439-1.204-0.658-2.074-0.658c-1.296,0-2.313,0.525-3.054,1.573c-0.61,0.872-0.915,1.88-0.915,3.027
		c0,1.186,0.336,2.205,1.008,3.05c0.67,0.846,1.566,1.27,2.691,1.27c0.664,0,1.293-0.182,1.883-0.544
		c0.594-0.363,1.084-0.919,1.48-1.662L49.826,40.654z"/>
</g>
</svg>
