<?xml version="1.0" encoding="UTF-8" standalone="no"?>
<!-- Generator: Adobe Illustrator 15.1.0, SVG Export Plug-In . SVG Version: 6.00 Build 0)  -->

<svg
   xmlns:dc="http://purl.org/dc/elements/1.1/"
   xmlns:cc="http://creativecommons.org/ns#"
   xmlns:rdf="http://www.w3.org/1999/02/22-rdf-syntax-ns#"
   xmlns:svg="http://www.w3.org/2000/svg"
   xmlns="http://www.w3.org/2000/svg"
   xmlns:sodipodi="http://sodipodi.sourceforge.net/DTD/sodipodi-0.dtd"
   xmlns:inkscape="http://www.inkscape.org/namespaces/inkscape"
   version="1.1"
   id="Layer_1"
   x="0px"
   y="0px"
   width="72px"
   height="72px"
   viewBox="0 0 72 72"
   enable-background="new 0 0 72 72"
   xml:space="preserve"
   inkscape:version="0.48.4 r9939"
   sodipodi:docname="AlarmStatusInAlarmOutOfSInFaultOverridenTrue.svg"><metadata
   id="metadata845"><rdf:RDF><cc:Work
       rdf:about=""><dc:format>image/svg+xml</dc:format><dc:type
         rdf:resource="http://purl.org/dc/dcmitype/StillImage" /><dc:title /></cc:Work></rdf:RDF></metadata><defs
   id="defs843"><linearGradient
     id="SVGID_1_-0"
     gradientUnits="userSpaceOnUse"
     x1="46.622101"
     y1="41.127899"
     x2="41.182999"
     y2="39.771801"><stop
       offset="0"
       style="stop-color:#FFFFFF"
       id="stop36" /><stop
       offset="1"
       style="stop-color:#FCB244"
       id="stop38" /></linearGradient><linearGradient
     id="SVGID_2_-9"
     gradientUnits="userSpaceOnUse"
     x1="45.750999"
     y1="47.434601"
     x2="40.5867"
     y2="46.0508"><stop
       offset="0"
       style="stop-color:#F59396"
       id="stop45" /><stop
       offset="1"
       style="stop-color:#FFFFFF"
       id="stop47" /></linearGradient></defs><sodipodi:namedview
   pagecolor="#ffffff"
   bordercolor="#666666"
   borderopacity="1"
   objecttolerance="10"
   gridtolerance="10"
   guidetolerance="10"
   inkscape:pageopacity="0"
   inkscape:pageshadow="2"
   inkscape:window-width="640"
   inkscape:window-height="480"
   id="namedview841"
   showgrid="false"
   inkscape:zoom="3.2777778"
   inkscape:cx="36"
   inkscape:cy="36"
   inkscape:window-x="0"
   inkscape:window-y="0"
   inkscape:window-maximized="0"
   inkscape:current-layer="Layer_1" />

<g
   transform="matrix(0.7538737,0,0,0.77624882,9.0056698,5.8784123)"
   id="g21"><path
     style="fill:#f99f20;fill-rule:evenodd"
     inkscape:connector-curvature="0"
     clip-rule="evenodd"
     d="m 29.94,36.506 c 3.496,0 6.349,-2.852 6.349,-6.349 0,-3.497 -2.853,-6.349 -6.349,-6.349 -3.497,0 -6.35,2.852 -6.35,6.349 0.001,3.497 2.853,6.349 6.35,6.349 z"
     id="path23" /><path
     style="fill:#d37028"
     inkscape:connector-curvature="0"
     d="m 29.94,23.34 c 1.88,0 3.584,0.763 4.818,1.997 l 10e-4,0.001 10e-4,10e-4 c 1.234,1.234 1.997,2.938 1.997,4.818 0,1.88 -0.763,3.585 -1.997,4.819 l -10e-4,10e-4 -10e-4,0.001 c -1.234,1.234 -2.938,1.997 -4.818,1.997 -1.881,0 -3.585,-0.763 -4.819,-1.997 L 25.12,34.977 25.119,34.976 c -1.234,-1.234 -1.997,-2.939 -1.997,-4.819 0,-1.88 0.763,-3.584 1.997,-4.818 l 0.001,-10e-4 10e-4,-0.001 C 26.355,24.103 28.06,23.34 29.94,23.34 l 0,0 z m 4.158,2.658 c -1.063,-1.063 -2.533,-1.721 -4.157,-1.721 -1.625,0 -3.096,0.658 -4.157,1.721 L 25.78,26 c -1.063,1.063 -1.721,2.533 -1.721,4.157 0,1.624 0.658,3.096 1.721,4.157 l 0.003,0.002 c 1.062,1.063 2.532,1.721 4.157,1.721 1.624,0 3.095,-0.658 4.157,-1.721 l 0.002,-0.002 c 1.063,-1.062 1.721,-2.533 1.721,-4.157 0,-1.624 -0.658,-3.094 -1.72,-4.157 l -0.002,-0.002 z"
     id="path25" /><polygon
     style="fill:#ffffff;fill-rule:evenodd"
     clip-rule="evenodd"
     points="29.94,25.352 31.536,29.612 33.132,33.872 31.031,33.872 31.031,34.963 28.85,34.963 28.85,33.872 26.748,33.872 28.344,29.612 "
     id="polygon27-1" /></g><path
   style="fill:#992523"
   inkscape:connector-curvature="0"
   d="m 41.338629,25.046907 c 1.333862,0 2.542208,0.575206 3.417266,1.505486 l 7.09e-4,7.54e-4 7.1e-4,7.54e-4 c 0.875057,0.93028 1.416119,2.214881 1.416119,3.632163 0,1.417282 -0.541062,2.702637 -1.416119,3.632917 l -7.1e-4,7.54e-4 -7.09e-4,7.54e-4 c -0.875058,0.93028 -2.083404,1.505486 -3.417266,1.505486 -1.333152,0 -2.541498,-0.575206 -3.416557,-1.505486 l -7.09e-4,-7.54e-4 -7.09e-4,-7.54e-4 c -0.875059,-0.93028 -1.41612,-2.215635 -1.41612,-3.632917 0,-1.417282 0.541061,-2.701883 1.41612,-3.632163 l 7.09e-4,-7.54e-4 7.09e-4,-7.54e-4 c 0.875059,-0.93028 2.083405,-1.505486 3.416557,-1.505486 l 0,0 z m 2.948535,2.003797 c -0.753798,-0.801368 -1.796209,-1.297417 -2.948535,-1.297417 -1.151616,0 -2.194737,0.496049 -2.947826,1.297417 l -0.0014,0.0015 c -0.753798,0.801368 -1.220401,1.909562 -1.220401,3.133853 0,1.22429 0.466603,2.333993 1.220401,3.133853 l 0.0014,0.0015 c 0.753798,0.801368 1.79621,1.297416 2.947826,1.297416 1.152326,0 2.195446,-0.496048 2.948535,-1.297416 l 0.0014,-0.0015 c 0.753799,-0.800614 1.219693,-1.909563 1.219693,-3.133853 0,-1.224291 -0.465894,-2.333239 -1.219693,-3.133853 l -0.0014,-0.0015 z"
   id="path9" /><path
   style="fill:#ffffff"
   inkscape:connector-curvature="0"
   d="m 43.700132,28.714952 c 0.09447,0.09606 0.07818,0.199444 -0.03583,0.310969 L 42.31326,30.376438 43.656158,31.718 c 0.113198,0.11234 0.1303,0.216539 0.0342,0.311783 l -0.952814,0.952445 c -0.09365,0.09524 -0.197892,0.07734 -0.31109,-0.03419 l -1.342083,-1.341562 -1.34127,1.341562 c -0.113197,0.11234 -0.217437,0.129435 -0.312718,0.03419 l -0.952814,-0.952445 c -0.09365,-0.09443 -0.07818,-0.199443 0.03583,-0.310968 l 1.342084,-1.341563 -1.351042,-1.350517 c -0.113197,-0.111525 -0.129485,-0.215724 -0.03502,-0.310969 l 0.952814,-0.951629 c 0.09447,-0.09524 0.198707,-0.07815 0.311904,0.03419 l 1.350228,1.349702 1.351855,-1.349702 c 0.112384,-0.113153 0.215809,-0.130248 0.311905,-0.03419 l 0.951999,0.950815 z"
   id="path11" /><g
   transform="matrix(0.77861784,0,0,0.7736928,8.874233,6.5555892)"
   id="g13"><polygon
     style="fill:#ffffff;fill-rule:evenodd"
     clip-rule="evenodd"
     points="23.163,49.851 26.553,43.822 29.94,37.794 33.329,43.822 36.718,49.851 29.94,49.851 "
     id="polygon15" /><path
     style="fill:#c43b3e"
     inkscape:connector-curvature="0"
     d="m 30.349,37.564 3.389,6.029 3.389,6.027 0.393,0.698 H 36.719 29.94 23.163 22.361 l 0.394,-0.698 3.389,-6.027 3.389,-6.029 0.408,-0.727 0.408,0.727 0,0 z m 2.571,6.488 -2.98,-5.302 -2.979,5.302 -2.997,5.329 h 5.977 5.977 L 32.92,44.052 z"
     id="path17" /><path
     style="fill:#010101"
     inkscape:connector-curvature="0"
     d="m 30.457,45.98 h -1.085 l -0.251,-4.705 c 0.091,-0.074 0.205,-0.137 0.342,-0.189 0.136,-0.053 0.296,-0.08 0.478,-0.08 0.182,0 0.342,0.027 0.479,0.08 0.137,0.053 0.25,0.115 0.341,0.189 l -0.304,4.705 0,0 z m -1.274,1.25 c 0,-0.105 0.021,-0.205 0.062,-0.295 0.041,-0.091 0.096,-0.171 0.167,-0.237 0.071,-0.067 0.152,-0.122 0.244,-0.159 0.09,-0.038 0.186,-0.057 0.285,-0.057 0.099,0 0.195,0.019 0.286,0.06 0.092,0.04 0.171,0.093 0.24,0.163 0.069,0.068 0.125,0.148 0.166,0.236 0.041,0.092 0.062,0.188 0.062,0.289 0,0.103 -0.02,0.2 -0.061,0.294 -0.04,0.092 -0.093,0.173 -0.159,0.242 -0.067,0.069 -0.148,0.122 -0.24,0.162 -0.094,0.04 -0.191,0.061 -0.294,0.061 -0.105,0 -0.204,-0.021 -0.295,-0.061 -0.091,-0.04 -0.172,-0.093 -0.24,-0.159 -0.069,-0.068 -0.123,-0.149 -0.162,-0.24 -0.041,-0.093 -0.061,-0.193 -0.061,-0.299 z"
     id="path19" /></g><g
   transform="matrix(0.75198379,0,0,0.83769621,8.5901178,4.0533587)"
   id="g29"><path
     style="fill:#ffffff;fill-rule:evenodd;stroke:#c43b3e;stroke-width:0.5;stroke-miterlimit:2.61310005"
     inkscape:connector-curvature="0"
     clip-rule="evenodd"
     stroke-miterlimit="2.6131"
     d="m 37.892,49.023 1.548,-1.547 c 1.036,1.098 2.505,1.783 4.133,1.783 3.137,0 5.681,-2.544 5.681,-5.681 l 0,0 c 0,1.726 -1.8,3.124 -4.019,3.124 -1.48,0 -2.773,-0.623 -3.472,-1.551 l 1.574,-1.573 h -2.119 -3.326 v 5.445 z"
     id="path31" /><path
     style="fill:#f99f20"
     inkscape:connector-curvature="0"
     d="M 47.701,39.021 48.922,37.801 49.723,37 v 1.133 5.445 0.469 h -0.47 -3.326 -2.118 -1.131 l 0.799,-0.799 1.266,-1.267 c -0.279,-0.275 -0.627,-0.51 -1.025,-0.688 -0.528,-0.235 -1.146,-0.371 -1.807,-0.371 -1.003,0 -1.905,0.313 -2.554,0.816 -0.477,0.37 -0.812,0.846 -0.938,1.37 H 37.44 c 0.114,-1.511 0.775,-2.87 1.784,-3.879 1.112,-1.113 2.651,-1.802 4.349,-1.802 0.859,0 1.684,0.18 2.433,0.503 l 10e-4,-0.002 c 0.623,0.271 1.196,0.642 1.694,1.093 z"
     id="path33" /><linearGradient
     id="linearGradient3123"
     gradientUnits="userSpaceOnUse"
     x1="46.622101"
     y1="41.127899"
     x2="41.182999"
     y2="39.771801"><stop
       offset="0"
       style="stop-color:#FFFFFF"
       id="stop3125" /><stop
       offset="1"
       style="stop-color:#FCB244"
       id="stop3127" /></linearGradient><path
     style="fill:url(#SVGID_1_-0);fill-rule:evenodd"
     inkscape:connector-curvature="0"
     clip-rule="evenodd"
     d="m 48.784,39.266 -0.747,0.748 -0.341,0.34 -0.332,-0.352 C 46.882,39.49 46.293,39.075 45.635,38.791 v -0.002 c -0.629,-0.271 -1.327,-0.422 -2.063,-0.422 -1.438,0 -2.742,0.584 -3.685,1.526 -0.243,0.243 -0.463,0.511 -0.654,0.798 0.746,-0.443 1.675,-0.707 2.677,-0.707 0.791,0 1.54,0.166 2.188,0.455 0.681,0.306 1.255,0.75 1.657,1.285 l 0.244,0.324 -0.286,0.286 -0.774,0.774 h 0.988 2.857 v -3.842 z"
     id="path40" /><path
     style="fill:#c43b3e"
     inkscape:connector-curvature="0"
     d="m 39.444,48.136 -1.221,1.221 -0.801,0.801 V 49.025 43.58 43.11 h 0.469 3.327 2.118 1.131 l -0.799,0.799 -1.266,1.268 c 0.278,0.275 0.627,0.51 1.025,0.688 0.527,0.236 1.145,0.371 1.807,0.371 1.002,0 1.905,-0.313 2.553,-0.816 0.477,-0.37 0.813,-0.845 0.939,-1.37 h 0.978 c -0.114,1.512 -0.774,2.87 -1.783,3.88 -1.113,1.112 -2.651,1.802 -4.35,1.802 -0.859,0 -1.683,-0.18 -2.433,-0.503 v 0.002 c -0.623,-0.272 -1.196,-0.643 -1.694,-1.095 z"
     id="path42" /><linearGradient
     id="linearGradient3131"
     gradientUnits="userSpaceOnUse"
     x1="45.750999"
     y1="47.434601"
     x2="40.5867"
     y2="46.0508"><stop
       offset="0"
       style="stop-color:#F59396"
       id="stop3133" /><stop
       offset="1"
       style="stop-color:#FFFFFF"
       id="stop3135" /></linearGradient><path
     style="fill:url(#SVGID_2_-9);fill-rule:evenodd"
     inkscape:connector-curvature="0"
     clip-rule="evenodd"
     d="m 38.361,47.892 0.746,-0.747 0.341,-0.341 0.332,0.353 c 0.483,0.512 1.072,0.927 1.729,1.21 v 0.002 c 0.628,0.271 1.326,0.423 2.063,0.423 1.439,0 2.743,-0.584 3.686,-1.527 0.243,-0.242 0.462,-0.51 0.654,-0.797 -0.746,0.442 -1.675,0.706 -2.677,0.706 -0.792,0 -1.54,-0.166 -2.188,-0.455 -0.681,-0.305 -1.255,-0.749 -1.658,-1.284 l -0.243,-0.324 0.285,-0.286 0.775,-0.775 h -0.988 -2.857 v 3.842 z"
     id="path49" /></g></svg>