<?xml version="1.0" encoding="UTF-8" standalone="no"?>
<!-- Generator: Adobe Illustrator 15.1.0, SVG Export Plug-In . SVG Version: 6.00 Build 0)  -->

<svg
   xmlns:dc="http://purl.org/dc/elements/1.1/"
   xmlns:cc="http://creativecommons.org/ns#"
   xmlns:rdf="http://www.w3.org/1999/02/22-rdf-syntax-ns#"
   xmlns:svg="http://www.w3.org/2000/svg"
   xmlns="http://www.w3.org/2000/svg"
   xmlns:xlink="http://www.w3.org/1999/xlink"
   xmlns:sodipodi="http://sodipodi.sourceforge.net/DTD/sodipodi-0.dtd"
   xmlns:inkscape="http://www.inkscape.org/namespaces/inkscape"
   version="1.1"
   id="Layer_1"
   x="0px"
   y="0px"
   width="72px"
   height="72px"
   viewBox="0 0 72 72"
   enable-background="new 0 0 72 72"
   xml:space="preserve"
   inkscape:version="0.48.4 r9939"
   sodipodi:docname="AlarmStatusInAlarmInFaultOverridenTrue.svg"><metadata
   id="metadata845"><rdf:RDF><cc:Work
       rdf:about=""><dc:format>image/svg+xml</dc:format><dc:type
         rdf:resource="http://purl.org/dc/dcmitype/StillImage" /><dc:title /></cc:Work></rdf:RDF></metadata><defs
   id="defs843"><linearGradient
     id="SVGID_1_-0"
     gradientUnits="userSpaceOnUse"
     x1="46.622101"
     y1="41.127899"
     x2="41.182999"
     y2="39.771801"><stop
       offset="0"
       style="stop-color:#FFFFFF"
       id="stop36" /><stop
       offset="1"
       style="stop-color:#FCB244"
       id="stop38" /></linearGradient><linearGradient
     id="SVGID_2_-9"
     gradientUnits="userSpaceOnUse"
     x1="45.750999"
     y1="47.434601"
     x2="40.5867"
     y2="46.0508"><stop
       offset="0"
       style="stop-color:#F59396"
       id="stop45" /><stop
       offset="1"
       style="stop-color:#FFFFFF"
       id="stop47" /></linearGradient><clipPath
     id="SVGID_2_"><use
       xlink:href="#SVGID_1_"
       overflow="visible"
       id="use17"
       style="overflow:visible"
       x="0"
       y="0"
       width="72"
       height="72" /></clipPath><clipPath
     id="clipPath3426"><use
       xlink:href="#SVGID_1_"
       overflow="visible"
       id="use3428"
       style="overflow:visible"
       x="0"
       y="0"
       width="72"
       height="72" /></clipPath><clipPath
     id="clipPath3430"><use
       xlink:href="#SVGID_1_"
       overflow="visible"
       id="use3432"
       style="overflow:visible"
       x="0"
       y="0"
       width="72"
       height="72" /></clipPath><clipPath
     id="clipPath3434"><use
       xlink:href="#SVGID_1_"
       overflow="visible"
       id="use3436"
       style="overflow:visible"
       x="0"
       y="0"
       width="72"
       height="72" /></clipPath><clipPath
     id="clipPath3438"><use
       xlink:href="#SVGID_1_"
       overflow="visible"
       id="use3440"
       style="overflow:visible"
       x="0"
       y="0"
       width="72"
       height="72" /></clipPath><clipPath
     id="clipPath3442"><use
       xlink:href="#SVGID_1_"
       overflow="visible"
       id="use3444"
       style="overflow:visible"
       x="0"
       y="0"
       width="72"
       height="72" /></clipPath><clipPath
     id="clipPath3446"><use
       xlink:href="#SVGID_1_"
       overflow="visible"
       id="use3448"
       style="overflow:visible"
       x="0"
       y="0"
       width="72"
       height="72" /></clipPath><clipPath
     id="clipPath3450"><use
       xlink:href="#SVGID_1_"
       overflow="visible"
       id="use3452"
       style="overflow:visible"
       x="0"
       y="0"
       width="72"
       height="72" /></clipPath><clipPath
     id="clipPath3454"><use
       xlink:href="#SVGID_1_"
       overflow="visible"
       id="use3456"
       style="overflow:visible"
       x="0"
       y="0"
       width="72"
       height="72" /></clipPath><clipPath
     id="clipPath3458"><use
       xlink:href="#SVGID_1_"
       overflow="visible"
       id="use3460"
       style="overflow:visible"
       x="0"
       y="0"
       width="72"
       height="72" /></clipPath><clipPath
     id="clipPath3462"><use
       xlink:href="#SVGID_1_"
       overflow="visible"
       id="use3464"
       style="overflow:visible"
       x="0"
       y="0"
       width="72"
       height="72" /></clipPath><clipPath
     id="clipPath3466"><use
       xlink:href="#SVGID_1_"
       overflow="visible"
       id="use3468"
       style="overflow:visible"
       x="0"
       y="0"
       width="72"
       height="72" /></clipPath><clipPath
     id="clipPath3470"><use
       xlink:href="#SVGID_1_"
       overflow="visible"
       id="use3472"
       style="overflow:visible"
       x="0"
       y="0"
       width="72"
       height="72" /></clipPath><clipPath
     id="clipPath3474"><use
       xlink:href="#SVGID_1_"
       overflow="visible"
       id="use3476"
       style="overflow:visible"
       x="0"
       y="0"
       width="72"
       height="72" /></clipPath><clipPath
     id="clipPath3478"><use
       xlink:href="#SVGID_1_"
       overflow="visible"
       id="use3480"
       style="overflow:visible"
       x="0"
       y="0"
       width="72"
       height="72" /></clipPath><clipPath
     id="clipPath3482"><use
       xlink:href="#SVGID_1_"
       overflow="visible"
       id="use3484"
       style="overflow:visible"
       x="0"
       y="0"
       width="72"
       height="72" /></clipPath><clipPath
     id="clipPath3486"><use
       xlink:href="#SVGID_1_"
       overflow="visible"
       id="use3488"
       style="overflow:visible"
       x="0"
       y="0"
       width="72"
       height="72" /></clipPath><clipPath
     id="clipPath3490"><use
       xlink:href="#SVGID_1_"
       overflow="visible"
       id="use3492"
       style="overflow:visible"
       x="0"
       y="0"
       width="72"
       height="72" /></clipPath><clipPath
     id="clipPath3494"><use
       xlink:href="#SVGID_1_"
       overflow="visible"
       id="use3496"
       style="overflow:visible"
       x="0"
       y="0"
       width="72"
       height="72" /></clipPath><clipPath
     id="clipPath3498"><use
       xlink:href="#SVGID_1_"
       overflow="visible"
       id="use3500"
       style="overflow:visible"
       x="0"
       y="0"
       width="72"
       height="72" /></clipPath><clipPath
     id="clipPath3502"><use
       xlink:href="#SVGID_1_"
       overflow="visible"
       id="use3504"
       style="overflow:visible"
       x="0"
       y="0"
       width="72"
       height="72" /></clipPath><clipPath
     id="clipPath3506"><use
       xlink:href="#SVGID_1_"
       overflow="visible"
       id="use3508"
       style="overflow:visible"
       x="0"
       y="0"
       width="72"
       height="72" /></clipPath><clipPath
     id="clipPath3510"><use
       xlink:href="#SVGID_1_"
       overflow="visible"
       id="use3512"
       style="overflow:visible"
       x="0"
       y="0"
       width="72"
       height="72" /></clipPath><clipPath
     id="clipPath3514"><use
       xlink:href="#SVGID_1_"
       overflow="visible"
       id="use3516"
       style="overflow:visible"
       x="0"
       y="0"
       width="72"
       height="72" /></clipPath><clipPath
     id="clipPath3518"><use
       xlink:href="#SVGID_1_"
       overflow="visible"
       id="use3520"
       style="overflow:visible"
       x="0"
       y="0"
       width="72"
       height="72" /></clipPath><clipPath
     id="clipPath3522"><use
       xlink:href="#SVGID_1_"
       overflow="visible"
       id="use3524"
       style="overflow:visible"
       x="0"
       y="0"
       width="72"
       height="72" /></clipPath><clipPath
     id="clipPath3526"><use
       xlink:href="#SVGID_1_"
       overflow="visible"
       id="use3528"
       style="overflow:visible"
       x="0"
       y="0"
       width="72"
       height="72" /></clipPath><clipPath
     id="clipPath3530"><use
       xlink:href="#SVGID_1_"
       overflow="visible"
       id="use3532"
       style="overflow:visible"
       x="0"
       y="0"
       width="72"
       height="72" /></clipPath><clipPath
     id="clipPath3534"><use
       xlink:href="#SVGID_1_"
       overflow="visible"
       id="use3536"
       style="overflow:visible"
       x="0"
       y="0"
       width="72"
       height="72" /></clipPath><clipPath
     id="clipPath3538"><use
       xlink:href="#SVGID_1_"
       overflow="visible"
       id="use3540"
       style="overflow:visible"
       x="0"
       y="0"
       width="72"
       height="72" /></clipPath><clipPath
     id="clipPath3542"><use
       xlink:href="#SVGID_1_"
       overflow="visible"
       id="use3544"
       style="overflow:visible"
       x="0"
       y="0"
       width="72"
       height="72" /></clipPath><clipPath
     id="clipPath3546"><use
       xlink:href="#SVGID_1_"
       overflow="visible"
       id="use3548"
       style="overflow:visible"
       x="0"
       y="0"
       width="72"
       height="72" /></clipPath><clipPath
     id="clipPath3550"><use
       xlink:href="#SVGID_1_"
       overflow="visible"
       id="use3552"
       style="overflow:visible"
       x="0"
       y="0"
       width="72"
       height="72" /></clipPath><clipPath
     id="clipPath3554"><use
       xlink:href="#SVGID_1_"
       overflow="visible"
       id="use3556"
       style="overflow:visible"
       x="0"
       y="0"
       width="72"
       height="72" /></clipPath><clipPath
     id="clipPath3558"><use
       xlink:href="#SVGID_1_"
       overflow="visible"
       id="use3560"
       style="overflow:visible"
       x="0"
       y="0"
       width="72"
       height="72" /></clipPath><clipPath
     id="clipPath3562"><use
       xlink:href="#SVGID_1_"
       overflow="visible"
       id="use3564"
       style="overflow:visible"
       x="0"
       y="0"
       width="72"
       height="72" /></clipPath><clipPath
     id="clipPath3566"><use
       xlink:href="#SVGID_1_"
       overflow="visible"
       id="use3568"
       style="overflow:visible"
       x="0"
       y="0"
       width="72"
       height="72" /></clipPath><clipPath
     id="clipPath3570"><use
       xlink:href="#SVGID_1_"
       overflow="visible"
       id="use3572"
       style="overflow:visible"
       x="0"
       y="0"
       width="72"
       height="72" /></clipPath><clipPath
     id="clipPath3574"><use
       xlink:href="#SVGID_1_"
       overflow="visible"
       id="use3576"
       style="overflow:visible"
       x="0"
       y="0"
       width="72"
       height="72" /></clipPath><clipPath
     id="clipPath3578"><use
       xlink:href="#SVGID_1_"
       overflow="visible"
       id="use3580"
       style="overflow:visible"
       x="0"
       y="0"
       width="72"
       height="72" /></clipPath><clipPath
     id="clipPath3582"><use
       xlink:href="#SVGID_1_"
       overflow="visible"
       id="use3584"
       style="overflow:visible"
       x="0"
       y="0"
       width="72"
       height="72" /></clipPath><clipPath
     id="clipPath3586"><use
       xlink:href="#SVGID_1_"
       overflow="visible"
       id="use3588"
       style="overflow:visible"
       x="0"
       y="0"
       width="72"
       height="72" /></clipPath><clipPath
     id="clipPath3590"><use
       xlink:href="#SVGID_1_"
       overflow="visible"
       id="use3592"
       style="overflow:visible"
       x="0"
       y="0"
       width="72"
       height="72" /></clipPath><clipPath
     id="clipPath3594"><use
       xlink:href="#SVGID_1_"
       overflow="visible"
       id="use3596"
       style="overflow:visible"
       x="0"
       y="0"
       width="72"
       height="72" /></clipPath><clipPath
     id="clipPath3598"><use
       xlink:href="#SVGID_1_"
       overflow="visible"
       id="use3600"
       style="overflow:visible"
       x="0"
       y="0"
       width="72"
       height="72" /></clipPath><clipPath
     id="clipPath3602"><use
       xlink:href="#SVGID_1_"
       overflow="visible"
       id="use3604"
       style="overflow:visible"
       x="0"
       y="0"
       width="72"
       height="72" /></clipPath><clipPath
     id="clipPath3606"><use
       xlink:href="#SVGID_1_"
       overflow="visible"
       id="use3608"
       style="overflow:visible"
       x="0"
       y="0"
       width="72"
       height="72" /></clipPath><clipPath
     id="clipPath3610"><use
       xlink:href="#SVGID_1_"
       overflow="visible"
       id="use3612"
       style="overflow:visible"
       x="0"
       y="0"
       width="72"
       height="72" /></clipPath><clipPath
     id="clipPath3614"><use
       xlink:href="#SVGID_1_"
       overflow="visible"
       id="use3616"
       style="overflow:visible"
       x="0"
       y="0"
       width="72"
       height="72" /></clipPath><clipPath
     id="clipPath3618"><use
       xlink:href="#SVGID_1_"
       overflow="visible"
       id="use3620"
       style="overflow:visible"
       x="0"
       y="0"
       width="72"
       height="72" /></clipPath><clipPath
     id="clipPath3622"><use
       xlink:href="#SVGID_1_"
       overflow="visible"
       id="use3624"
       style="overflow:visible"
       x="0"
       y="0"
       width="72"
       height="72" /></clipPath><clipPath
     id="clipPath3626"><use
       xlink:href="#SVGID_1_"
       overflow="visible"
       id="use3628"
       style="overflow:visible"
       x="0"
       y="0"
       width="72"
       height="72" /></clipPath><clipPath
     id="clipPath3630"><use
       xlink:href="#SVGID_1_"
       overflow="visible"
       id="use3632"
       style="overflow:visible"
       x="0"
       y="0"
       width="72"
       height="72" /></clipPath><clipPath
     id="clipPath3634"><use
       xlink:href="#SVGID_1_"
       overflow="visible"
       id="use3636"
       style="overflow:visible"
       x="0"
       y="0"
       width="72"
       height="72" /></clipPath><clipPath
     id="clipPath3638"><use
       xlink:href="#SVGID_1_"
       overflow="visible"
       id="use3640"
       style="overflow:visible"
       x="0"
       y="0"
       width="72"
       height="72" /></clipPath><clipPath
     id="clipPath3642"><use
       xlink:href="#SVGID_1_"
       overflow="visible"
       id="use3644"
       style="overflow:visible"
       x="0"
       y="0"
       width="72"
       height="72" /></clipPath><clipPath
     id="clipPath3646"><use
       xlink:href="#SVGID_1_"
       overflow="visible"
       id="use3648"
       style="overflow:visible"
       x="0"
       y="0"
       width="72"
       height="72" /></clipPath><clipPath
     id="clipPath3650"><use
       xlink:href="#SVGID_1_"
       overflow="visible"
       id="use3652"
       style="overflow:visible"
       x="0"
       y="0"
       width="72"
       height="72" /></clipPath><clipPath
     id="clipPath3654"><use
       xlink:href="#SVGID_1_"
       overflow="visible"
       id="use3656"
       style="overflow:visible"
       x="0"
       y="0"
       width="72"
       height="72" /></clipPath><clipPath
     id="clipPath3658"><use
       xlink:href="#SVGID_1_"
       overflow="visible"
       id="use3660"
       style="overflow:visible"
       x="0"
       y="0"
       width="72"
       height="72" /></clipPath><clipPath
     id="clipPath3662"><use
       xlink:href="#SVGID_1_"
       overflow="visible"
       id="use3664"
       style="overflow:visible"
       x="0"
       y="0"
       width="72"
       height="72" /></clipPath><clipPath
     id="clipPath3666"><use
       xlink:href="#SVGID_1_"
       overflow="visible"
       id="use3668"
       style="overflow:visible"
       x="0"
       y="0"
       width="72"
       height="72" /></clipPath><clipPath
     id="clipPath3670"><use
       xlink:href="#SVGID_1_"
       overflow="visible"
       id="use3672"
       style="overflow:visible"
       x="0"
       y="0"
       width="72"
       height="72" /></clipPath><clipPath
     id="clipPath3674"><use
       xlink:href="#SVGID_1_"
       overflow="visible"
       id="use3676"
       style="overflow:visible"
       x="0"
       y="0"
       width="72"
       height="72" /></clipPath><clipPath
     id="clipPath3678"><use
       xlink:href="#SVGID_1_"
       overflow="visible"
       id="use3680"
       style="overflow:visible"
       x="0"
       y="0"
       width="72"
       height="72" /></clipPath><clipPath
     id="clipPath3682"><use
       xlink:href="#SVGID_1_"
       overflow="visible"
       id="use3684"
       style="overflow:visible"
       x="0"
       y="0"
       width="72"
       height="72" /></clipPath><clipPath
     id="clipPath3686"><use
       xlink:href="#SVGID_1_"
       overflow="visible"
       id="use3688"
       style="overflow:visible"
       x="0"
       y="0"
       width="72"
       height="72" /></clipPath><clipPath
     id="clipPath3690"><use
       xlink:href="#SVGID_1_"
       overflow="visible"
       id="use3692"
       style="overflow:visible"
       x="0"
       y="0"
       width="72"
       height="72" /></clipPath><clipPath
     id="clipPath3694"><use
       xlink:href="#SVGID_1_"
       overflow="visible"
       id="use3696"
       style="overflow:visible"
       x="0"
       y="0"
       width="72"
       height="72" /></clipPath><clipPath
     id="clipPath3698"><use
       xlink:href="#SVGID_1_"
       overflow="visible"
       id="use3700"
       style="overflow:visible"
       x="0"
       y="0"
       width="72"
       height="72" /></clipPath><clipPath
     id="clipPath3702"><use
       xlink:href="#SVGID_1_"
       overflow="visible"
       id="use3704"
       style="overflow:visible"
       x="0"
       y="0"
       width="72"
       height="72" /></clipPath><clipPath
     id="clipPath3706"><use
       xlink:href="#SVGID_1_"
       overflow="visible"
       id="use3708"
       style="overflow:visible"
       x="0"
       y="0"
       width="72"
       height="72" /></clipPath><clipPath
     id="clipPath3710"><use
       xlink:href="#SVGID_1_"
       overflow="visible"
       id="use3712"
       style="overflow:visible"
       x="0"
       y="0"
       width="72"
       height="72" /></clipPath><clipPath
     id="clipPath3714"><use
       xlink:href="#SVGID_1_"
       overflow="visible"
       id="use3716"
       style="overflow:visible"
       x="0"
       y="0"
       width="72"
       height="72" /></clipPath><clipPath
     id="clipPath3718"><use
       xlink:href="#SVGID_1_"
       overflow="visible"
       id="use3720"
       style="overflow:visible"
       x="0"
       y="0"
       width="72"
       height="72" /></clipPath><clipPath
     id="clipPath3722"><use
       xlink:href="#SVGID_1_"
       overflow="visible"
       id="use3724"
       style="overflow:visible"
       x="0"
       y="0"
       width="72"
       height="72" /></clipPath><clipPath
     id="clipPath3726"><use
       xlink:href="#SVGID_1_"
       overflow="visible"
       id="use3728"
       style="overflow:visible"
       x="0"
       y="0"
       width="72"
       height="72" /></clipPath><clipPath
     id="clipPath3730"><use
       xlink:href="#SVGID_1_"
       overflow="visible"
       id="use3732"
       style="overflow:visible"
       x="0"
       y="0"
       width="72"
       height="72" /></clipPath><clipPath
     id="clipPath3734"><use
       xlink:href="#SVGID_1_"
       overflow="visible"
       id="use3736"
       style="overflow:visible"
       x="0"
       y="0"
       width="72"
       height="72" /></clipPath><clipPath
     id="clipPath3738"><use
       xlink:href="#SVGID_1_"
       overflow="visible"
       id="use3740"
       style="overflow:visible"
       x="0"
       y="0"
       width="72"
       height="72" /></clipPath><clipPath
     id="clipPath3742"><use
       xlink:href="#SVGID_1_"
       overflow="visible"
       id="use3744"
       style="overflow:visible"
       x="0"
       y="0"
       width="72"
       height="72" /></clipPath><clipPath
     id="clipPath3746"><use
       xlink:href="#SVGID_1_"
       overflow="visible"
       id="use3748"
       style="overflow:visible"
       x="0"
       y="0"
       width="72"
       height="72" /></clipPath><clipPath
     id="clipPath3750"><use
       xlink:href="#SVGID_1_"
       overflow="visible"
       id="use3752"
       style="overflow:visible"
       x="0"
       y="0"
       width="72"
       height="72" /></clipPath><clipPath
     id="clipPath3754"><use
       xlink:href="#SVGID_1_"
       overflow="visible"
       id="use3756"
       style="overflow:visible"
       x="0"
       y="0"
       width="72"
       height="72" /></clipPath><clipPath
     id="clipPath3758"><use
       xlink:href="#SVGID_1_"
       overflow="visible"
       id="use3760"
       style="overflow:visible"
       x="0"
       y="0"
       width="72"
       height="72" /></clipPath><clipPath
     id="clipPath3762"><use
       xlink:href="#SVGID_1_"
       overflow="visible"
       id="use3764"
       style="overflow:visible"
       x="0"
       y="0"
       width="72"
       height="72" /></clipPath><clipPath
     id="clipPath3766"><use
       xlink:href="#SVGID_1_"
       overflow="visible"
       id="use3768"
       style="overflow:visible"
       x="0"
       y="0"
       width="72"
       height="72" /></clipPath><clipPath
     id="clipPath3770"><use
       xlink:href="#SVGID_1_"
       overflow="visible"
       id="use3772"
       style="overflow:visible"
       x="0"
       y="0"
       width="72"
       height="72" /></clipPath><clipPath
     id="clipPath3774"><use
       xlink:href="#SVGID_1_"
       overflow="visible"
       id="use3776"
       style="overflow:visible"
       x="0"
       y="0"
       width="72"
       height="72" /></clipPath><clipPath
     id="clipPath3778"><use
       xlink:href="#SVGID_1_"
       overflow="visible"
       id="use3780"
       style="overflow:visible"
       x="0"
       y="0"
       width="72"
       height="72" /></clipPath><clipPath
     id="clipPath3782"><use
       xlink:href="#SVGID_1_"
       overflow="visible"
       id="use3784"
       style="overflow:visible"
       x="0"
       y="0"
       width="72"
       height="72" /></clipPath><clipPath
     id="clipPath3786"><use
       xlink:href="#SVGID_1_"
       overflow="visible"
       id="use3788"
       style="overflow:visible"
       x="0"
       y="0"
       width="72"
       height="72" /></clipPath><clipPath
     id="clipPath3790"><use
       xlink:href="#SVGID_1_"
       overflow="visible"
       id="use3792"
       style="overflow:visible"
       x="0"
       y="0"
       width="72"
       height="72" /></clipPath><clipPath
     id="clipPath3794"><use
       xlink:href="#SVGID_1_"
       overflow="visible"
       id="use3796"
       style="overflow:visible"
       x="0"
       y="0"
       width="72"
       height="72" /></clipPath><clipPath
     id="clipPath3798"><use
       xlink:href="#SVGID_1_"
       overflow="visible"
       id="use3800"
       style="overflow:visible"
       x="0"
       y="0"
       width="72"
       height="72" /></clipPath><clipPath
     id="clipPath3802"><use
       xlink:href="#SVGID_1_"
       overflow="visible"
       id="use3804"
       style="overflow:visible"
       x="0"
       y="0"
       width="72"
       height="72" /></clipPath><clipPath
     id="clipPath3806"><use
       xlink:href="#SVGID_1_"
       overflow="visible"
       id="use3808"
       style="overflow:visible"
       x="0"
       y="0"
       width="72"
       height="72" /></clipPath><clipPath
     id="clipPath3810"><use
       xlink:href="#SVGID_1_"
       overflow="visible"
       id="use3812"
       style="overflow:visible"
       x="0"
       y="0"
       width="72"
       height="72" /></clipPath></defs><sodipodi:namedview
   pagecolor="#ffffff"
   bordercolor="#666666"
   borderopacity="1"
   objecttolerance="10"
   gridtolerance="10"
   guidetolerance="10"
   inkscape:pageopacity="0"
   inkscape:pageshadow="2"
   inkscape:window-width="640"
   inkscape:window-height="480"
   id="namedview841"
   showgrid="false"
   inkscape:zoom="3.2777778"
   inkscape:cx="15.44641"
   inkscape:cy="36"
   inkscape:window-x="0"
   inkscape:window-y="0"
   inkscape:window-maximized="0"
   inkscape:current-layer="Layer_1" />

<g
   transform="matrix(0.7538737,0,0,0.77624882,9.0056698,5.8784123)"
   id="g21"><path
     style="fill:#f99f20;fill-rule:evenodd"
     inkscape:connector-curvature="0"
     clip-rule="evenodd"
     d="m 29.94,36.506 c 3.496,0 6.349,-2.852 6.349,-6.349 0,-3.497 -2.853,-6.349 -6.349,-6.349 -3.497,0 -6.35,2.852 -6.35,6.349 0.001,3.497 2.853,6.349 6.35,6.349 z"
     id="path23" /><path
     style="fill:#d37028"
     inkscape:connector-curvature="0"
     d="m 29.94,23.34 c 1.88,0 3.584,0.763 4.818,1.997 l 10e-4,0.001 10e-4,10e-4 c 1.234,1.234 1.997,2.938 1.997,4.818 0,1.88 -0.763,3.585 -1.997,4.819 l -10e-4,10e-4 -10e-4,0.001 c -1.234,1.234 -2.938,1.997 -4.818,1.997 -1.881,0 -3.585,-0.763 -4.819,-1.997 L 25.12,34.977 25.119,34.976 c -1.234,-1.234 -1.997,-2.939 -1.997,-4.819 0,-1.88 0.763,-3.584 1.997,-4.818 l 0.001,-10e-4 10e-4,-0.001 C 26.355,24.103 28.06,23.34 29.94,23.34 l 0,0 z m 4.158,2.658 c -1.063,-1.063 -2.533,-1.721 -4.157,-1.721 -1.625,0 -3.096,0.658 -4.157,1.721 L 25.78,26 c -1.063,1.063 -1.721,2.533 -1.721,4.157 0,1.624 0.658,3.096 1.721,4.157 l 0.003,0.002 c 1.062,1.063 2.532,1.721 4.157,1.721 1.624,0 3.095,-0.658 4.157,-1.721 l 0.002,-0.002 c 1.063,-1.062 1.721,-2.533 1.721,-4.157 0,-1.624 -0.658,-3.094 -1.72,-4.157 l -0.002,-0.002 z"
     id="path25" /><polygon
     style="fill:#ffffff;fill-rule:evenodd"
     clip-rule="evenodd"
     points="29.94,25.352 31.536,29.612 33.132,33.872 31.031,33.872 31.031,34.963 28.85,34.963 28.85,33.872 26.748,33.872 28.344,29.612 "
     id="polygon27-1" /></g><g
   transform="matrix(0.77861784,0,0,0.7736928,8.874233,6.5555892)"
   id="g13"><polygon
     style="fill:#ffffff;fill-rule:evenodd"
     clip-rule="evenodd"
     points="23.163,49.851 26.553,43.822 29.94,37.794 33.329,43.822 36.718,49.851 29.94,49.851 "
     id="polygon15" /><path
     style="fill:#c43b3e"
     inkscape:connector-curvature="0"
     d="m 30.349,37.564 3.389,6.029 3.389,6.027 0.393,0.698 H 36.719 29.94 23.163 22.361 l 0.394,-0.698 3.389,-6.027 3.389,-6.029 0.408,-0.727 0.408,0.727 0,0 z m 2.571,6.488 -2.98,-5.302 -2.979,5.302 -2.997,5.329 h 5.977 5.977 L 32.92,44.052 z"
     id="path17" /><path
     style="fill:#010101"
     inkscape:connector-curvature="0"
     d="m 30.457,45.98 h -1.085 l -0.251,-4.705 c 0.091,-0.074 0.205,-0.137 0.342,-0.189 0.136,-0.053 0.296,-0.08 0.478,-0.08 0.182,0 0.342,0.027 0.479,0.08 0.137,0.053 0.25,0.115 0.341,0.189 l -0.304,4.705 0,0 z m -1.274,1.25 c 0,-0.105 0.021,-0.205 0.062,-0.295 0.041,-0.091 0.096,-0.171 0.167,-0.237 0.071,-0.067 0.152,-0.122 0.244,-0.159 0.09,-0.038 0.186,-0.057 0.285,-0.057 0.099,0 0.195,0.019 0.286,0.06 0.092,0.04 0.171,0.093 0.24,0.163 0.069,0.068 0.125,0.148 0.166,0.236 0.041,0.092 0.062,0.188 0.062,0.289 0,0.103 -0.02,0.2 -0.061,0.294 -0.04,0.092 -0.093,0.173 -0.159,0.242 -0.067,0.069 -0.148,0.122 -0.24,0.162 -0.094,0.04 -0.191,0.061 -0.294,0.061 -0.105,0 -0.204,-0.021 -0.295,-0.061 -0.091,-0.04 -0.172,-0.093 -0.24,-0.159 -0.069,-0.068 -0.123,-0.149 -0.162,-0.24 -0.041,-0.093 -0.061,-0.193 -0.061,-0.299 z"
     id="path19" /></g><g
   transform="matrix(0.75198379,0,0,0.83769621,8.5901178,4.0533587)"
   id="g29"><path
     style="fill:#ffffff;fill-rule:evenodd;stroke:#c43b3e;stroke-width:0.5;stroke-miterlimit:2.61310005"
     inkscape:connector-curvature="0"
     clip-rule="evenodd"
     stroke-miterlimit="2.6131"
     d="m 37.892,49.023 1.548,-1.547 c 1.036,1.098 2.505,1.783 4.133,1.783 3.137,0 5.681,-2.544 5.681,-5.681 l 0,0 c 0,1.726 -1.8,3.124 -4.019,3.124 -1.48,0 -2.773,-0.623 -3.472,-1.551 l 1.574,-1.573 h -2.119 -3.326 v 5.445 z"
     id="path31" /><path
     style="fill:#f99f20"
     inkscape:connector-curvature="0"
     d="M 47.701,39.021 48.922,37.801 49.723,37 v 1.133 5.445 0.469 h -0.47 -3.326 -2.118 -1.131 l 0.799,-0.799 1.266,-1.267 c -0.279,-0.275 -0.627,-0.51 -1.025,-0.688 -0.528,-0.235 -1.146,-0.371 -1.807,-0.371 -1.003,0 -1.905,0.313 -2.554,0.816 -0.477,0.37 -0.812,0.846 -0.938,1.37 H 37.44 c 0.114,-1.511 0.775,-2.87 1.784,-3.879 1.112,-1.113 2.651,-1.802 4.349,-1.802 0.859,0 1.684,0.18 2.433,0.503 l 10e-4,-0.002 c 0.623,0.271 1.196,0.642 1.694,1.093 z"
     id="path33" /><linearGradient
     id="linearGradient3123"
     gradientUnits="userSpaceOnUse"
     x1="46.622101"
     y1="41.127899"
     x2="41.182999"
     y2="39.771801"><stop
       offset="0"
       style="stop-color:#FFFFFF"
       id="stop3125" /><stop
       offset="1"
       style="stop-color:#FCB244"
       id="stop3127" /></linearGradient><path
     style="fill:url(#SVGID_1_-0);fill-rule:evenodd"
     inkscape:connector-curvature="0"
     clip-rule="evenodd"
     d="m 48.784,39.266 -0.747,0.748 -0.341,0.34 -0.332,-0.352 C 46.882,39.49 46.293,39.075 45.635,38.791 v -0.002 c -0.629,-0.271 -1.327,-0.422 -2.063,-0.422 -1.438,0 -2.742,0.584 -3.685,1.526 -0.243,0.243 -0.463,0.511 -0.654,0.798 0.746,-0.443 1.675,-0.707 2.677,-0.707 0.791,0 1.54,0.166 2.188,0.455 0.681,0.306 1.255,0.75 1.657,1.285 l 0.244,0.324 -0.286,0.286 -0.774,0.774 h 0.988 2.857 v -3.842 z"
     id="path40" /><path
     style="fill:#c43b3e"
     inkscape:connector-curvature="0"
     d="m 39.444,48.136 -1.221,1.221 -0.801,0.801 V 49.025 43.58 43.11 h 0.469 3.327 2.118 1.131 l -0.799,0.799 -1.266,1.268 c 0.278,0.275 0.627,0.51 1.025,0.688 0.527,0.236 1.145,0.371 1.807,0.371 1.002,0 1.905,-0.313 2.553,-0.816 0.477,-0.37 0.813,-0.845 0.939,-1.37 h 0.978 c -0.114,1.512 -0.774,2.87 -1.783,3.88 -1.113,1.112 -2.651,1.802 -4.35,1.802 -0.859,0 -1.683,-0.18 -2.433,-0.503 v 0.002 c -0.623,-0.272 -1.196,-0.643 -1.694,-1.095 z"
     id="path42" /><linearGradient
     id="linearGradient3131"
     gradientUnits="userSpaceOnUse"
     x1="45.750999"
     y1="47.434601"
     x2="40.5867"
     y2="46.0508"><stop
       offset="0"
       style="stop-color:#F59396"
       id="stop3133" /><stop
       offset="1"
       style="stop-color:#FFFFFF"
       id="stop3135" /></linearGradient><path
     style="fill:url(#SVGID_2_-9);fill-rule:evenodd"
     inkscape:connector-curvature="0"
     clip-rule="evenodd"
     d="m 38.361,47.892 0.746,-0.747 0.341,-0.341 0.332,0.353 c 0.483,0.512 1.072,0.927 1.729,1.21 v 0.002 c 0.628,0.271 1.326,0.423 2.063,0.423 1.439,0 2.743,-0.584 3.686,-1.527 0.243,-0.242 0.462,-0.51 0.654,-0.797 -0.746,0.442 -1.675,0.706 -2.677,0.706 -0.792,0 -1.54,-0.166 -2.188,-0.455 -0.681,-0.305 -1.255,-0.749 -1.658,-1.284 l -0.243,-0.324 0.285,-0.286 0.775,-0.775 h -0.988 -2.857 v 3.842 z"
     id="path49" /></g><g
   transform="translate(1.00895,-1.6698822)"
   id="g11"><defs
     id="defs13"><circle
       id="SVGID_1_"
       cx="42.007999"
       cy="31.297001"
       r="2.4059999"
       sodipodi:cx="42.007999"
       sodipodi:cy="31.297001"
       sodipodi:rx="2.4059999"
       sodipodi:ry="2.4059999" /></defs><clipPath
     id="clipPath3817"><use
       xlink:href="#SVGID_1_"
       overflow="visible"
       id="use3819"
       style="overflow:visible"
       x="0"
       y="0"
       width="72"
       height="72" /></clipPath><polygon
     clip-path="url(#SVGID_2_)"
     clip-rule="evenodd"
     points="42.008,31.297 44.346,33.791 44.501,33.636 "
     id="polygon19"
     style="fill:#ffffff;fill-rule:evenodd" /><polygon
     clip-path="url(#SVGID_2_)"
     clip-rule="evenodd"
     points="42.008,31.297 39.669,28.804 39.515,28.959 "
     id="polygon21"
     style="fill:#160b0c;fill-rule:evenodd" /><polygon
     clip-path="url(#SVGID_2_)"
     clip-rule="evenodd"
     points="42.008,31.297 44.501,33.636 44.646,33.471 "
     id="polygon23"
     style="fill:#f5e8e7;fill-rule:evenodd" /><polygon
     clip-path="url(#SVGID_2_)"
     clip-rule="evenodd"
     points="42.008,31.297 39.515,28.959 39.37,29.124 "
     id="polygon25"
     style="fill:#1c0d0d;fill-rule:evenodd" /><polygon
     clip-path="url(#SVGID_2_)"
     clip-rule="evenodd"
     points="42.008,31.297 44.646,33.471 44.779,33.297 "
     id="polygon27"
     style="fill:#f2dede;fill-rule:evenodd" /><polygon
     clip-path="url(#SVGID_2_)"
     clip-rule="evenodd"
     points="42.008,31.297 39.37,29.124 39.236,29.297 "
     id="polygon29"
     style="fill:#200e0e;fill-rule:evenodd" /><polygon
     clip-path="url(#SVGID_2_)"
     clip-rule="evenodd"
     points="42.008,31.297 44.779,33.297 44.901,33.116 "
     id="polygon31"
     style="fill:#f0d3d3;fill-rule:evenodd" /><polygon
     clip-path="url(#SVGID_2_)"
     clip-rule="evenodd"
     points="42.008,31.297 39.236,29.297 39.113,29.479 "
     id="polygon33"
     style="fill:#250e0e;fill-rule:evenodd" /><polygon
     clip-path="url(#SVGID_2_)"
     clip-rule="evenodd"
     points="42.008,31.297 44.901,33.116 45.013,32.927 "
     id="polygon35"
     style="fill:#eecac9;fill-rule:evenodd" /><polygon
     clip-path="url(#SVGID_2_)"
     clip-rule="evenodd"
     points="42.008,31.297 39.113,29.479 39.003,29.668 "
     id="polygon37"
     style="fill:#2a0f10;fill-rule:evenodd" /><polygon
     clip-path="url(#SVGID_2_)"
     clip-rule="evenodd"
     points="42.008,31.297 45.013,32.927 45.11,32.73 "
     id="polygon39"
     style="fill:#eabfbf;fill-rule:evenodd" /><polygon
     clip-path="url(#SVGID_2_)"
     clip-rule="evenodd"
     points="42.008,31.297 39.003,29.668 38.904,29.864 "
     id="polygon41"
     style="fill:#2e1111;fill-rule:evenodd" /><polygon
     clip-path="url(#SVGID_2_)"
     clip-rule="evenodd"
     points="42.008,31.297 45.11,32.73 45.196,32.529 "
     id="polygon43"
     style="fill:#e6b4b4;fill-rule:evenodd" /><polygon
     clip-path="url(#SVGID_2_)"
     clip-rule="evenodd"
     points="42.008,31.297 38.904,29.864 38.819,30.065 "
     id="polygon45"
     style="fill:#331212;fill-rule:evenodd" /><polygon
     clip-path="url(#SVGID_2_)"
     clip-rule="evenodd"
     points="42.008,31.297 45.196,32.529 45.269,32.322 "
     id="polygon47"
     style="fill:#e4aaaa;fill-rule:evenodd" /><polygon
     clip-path="url(#SVGID_2_)"
     clip-rule="evenodd"
     points="42.008,31.297 38.819,30.065 38.746,30.272 "
     id="polygon49"
     style="fill:#381312;fill-rule:evenodd" /><polygon
     clip-path="url(#SVGID_2_)"
     clip-rule="evenodd"
     points="42.008,31.297 45.269,32.322 45.327,32.111 "
     id="polygon51"
     style="fill:#e1a1a1;fill-rule:evenodd" /><polygon
     clip-path="url(#SVGID_2_)"
     clip-rule="evenodd"
     points="42.008,31.297 38.746,30.272 38.688,30.483 "
     id="polygon53"
     style="fill:#3e1313;fill-rule:evenodd" /><polygon
     clip-path="url(#SVGID_2_)"
     clip-rule="evenodd"
     points="42.008,31.297 45.327,32.111 45.373,31.897 "
     id="polygon55"
     style="fill:#de9696;fill-rule:evenodd" /><polygon
     clip-path="url(#SVGID_2_)"
     clip-rule="evenodd"
     points="42.008,31.297 38.688,30.483 38.643,30.698 "
     id="polygon57"
     style="fill:#451212;fill-rule:evenodd" /><polygon
     clip-path="url(#SVGID_2_)"
     clip-rule="evenodd"
     points="42.008,31.297 45.373,31.897 45.404,31.68 "
     id="polygon59"
     style="fill:#da8b8b;fill-rule:evenodd" /><polygon
     clip-path="url(#SVGID_2_)"
     clip-rule="evenodd"
     points="42.008,31.297 38.643,30.698 38.611,30.915 "
     id="polygon61"
     style="fill:#4b1413;fill-rule:evenodd" /><polygon
     clip-path="url(#SVGID_2_)"
     clip-rule="evenodd"
     points="42.008,31.297 45.404,31.68 45.422,31.461 "
     id="polygon63"
     style="fill:#d78182;fill-rule:evenodd" /><polygon
     clip-path="url(#SVGID_2_)"
     clip-rule="evenodd"
     points="42.008,31.297 38.611,30.915 38.594,31.133 "
     id="polygon65"
     style="fill:#521413;fill-rule:evenodd" /><polygon
     clip-path="url(#SVGID_2_)"
     clip-rule="evenodd"
     points="42.008,31.297 45.422,31.461 45.426,31.243 "
     id="polygon67"
     style="fill:#d47777;fill-rule:evenodd" /><polygon
     clip-path="url(#SVGID_2_)"
     clip-rule="evenodd"
     points="42.008,31.297 38.594,31.133 38.59,31.352 "
     id="polygon69"
     style="fill:#591110;fill-rule:evenodd" /><polygon
     clip-path="url(#SVGID_2_)"
     clip-rule="evenodd"
     points="42.008,31.297 45.426,31.243 45.415,31.023 "
     id="polygon71"
     style="fill:#d26e6e;fill-rule:evenodd" /><polygon
     clip-path="url(#SVGID_2_)"
     clip-rule="evenodd"
     points="42.008,31.297 38.59,31.352 38.601,31.571 "
     id="polygon73"
     style="fill:#600e0e;fill-rule:evenodd" /><polygon
     clip-path="url(#SVGID_2_)"
     clip-rule="evenodd"
     points="42.008,31.297 45.415,31.023 45.391,30.806 "
     id="polygon75"
     style="fill:#ce6463;fill-rule:evenodd" /><polygon
     clip-path="url(#SVGID_2_)"
     clip-rule="evenodd"
     points="42.008,31.297 38.601,31.571 38.625,31.789 "
     id="polygon77"
     style="fill:#661111;fill-rule:evenodd" /><polygon
     clip-path="url(#SVGID_2_)"
     clip-rule="evenodd"
     points="42.008,31.297 45.391,30.806 45.352,30.59 "
     id="polygon79"
     style="fill:#cb595a;fill-rule:evenodd" /><polygon
     clip-path="url(#SVGID_2_)"
     clip-rule="evenodd"
     points="42.008,31.297 38.625,31.789 38.663,32.004 "
     id="polygon81"
     style="fill:#6c1110;fill-rule:evenodd" /><polygon
     clip-path="url(#SVGID_2_)"
     clip-rule="evenodd"
     points="42.008,31.297 45.352,30.59 45.3,30.377 "
     id="polygon83"
     style="fill:#c94f4f;fill-rule:evenodd" /><polygon
     clip-path="url(#SVGID_2_)"
     clip-rule="evenodd"
     points="42.008,31.297 38.663,32.004 38.716,32.217 "
     id="polygon85"
     style="fill:#721011;fill-rule:evenodd" /><polygon
     clip-path="url(#SVGID_2_)"
     clip-rule="evenodd"
     points="42.008,31.297 45.3,30.377 45.234,30.168 "
     id="polygon87"
     style="fill:#c64544;fill-rule:evenodd" /><polygon
     clip-path="url(#SVGID_2_)"
     clip-rule="evenodd"
     points="42.008,31.297 38.716,32.217 38.781,32.426 "
     id="polygon89"
     style="fill:#781214;fill-rule:evenodd" /><polygon
     clip-path="url(#SVGID_2_)"
     clip-rule="evenodd"
     points="42.008,31.297 45.234,30.168 45.155,29.964 "
     id="polygon91"
     style="fill:#c13c3b;fill-rule:evenodd" /><polygon
     clip-path="url(#SVGID_2_)"
     clip-rule="evenodd"
     points="42.008,31.297 38.781,32.426 38.86,32.63 "
     id="polygon93"
     style="fill:#7e1416;fill-rule:evenodd" /><polygon
     clip-path="url(#SVGID_2_)"
     clip-rule="evenodd"
     points="42.008,31.297 45.155,29.964 45.063,29.765 "
     id="polygon95"
     style="fill:#bf312f;fill-rule:evenodd" /><polygon
     clip-path="url(#SVGID_2_)"
     clip-rule="evenodd"
     points="42.008,31.297 38.86,32.63 38.952,32.83 "
     id="polygon97"
     style="fill:#831618;fill-rule:evenodd" /><polygon
     clip-path="url(#SVGID_2_)"
     clip-rule="evenodd"
     points="42.008,31.297 45.063,29.765 44.959,29.572 "
     id="polygon99"
     style="fill:#bb2827;fill-rule:evenodd" /><polygon
     clip-path="url(#SVGID_2_)"
     clip-rule="evenodd"
     points="42.008,31.297 38.952,32.83 39.057,33.022 "
     id="polygon101"
     style="fill:#89181a;fill-rule:evenodd" /><polygon
     clip-path="url(#SVGID_2_)"
     clip-rule="evenodd"
     points="42.008,31.297 44.959,29.572 44.842,29.387 "
     id="polygon103"
     style="fill:#b82025;fill-rule:evenodd" /><polygon
     clip-path="url(#SVGID_2_)"
     clip-rule="evenodd"
     points="42.008,31.297 39.057,33.022 39.173,33.208 "
     id="polygon105"
     style="fill:#8f1a1c;fill-rule:evenodd" /><polygon
     clip-path="url(#SVGID_2_)"
     clip-rule="evenodd"
     points="42.008,31.297 44.842,29.387 44.714,29.209 "
     id="polygon107"
     style="fill:#b22024;fill-rule:evenodd" /><polygon
     clip-path="url(#SVGID_2_)"
     clip-rule="evenodd"
     points="42.008,31.297 39.173,33.208 39.302,33.385 "
     id="polygon109"
     style="fill:#951b1e;fill-rule:evenodd" /><polygon
     clip-path="url(#SVGID_2_)"
     clip-rule="evenodd"
     points="42.008,31.297 44.714,29.209 44.574,29.04 "
     id="polygon111"
     style="fill:#ac1f24;fill-rule:evenodd" /><polygon
     clip-path="url(#SVGID_2_)"
     clip-rule="evenodd"
     points="42.008,31.297 39.302,33.385 39.44,33.555 "
     id="polygon113"
     style="fill:#9b1c1f;fill-rule:evenodd" /><polygon
     clip-path="url(#SVGID_2_)"
     clip-rule="evenodd"
     points="42.008,31.297 44.574,29.04 44.425,28.88 "
     id="polygon115"
     style="fill:#a61e22;fill-rule:evenodd" /><polygon
     clip-path="url(#SVGID_2_)"
     clip-rule="evenodd"
     points="42.008,31.297 39.44,33.555 39.591,33.714 "
     id="polygon117"
     style="fill:#a11e21;fill-rule:evenodd" /><polygon
     clip-path="url(#SVGID_2_)"
     clip-rule="evenodd"
     points="42.008,31.297 44.425,28.88 44.265,28.73 "
     id="polygon119"
     style="fill:#a11e21;fill-rule:evenodd" /><polygon
     clip-path="url(#SVGID_2_)"
     clip-rule="evenodd"
     points="42.008,31.297 39.591,33.714 39.75,33.864 "
     id="polygon121"
     style="fill:#a61e22;fill-rule:evenodd" /><polygon
     clip-path="url(#SVGID_2_)"
     clip-rule="evenodd"
     points="42.008,31.297 44.265,28.73 44.096,28.591 "
     id="polygon123"
     style="fill:#9b1c1f;fill-rule:evenodd" /><polygon
     clip-path="url(#SVGID_2_)"
     clip-rule="evenodd"
     points="42.008,31.297 39.75,33.864 39.92,34.003 "
     id="polygon125"
     style="fill:#ac1f24;fill-rule:evenodd" /><polygon
     clip-path="url(#SVGID_2_)"
     clip-rule="evenodd"
     points="42.008,31.297 44.096,28.591 43.918,28.463 "
     id="polygon127"
     style="fill:#951b1e;fill-rule:evenodd" /><polygon
     clip-path="url(#SVGID_2_)"
     clip-rule="evenodd"
     points="42.008,31.297 39.92,34.003 40.098,34.132 "
     id="polygon129"
     style="fill:#b22024;fill-rule:evenodd" /><polygon
     clip-path="url(#SVGID_2_)"
     clip-rule="evenodd"
     points="42.008,31.297 43.918,28.463 43.732,28.346 "
     id="polygon131"
     style="fill:#8f1a1c;fill-rule:evenodd" /><polygon
     clip-path="url(#SVGID_2_)"
     clip-rule="evenodd"
     points="42.008,31.297 40.098,34.132 40.282,34.249 "
     id="polygon133"
     style="fill:#b82025;fill-rule:evenodd" /><polygon
     clip-path="url(#SVGID_2_)"
     clip-rule="evenodd"
     points="42.008,31.297 43.732,28.346 43.54,28.242 "
     id="polygon135"
     style="fill:#89181a;fill-rule:evenodd" /><polygon
     clip-path="url(#SVGID_2_)"
     clip-rule="evenodd"
     points="42.008,31.297 40.282,34.249 40.476,34.353 "
     id="polygon137"
     style="fill:#bb2827;fill-rule:evenodd" /><polygon
     clip-path="url(#SVGID_2_)"
     clip-rule="evenodd"
     points="42.008,31.297 43.54,28.242 43.341,28.15 "
     id="polygon139"
     style="fill:#831618;fill-rule:evenodd" /><polygon
     clip-path="url(#SVGID_2_)"
     clip-rule="evenodd"
     points="42.008,31.297 40.476,34.353 40.675,34.444 "
     id="polygon141"
     style="fill:#bf312f;fill-rule:evenodd" /><polygon
     clip-path="url(#SVGID_2_)"
     clip-rule="evenodd"
     points="42.008,31.297 43.341,28.15 43.137,28.071 "
     id="polygon143"
     style="fill:#7e1416;fill-rule:evenodd" /><polygon
     clip-path="url(#SVGID_2_)"
     clip-rule="evenodd"
     points="42.008,31.297 40.675,34.444 40.879,34.523 "
     id="polygon145"
     style="fill:#c13c3b;fill-rule:evenodd" /><polygon
     clip-path="url(#SVGID_2_)"
     clip-rule="evenodd"
     points="42.008,31.297 43.137,28.071 42.928,28.005 "
     id="polygon147"
     style="fill:#781214;fill-rule:evenodd" /><polygon
     clip-path="url(#SVGID_2_)"
     clip-rule="evenodd"
     points="42.008,31.297 40.879,34.523 41.088,34.589 "
     id="polygon149"
     style="fill:#c64544;fill-rule:evenodd" /><polygon
     clip-path="url(#SVGID_2_)"
     clip-rule="evenodd"
     points="42.008,31.297 42.928,28.005 42.715,27.953 "
     id="polygon151"
     style="fill:#721011;fill-rule:evenodd" /><polygon
     clip-path="url(#SVGID_2_)"
     clip-rule="evenodd"
     points="42.008,31.297 41.088,34.589 41.301,34.642 "
     id="polygon153"
     style="fill:#c94f4f;fill-rule:evenodd" /><polygon
     clip-path="url(#SVGID_2_)"
     clip-rule="evenodd"
     points="42.008,31.297 42.715,27.953 42.499,27.915 "
     id="polygon155"
     style="fill:#6c1110;fill-rule:evenodd" /><polygon
     clip-path="url(#SVGID_2_)"
     clip-rule="evenodd"
     points="42.008,31.297 41.301,34.642 41.517,34.68 "
     id="polygon157"
     style="fill:#cb595a;fill-rule:evenodd" /><polygon
     clip-path="url(#SVGID_2_)"
     clip-rule="evenodd"
     points="42.008,31.297 42.499,27.915 42.281,27.89 "
     id="polygon159"
     style="fill:#661111;fill-rule:evenodd" /><polygon
     clip-path="url(#SVGID_2_)"
     clip-rule="evenodd"
     points="42.008,31.297 41.517,34.68 41.734,34.705 "
     id="polygon161"
     style="fill:#ce6463;fill-rule:evenodd" /><polygon
     clip-path="url(#SVGID_2_)"
     clip-rule="evenodd"
     points="42.008,31.297 42.281,27.89 42.063,27.879 "
     id="polygon163"
     style="fill:#600e0e;fill-rule:evenodd" /><polygon
     clip-path="url(#SVGID_2_)"
     clip-rule="evenodd"
     points="42.008,31.297 41.734,34.705 41.953,34.715 "
     id="polygon165"
     style="fill:#d26e6e;fill-rule:evenodd" /><polygon
     clip-path="url(#SVGID_2_)"
     clip-rule="evenodd"
     points="42.008,31.297 42.063,27.879 41.844,27.883 "
     id="polygon167"
     style="fill:#591110;fill-rule:evenodd" /><polygon
     clip-path="url(#SVGID_2_)"
     clip-rule="evenodd"
     points="42.008,31.297 41.953,34.715 42.172,34.711 "
     id="polygon169"
     style="fill:#d47777;fill-rule:evenodd" /><polygon
     clip-path="url(#SVGID_2_)"
     clip-rule="evenodd"
     points="42.008,31.297 41.844,27.883 41.625,27.9 "
     id="polygon171"
     style="fill:#521413;fill-rule:evenodd" /><polygon
     clip-path="url(#SVGID_2_)"
     clip-rule="evenodd"
     points="42.008,31.297 42.172,34.711 42.391,34.694 "
     id="polygon173"
     style="fill:#d78182;fill-rule:evenodd" /><polygon
     clip-path="url(#SVGID_2_)"
     clip-rule="evenodd"
     points="42.008,31.297 41.625,27.9 41.408,27.932 "
     id="polygon175"
     style="fill:#4b1413;fill-rule:evenodd" /><polygon
     clip-path="url(#SVGID_2_)"
     clip-rule="evenodd"
     points="42.008,31.297 42.391,34.694 42.607,34.663 "
     id="polygon177"
     style="fill:#da8b8b;fill-rule:evenodd" /><polygon
     clip-path="url(#SVGID_2_)"
     clip-rule="evenodd"
     points="42.008,31.297 41.408,27.932 41.193,27.978 "
     id="polygon179"
     style="fill:#451212;fill-rule:evenodd" /><polygon
     clip-path="url(#SVGID_2_)"
     clip-rule="evenodd"
     points="42.008,31.297 42.607,34.663 42.821,34.617 "
     id="polygon181"
     style="fill:#de9696;fill-rule:evenodd" /><polygon
     clip-path="url(#SVGID_2_)"
     clip-rule="evenodd"
     points="42.008,31.297 41.193,27.978 40.982,28.036 "
     id="polygon183"
     style="fill:#3e1313;fill-rule:evenodd" /><polygon
     clip-path="url(#SVGID_2_)"
     clip-rule="evenodd"
     points="42.008,31.297 42.821,34.617 43.032,34.558 "
     id="polygon185"
     style="fill:#e1a1a1;fill-rule:evenodd" /><polygon
     clip-path="url(#SVGID_2_)"
     clip-rule="evenodd"
     points="42.008,31.297 40.982,28.036 40.776,28.109 "
     id="polygon187"
     style="fill:#381312;fill-rule:evenodd" /><polygon
     clip-path="url(#SVGID_2_)"
     clip-rule="evenodd"
     points="42.008,31.297 43.032,34.558 43.239,34.486 "
     id="polygon189"
     style="fill:#e4aaaa;fill-rule:evenodd" /><polygon
     clip-path="url(#SVGID_2_)"
     clip-rule="evenodd"
     points="42.008,31.297 40.776,28.109 40.574,28.194 "
     id="polygon191"
     style="fill:#331212;fill-rule:evenodd" /><polygon
     clip-path="url(#SVGID_2_)"
     clip-rule="evenodd"
     points="42.008,31.297 43.239,34.486 43.441,34.4 "
     id="polygon193"
     style="fill:#e6b4b4;fill-rule:evenodd" /><polygon
     clip-path="url(#SVGID_2_)"
     clip-rule="evenodd"
     points="42.008,31.297 40.574,28.194 40.378,28.292 "
     id="polygon195"
     style="fill:#2e1111;fill-rule:evenodd" /><polygon
     clip-path="url(#SVGID_2_)"
     clip-rule="evenodd"
     points="42.008,31.297 43.441,34.4 43.637,34.302 "
     id="polygon197"
     style="fill:#eabfbf;fill-rule:evenodd" /><polygon
     clip-path="url(#SVGID_2_)"
     clip-rule="evenodd"
     points="42.008,31.297 40.378,28.292 40.189,28.403 "
     id="polygon199"
     style="fill:#2a0f10;fill-rule:evenodd" /><polygon
     clip-path="url(#SVGID_2_)"
     clip-rule="evenodd"
     points="42.008,31.297 43.637,34.302 43.826,34.191 "
     id="polygon201"
     style="fill:#eecac9;fill-rule:evenodd" /><polygon
     clip-path="url(#SVGID_2_)"
     clip-rule="evenodd"
     points="42.008,31.297 40.189,28.403 40.008,28.525 "
     id="polygon203"
     style="fill:#250e0e;fill-rule:evenodd" /><polygon
     clip-path="url(#SVGID_2_)"
     clip-rule="evenodd"
     points="42.008,31.297 43.826,34.191 44.008,34.069 "
     id="polygon205"
     style="fill:#f0d3d3;fill-rule:evenodd" /><polygon
     clip-path="url(#SVGID_2_)"
     clip-rule="evenodd"
     points="42.008,31.297 40.008,28.525 39.834,28.659 "
     id="polygon207"
     style="fill:#200e0e;fill-rule:evenodd" /><polygon
     clip-path="url(#SVGID_2_)"
     clip-rule="evenodd"
     points="42.008,31.297 44.008,34.069 44.182,33.935 "
     id="polygon209"
     style="fill:#f2dede;fill-rule:evenodd" /><polygon
     clip-path="url(#SVGID_2_)"
     clip-rule="evenodd"
     points="42.008,31.297 39.834,28.659 39.669,28.804 "
     id="polygon211"
     style="fill:#1c0d0d;fill-rule:evenodd" /><polygon
     clip-path="url(#SVGID_2_)"
     clip-rule="evenodd"
     points="42.008,31.297 44.182,33.935 44.346,33.791 "
     id="polygon213"
     style="fill:#f5e8e7;fill-rule:evenodd" /></g><circle
   transform="translate(1.00895,-1.3647972)"
   style="fill:#6abd45;fill-rule:evenodd"
   sodipodi:ry="0.875"
   sodipodi:rx="0.875"
   sodipodi:cy="31.297001"
   sodipodi:cx="42.007999"
   clip-rule="evenodd"
   cx="42.007999"
   cy="31.297001"
   r="0.875"
   id="circle833" /></svg>