<?xml version="1.0" encoding="utf-8"?>
<!-- Generator: Adobe Illustrator 15.1.0, SVG Export Plug-In . SVG Version: 6.00 Build 0)  -->
<!DOCTYPE svg PUBLIC "-//W3C//DTD SVG 1.1//EN" "http://www.w3.org/Graphics/SVG/1.1/DTD/svg11.dtd">
<svg version="1.1" id="Layer_1" xmlns="http://www.w3.org/2000/svg" xmlns:xlink="http://www.w3.org/1999/xlink" x="0px" y="0px"
	 width="72px" height="72px" viewBox="0 0 72 72" enable-background="new 0 0 72 72" xml:space="preserve">
<g>
	<path fill="#763217" d="M36.528,28.157c1.437,0,2.823,0.224,4.099,0.63c1.334,0.424,2.536,1.047,3.545,1.818
		c1.056,0.808,1.909,1.783,2.496,2.874c0.58,1.076,0.9,2.26,0.9,3.502c0,1.243-0.32,2.427-0.9,3.503
		c-0.587,1.09-1.44,2.065-2.496,2.873c-1.008,0.771-2.211,1.395-3.545,1.818c-1.275,0.405-2.662,0.629-4.099,0.629h-8.461h-0.469
		h-1.126V44.68v-0.47V29.752v-0.469v-1.126h1.126h0.469H36.528L36.528,28.157z M42.241,33.134c-0.726-0.555-1.604-1.007-2.589-1.318
		c-0.957-0.301-2.013-0.469-3.124-0.469h-6.865v11.268h6.865c1.111,0,2.167-0.167,3.124-0.469c0.984-0.312,1.863-0.764,2.589-1.318
		c0.689-0.526,1.24-1.146,1.61-1.826c0.34-0.623,0.526-1.306,0.526-2.021s-0.187-1.397-0.526-2.021
		C43.481,34.282,42.931,33.661,42.241,33.134z"/>
	<path fill="#F47B20" d="M36.528,29.283c2.712,0,5.175,0.847,6.962,2.215c1.823,1.396,2.952,3.334,2.952,5.483
		c0,2.149-1.129,4.088-2.952,5.483c-1.787,1.367-4.25,2.215-6.962,2.215h-8.461h-0.469v-0.47V29.752v-0.469h0.469H36.528
		L36.528,29.283z M42.923,32.242c-1.63-1.248-3.892-2.02-6.395-2.02h-7.991v13.52h7.991c2.503,0,4.765-0.772,6.395-2.021
		c1.595-1.22,2.581-2.896,2.581-4.739C45.504,35.139,44.518,33.462,42.923,32.242z"/>
</g>
</svg>
