<?xml version="1.0" encoding="utf-8"?>
<!-- Generator: Adobe Illustrator 15.1.0, SVG Export Plug-In . SVG Version: 6.00 Build 0)  -->
<!DOCTYPE svg PUBLIC "-//W3C//DTD SVG 1.1//EN" "http://www.w3.org/Graphics/SVG/1.1/DTD/svg11.dtd">
<svg version="1.1" id="Layer_1" xmlns="http://www.w3.org/2000/svg" xmlns:xlink="http://www.w3.org/1999/xlink" x="0px" y="0px"
	 width="72px" height="72px" viewBox="0 0 72 72" enable-background="new 0 0 72 72" xml:space="preserve">
<g>
	<g>
		<path fill="#D35927" d="M46.706,27.165c1.237,1.237,1.354,3.303,0.547,5.727h-1.992c0.794-2.007,0.896-3.624,0.12-4.4
			c-0.808-0.807-2.521-0.665-4.639,0.216c-2.366,0.984-5.127,2.89-7.716,5.479l-0.002,0.002l-0.003,0.003
			c-2.589,2.589-4.494,5.35-5.479,7.716c-0.881,2.117-1.022,3.83-0.216,4.638c0.807,0.807,2.522,0.665,4.639-0.216
			c1.584-0.66,3.343-1.73,5.11-3.143l0.565,0.781l-1.932,1.512l-0.253,0.197c-0.204,0.158-0.374,0.344-0.505,0.545l0.002,0.002
			c-0.141,0.213-0.244,0.445-0.303,0.675l-0.004,0.009c-0.018,0.07-0.032,0.141-0.042,0.213c-0.657,0.366-1.3,0.68-1.919,0.938
			c-2.833,1.18-5.286,1.21-6.684-0.188c-1.397-1.397-1.366-3.85-0.187-6.683c1.076-2.583,3.122-5.563,5.882-8.324l0.002-0.003
			L31.7,32.86c2.759-2.759,5.739-4.807,8.323-5.882C42.857,25.799,45.309,25.769,46.706,27.165L46.706,27.165z"/>
		<path fill="#6F1A16" d="M45.945,25.943L45.945,25.943l0.001,0.004c1.396,1.397,1.364,3.847,0.187,6.677l-0.113,0.268h-2.068
			c0.168-0.334,0.318-0.664,0.452-0.985c0.881-2.116,1.022-3.83,0.218-4.638L44.62,27.27h-0.001v-0.001l0.002-0.001
			c-0.808-0.805-2.522-0.663-4.639,0.218c-2.365,0.985-5.124,2.888-7.712,5.476l-0.007,0.007l-0.007,0.007
			c-2.588,2.588-4.492,5.346-5.476,7.712c-0.881,2.115-1.023,3.83-0.218,4.638l0.001-0.002l0.001,0.001l0,0l-0.001,0.002
			c0.808,0.805,2.522,0.662,4.638-0.219c1.592-0.662,3.362-1.741,5.138-3.164c0.066,0.24,0.175,0.473,0.331,0.689l0.281,0.393h0.006
			l0.377,0.521c-1.859,1.466-3.723,2.587-5.415,3.292c-2.831,1.178-5.281,1.208-6.677-0.188h-0.004h0l0-0.001v-0.003
			c-1.396-1.396-1.365-3.848-0.187-6.678c1.074-2.582,3.119-5.561,5.879-8.32l0.007-0.007l0.007-0.007
			c2.759-2.759,5.737-4.804,8.319-5.879c2.831-1.178,5.282-1.209,6.678,0.187L45.945,25.943L45.945,25.943L45.945,25.943z"/>
	</g>
	<path fill="#676767" d="M37.696,33.831h10.135c0.354,0,0.67,0.146,0.901,0.383h0.001c0.229,0.233,0.368,0.553,0.368,0.893v1.508
		c0,0.338-0.139,0.658-0.368,0.893h-0.001c-0.231,0.236-0.548,0.383-0.901,0.383H37.696c-0.356,0-0.679-0.152-0.91-0.393
		l-0.009-0.008c-0.215-0.229-0.351-0.539-0.351-0.875v-1.508c0-0.339,0.137-0.648,0.351-0.875l0.009-0.009
		C37.018,33.982,37.34,33.831,37.696,33.831z"/>
	<linearGradient id="SVGID_1_" gradientUnits="userSpaceOnUse" x1="42.7637" y1="34.6382" x2="42.7637" y2="36.4467">
		<stop  offset="0" style="stop-color:#CBCACA"/>
		<stop  offset="1" style="stop-color:#969697"/>
	</linearGradient>
	<path fill-rule="evenodd" clip-rule="evenodd" fill="url(#SVGID_1_)" d="M37.696,34.957h10.135c0.08,0,0.144,0.068,0.144,0.15
		v1.508c0,0.082-0.063,0.15-0.144,0.15H37.696c-0.078,0-0.144-0.068-0.144-0.15v-1.508C37.553,35.024,37.618,34.957,37.696,34.957z"
		/>
	<path fill="#676767" d="M36.028,46.418l2.896-2.268l-1.49-2.063H37.43c-0.236-0.328-0.283-0.719-0.176-1.08h0.002
		c0.075-0.251,0.233-0.493,0.455-0.667h0.004l1.357-1.062l-0.002-0.002l0.008-0.006l0.03-0.021c0.229-0.168,0.505-0.252,0.762-0.256
		l0.014-0.004c0.366,0,0.726,0.153,0.976,0.478l0.049,0.062l0.002,0.004l-0.003,0.001l1.414,1.958l2.815-2.204l-0.002-0.002
		l0.006-0.005l0.053-0.039c0.236-0.172,0.526-0.256,0.799-0.248c0.361,0.012,0.695,0.167,0.934,0.464l0.062,0.075l0.002,0.004
		l-0.003,0.002l0.745,1.03l0.005,0.005c0.219,0.307,0.279,0.678,0.191,1.028l-0.004,0.004c-0.068,0.263-0.228,0.521-0.461,0.705
		l-0.004,0.005l-2.902,2.27l1.49,2.063h0.005c0.235,0.328,0.282,0.719,0.175,1.079h-0.002c-0.075,0.251-0.233,0.494-0.455,0.668
		h-0.004l-1.359,1.063l-0.025,0.022l-0.009,0.005l-0.009,0.005c-0.229,0.164-0.499,0.247-0.752,0.25l-0.014,0.005
		c-0.373,0-0.718-0.156-0.963-0.46l-0.062-0.079l-0.002-0.003l0.003-0.003l-1.414-1.957l-2.836,2.22l-0.004,0.004l-0.007,0.006
		l-0.026,0.021c-0.243,0.176-0.529,0.254-0.799,0.246c-0.365-0.011-0.706-0.173-0.937-0.463l-0.035-0.049l-0.002-0.003l0.001-0.001
		l-0.765-1.059l-0.005-0.005c-0.221-0.312-0.28-0.68-0.191-1.028l0.004-0.004C35.627,46.861,35.79,46.602,36.028,46.418
		L36.028,46.418z"/>
	<linearGradient id="SVGID_2_" gradientUnits="userSpaceOnUse" x1="41.7402" y1="33.3784" x2="41.7402" y2="43.0799">
		<stop  offset="0" style="stop-color:#CBCACA"/>
		<stop  offset="1" style="stop-color:#969697"/>
	</linearGradient>
	<path fill-rule="evenodd" clip-rule="evenodd" fill="url(#SVGID_2_)" d="M36.713,47.306l3.752-2.937l-2.121-2.938
		c-0.04-0.056-0.013-0.148,0.063-0.207l1.358-1.063c0.075-0.059,0.169-0.061,0.209-0.005l2.121,2.938l3.752-2.938
		c0.071-0.056,0.163-0.054,0.206,0.005l0.769,1.063c0.042,0.059,0.019,0.151-0.054,0.207l-3.752,2.938l2.121,2.936
		c0.041,0.057,0.014,0.149-0.061,0.208l-1.359,1.063c-0.075,0.059-0.169,0.06-0.209,0.005l-2.121-2.937l-3.752,2.937
		c-0.072,0.056-0.164,0.054-0.206-0.005l-0.769-1.063C36.618,47.454,36.642,47.361,36.713,47.306z"/>
</g>
</svg>
