<?xml version="1.0" encoding="utf-8"?>
<!-- Generator: Adobe Illustrator 15.1.0, SVG Export Plug-In . SVG Version: 6.00 Build 0)  -->
<!DOCTYPE svg PUBLIC "-//W3C//DTD SVG 1.1//EN" "http://www.w3.org/Graphics/SVG/1.1/DTD/svg11.dtd">
<svg version="1.1" id="Layer_1" xmlns="http://www.w3.org/2000/svg" xmlns:xlink="http://www.w3.org/1999/xlink" x="0px" y="0px"
	 width="72px" height="72px" viewBox="0 0 72 72" enable-background="new 0 0 72 72" xml:space="preserve">
<g>
	<polygon fill="#1A7D3E" points="47.658,46.951 47.658,25.61 47.658,25.141 47.188,25.141 33.8,25.141 33.578,25.141 33.436,25.318 
		24.895,35.989 24.661,36.281 24.895,36.572 33.436,47.244 33.578,47.422 33.8,47.422 47.188,47.422 47.658,47.422 	"/>
	<linearGradient id="SVGID_1_" gradientUnits="userSpaceOnUse" x1="44.417" y1="44.709" x2="32.114" y2="24.2334">
		<stop  offset="0" style="stop-color:#63BC4C"/>
		<stop  offset="0.61" style="stop-color:#84C557"/>
		<stop  offset="1" style="stop-color:#BEDFB1"/>
	</linearGradient>
	<polygon fill="url(#SVGID_1_)" points="46.719,26.079 46.719,46.482 34.023,46.482 25.857,36.281 34.023,26.079 	"/>
	<linearGradient id="SVGID_2_" gradientUnits="userSpaceOnUse" x1="36.4878" y1="47.1494" x2="36.4878" y2="29.0044">
		<stop  offset="0" style="stop-color:#84C557"/>
		<stop  offset="1" style="stop-color:#77C157"/>
	</linearGradient>
	<polygon fill="url(#SVGID_2_)" points="45.546,45.354 45.546,27.208 34.691,27.208 27.429,36.281 34.691,45.354 	"/>
</g>
</svg>
