<?xml version="1.0" encoding="utf-8"?>
<!-- Generator: Adobe Illustrator 15.1.0, SVG Export Plug-In . SVG Version: 6.00 Build 0)  -->
<!DOCTYPE svg PUBLIC "-//W3C//DTD SVG 1.1//EN" "http://www.w3.org/Graphics/SVG/1.1/DTD/svg11.dtd">
<svg version="1.1" id="Layer_1" xmlns="http://www.w3.org/2000/svg" xmlns:xlink="http://www.w3.org/1999/xlink" x="0px" y="0px"
	 width="72px" height="72px" viewBox="0 0 72 72" enable-background="new 0 0 72 72" xml:space="preserve">
<g>
	<g>
		<linearGradient id="SVGID_1_" gradientUnits="userSpaceOnUse" x1="36.5801" y1="42.2324" x2="40.9302" y2="32.9035">
			<stop  offset="0" style="stop-color:#ACCCD4"/>
			<stop  offset="1" style="stop-color:#E5F5FD"/>
		</linearGradient>
		<path fill-rule="evenodd" clip-rule="evenodd" fill="url(#SVGID_1_)" d="M37.845,32.908c1.741,0,3.183,1.289,3.422,2.964
			c0.334-0.115,0.693-0.177,1.067-0.177c1.789,0,3.243,1.425,3.292,3.201c0.444,0.355,0.729,0.902,0.729,1.516
			c0,1.073-0.869,1.942-1.942,1.942c-0.354,0-0.688-0.096-0.974-0.262c-0.345,0.123-0.717,0.19-1.104,0.19c-3.293,0-5.622,0-9.476,0
			c-1.91,0-3.458-1.549-3.458-3.459c0-1.908,1.548-3.457,3.458-3.457c0.57,0,1.109,0.138,1.583,0.383
			C34.731,34.134,36.145,32.908,37.845,32.908z"/>
		<path fill-rule="evenodd" clip-rule="evenodd" fill="#E5F5FC" d="M37.845,32.908c0.238,0,0.47,0.024,0.695,0.07
			c1.203,0.826,2.003,2.294,2.003,3.969c0,0.484-0.105,1.492-0.65,2.064c0.003-0.077,0.005-0.154,0.005-0.232
			c0-2.583-1.904-4.675-4.252-4.675c-0.148,0-0.293,0.008-0.438,0.024C35.842,33.382,36.787,32.908,37.845,32.908z"/>
		<path fill-rule="evenodd" clip-rule="evenodd" fill="#E5F5FC" d="M36.814,42.283h-0.242c0.004-0.078,0.006-0.158,0.006-0.238
			c0-2.648-2.148-4.797-4.797-4.797c-0.803,0-1.559,0.197-2.224,0.546c0.422-1.355,1.656-2.352,3.135-2.422
			c2.564,0.096,4.614,2.207,4.614,4.793C37.307,40.926,37.129,41.645,36.814,42.283z"/>
		<path fill-rule="evenodd" clip-rule="evenodd" fill="#E5F5FC" d="M44.008,40.566c0-1.372-1.522-2.297-2.655-2.145
			s-1.024,0.279-1.46,0.59c0.277-1.012,1.087-1.838,2.057-2.018C44.916,36.424,44.905,39.647,44.008,40.566z"/>
		<path fill="#87A7AF" d="M37.845,32.439c0.979,0,1.878,0.361,2.567,0.958c0.57,0.494,0.998,1.15,1.209,1.897l0.096-0.016
			c0.205-0.034,0.412-0.053,0.617-0.053c1.018,0,1.944,0.407,2.622,1.066c0.632,0.614,1.05,1.45,1.126,2.383
			c0.206,0.198,0.378,0.435,0.503,0.696c0.152,0.317,0.238,0.671,0.238,1.041c0,0.666-0.27,1.27-0.706,1.705h-0.002
			c-0.436,0.436-1.038,0.706-1.703,0.706c-0.214,0-0.424-0.028-0.625-0.083c-0.134-0.035-0.266-0.083-0.39-0.141
			c-0.138,0.039-0.278,0.072-0.423,0.097c-0.21,0.036-0.425,0.056-0.641,0.056h-9.476c-1.084,0-2.066-0.439-2.776-1.149
			c-0.711-0.711-1.15-1.692-1.15-2.778c0-1.084,0.44-2.066,1.15-2.776c0.71-0.71,1.692-1.149,2.776-1.149
			c0.313,0,0.624,0.039,0.925,0.112l0,0c0.116,0.028,0.23,0.062,0.342,0.099c0.233-0.693,0.655-1.3,1.203-1.758
			C36.01,32.782,36.889,32.439,37.845,32.439L37.845,32.439z M39.801,34.105c-0.523-0.453-1.207-0.728-1.956-0.728
			c-0.729,0-1.397,0.26-1.915,0.692c-0.528,0.441-0.902,1.06-1.028,1.763l-0.112,0.624l-0.563-0.29
			c-0.209-0.108-0.433-0.193-0.661-0.248h-0.002c-0.22-0.053-0.457-0.082-0.705-0.082c-0.825,0-1.572,0.335-2.113,0.875
			c-0.54,0.54-0.875,1.288-0.875,2.112c0,0.826,0.335,1.574,0.875,2.114c0.541,0.54,1.288,0.876,2.113,0.876h9.476
			c0.168,0,0.33-0.015,0.483-0.041c0.157-0.026,0.314-0.068,0.464-0.121l0.204-0.072l0.188,0.107
			c0.107,0.064,0.229,0.115,0.354,0.148c0.121,0.031,0.25,0.049,0.384,0.049c0.408,0,0.776-0.164,1.043-0.43l-0.001-0.002
			c0.267-0.266,0.432-0.635,0.432-1.041c0-0.23-0.052-0.448-0.144-0.638c-0.095-0.198-0.236-0.375-0.409-0.513l-0.168-0.135
			l-0.006-0.218c-0.021-0.763-0.346-1.45-0.854-1.947c-0.508-0.493-1.203-0.798-1.971-0.798c-0.165,0-0.321,0.013-0.468,0.038
			c-0.148,0.024-0.299,0.063-0.447,0.114L40.884,36.5l-0.081-0.562C40.698,35.208,40.33,34.564,39.801,34.105z"/>
	</g>
	<linearGradient id="SVGID_2_" gradientUnits="userSpaceOnUse" x1="32.2979" y1="49.1094" x2="36.6484" y2="39.7797">
		<stop  offset="0" style="stop-color:#ACCCD4"/>
		<stop  offset="1" style="stop-color:#E5F5FD"/>
	</linearGradient>
	<path fill-rule="evenodd" clip-rule="evenodd" fill="url(#SVGID_2_)" d="M33.553,39.803c1.741,0,3.182,1.289,3.422,2.964
		c0.334-0.114,0.694-0.177,1.067-0.177c1.789,0,3.243,1.424,3.293,3.201c0.443,0.355,0.728,0.902,0.728,1.516
		c0,1.073-0.869,1.942-1.941,1.942c-0.355,0-0.688-0.095-0.974-0.261c-0.346,0.122-0.718,0.189-1.105,0.189
		c-3.293,0-5.622,0-9.475,0c-1.91,0-3.458-1.548-3.458-3.458c0-1.909,1.548-3.457,3.458-3.457c0.569,0,1.108,0.138,1.582,0.382
		C30.439,41.029,31.853,39.803,33.553,39.803z"/>
	<path fill-rule="evenodd" clip-rule="evenodd" fill="#E5F5FC" d="M33.553,39.803c0.238,0,0.47,0.024,0.695,0.07
		c1.203,0.826,2.004,2.295,2.004,3.969c0,0.484-0.106,1.492-0.651,2.064c0.004-0.077,0.005-0.154,0.005-0.232
		c0-2.582-1.904-4.676-4.252-4.676c-0.148,0-0.293,0.01-0.438,0.025C31.55,40.276,32.496,39.803,33.553,39.803z"/>
	<path fill-rule="evenodd" clip-rule="evenodd" fill="#E5F5FC" d="M32.523,49.178H32.28c0.004-0.079,0.006-0.158,0.006-0.238
		c0-2.648-2.148-4.797-4.797-4.797c-0.803,0-1.559,0.197-2.224,0.547c0.422-1.355,1.656-2.353,3.135-2.423
		c2.563,0.096,4.614,2.205,4.614,4.793C33.015,47.819,32.838,48.539,32.523,49.178z"/>
	<path fill-rule="evenodd" clip-rule="evenodd" fill="#E5F5FC" d="M39.716,47.46c0-1.37-1.522-2.296-2.655-2.144
		c-1.132,0.152-1.024,0.279-1.46,0.59c0.277-1.012,1.087-1.837,2.058-2.018C40.624,43.318,40.613,46.542,39.716,47.46z"/>
	<path fill="#87A7AF" d="M33.553,39.334c0.979,0,1.878,0.361,2.567,0.959c0.57,0.493,0.998,1.149,1.21,1.896l0.095-0.017
		c0.205-0.034,0.412-0.052,0.617-0.052c1.019,0,1.944,0.406,2.622,1.065c0.632,0.614,1.049,1.45,1.126,2.384
		c0.206,0.197,0.378,0.434,0.503,0.695c0.152,0.317,0.238,0.672,0.238,1.041c0,0.666-0.27,1.27-0.705,1.706h-0.003
		c-0.436,0.435-1.038,0.705-1.702,0.705c-0.215,0-0.425-0.028-0.626-0.082c-0.134-0.036-0.266-0.084-0.39-0.143
		c-0.138,0.041-0.279,0.074-0.423,0.099c-0.21,0.035-0.425,0.055-0.641,0.055h-9.475c-1.085,0-2.067-0.439-2.777-1.149
		c-0.711-0.711-1.15-1.692-1.15-2.777s0.44-2.066,1.15-2.776c0.71-0.711,1.692-1.15,2.777-1.15c0.313,0,0.624,0.039,0.925,0.112
		v0.001c0.115,0.027,0.229,0.061,0.341,0.098c0.233-0.693,0.655-1.299,1.203-1.758C31.719,39.677,32.598,39.334,33.553,39.334
		L33.553,39.334z M35.509,41c-0.523-0.453-1.207-0.729-1.956-0.729c-0.729,0-1.397,0.262-1.915,0.693
		c-0.528,0.44-0.902,1.061-1.028,1.763l-0.111,0.624l-0.563-0.291c-0.21-0.107-0.433-0.192-0.662-0.247h-0.002
		c-0.22-0.054-0.457-0.081-0.704-0.081c-0.825,0-1.573,0.334-2.114,0.875c-0.54,0.54-0.875,1.288-0.875,2.112
		c0,0.825,0.335,1.573,0.875,2.113c0.541,0.54,1.289,0.876,2.114,0.876h9.475c0.168,0,0.33-0.015,0.483-0.041
		c0.157-0.026,0.314-0.068,0.464-0.121l0.204-0.072l0.188,0.108c0.109,0.063,0.229,0.114,0.355,0.147
		c0.121,0.032,0.25,0.05,0.385,0.05c0.406,0,0.775-0.166,1.042-0.431l-0.001-0.001c0.267-0.267,0.431-0.635,0.431-1.042
		c0-0.23-0.051-0.447-0.142-0.638c-0.096-0.198-0.236-0.374-0.41-0.513l-0.168-0.135l-0.006-0.217
		c-0.021-0.764-0.346-1.451-0.855-1.948c-0.507-0.493-1.202-0.798-1.97-0.798c-0.165,0-0.32,0.014-0.468,0.037
		c-0.148,0.025-0.299,0.064-0.448,0.115l-0.534,0.184l-0.081-0.562C36.406,42.104,36.038,41.459,35.509,41z"/>
	<radialGradient id="SVGID_3_" cx="42.9043" cy="34.7554" r="5.0128" gradientUnits="userSpaceOnUse">
		<stop  offset="0" style="stop-color:#FFFFFF"/>
		<stop  offset="1" style="stop-color:#0FA8E1"/>
	</radialGradient>
	<path fill-rule="evenodd" clip-rule="evenodd" fill="url(#SVGID_3_)" d="M43.713,23.631c0.194,7.388,4.027,9.403,4.521,12.069
		c0.491,2.667-1.758,4.29-3.993,4.29c-2.233,0-4.15-1.224-4.115-3.995C40.16,33.223,43.414,29.647,43.713,23.631z"/>
	<path fill="#3982A9" d="M44.181,23.62c0.124,4.718,1.781,7.19,3.037,9.065c0.702,1.047,1.289,1.922,1.476,2.932
		c0.052,0.284,0.077,0.555,0.077,0.809c0,1.092-0.43,1.998-1.103,2.674c-0.657,0.661-1.55,1.099-2.493,1.272
		c-0.312,0.058-0.625,0.087-0.935,0.087l-0.001-0.002h-0.077h-0.004c-1.197-0.015-2.316-0.359-3.139-1.076V39.38
		c-0.836-0.728-1.364-1.817-1.364-3.311l0.002-0.001l0.001-0.075V35.99c0.015-1.249,0.603-2.579,1.306-4.17
		c0.944-2.14,2.111-4.781,2.282-8.209L44.181,23.62L44.181,23.62z M46.441,33.206c-0.968-1.444-2.16-3.225-2.782-6.032
		c-0.482,1.955-1.209,3.597-1.838,5.024c-0.662,1.499-1.216,2.751-1.229,3.803v0.069h0.001c0,1.195,0.402,2.051,1.039,2.604h0.002
		c0.648,0.564,1.553,0.836,2.534,0.848l0.071,0.002v-0.002c0.263,0,0.52-0.024,0.767-0.069c0.762-0.141,1.478-0.489,1.997-1.012
		c0.505-0.508,0.828-1.19,0.828-2.015c0-0.208-0.02-0.424-0.06-0.641C47.622,34.966,47.084,34.165,46.441,33.206z"/>
</g>
</svg>
