<?xml version="1.0" encoding="utf-8"?>
<!-- Generator: Adobe Illustrator 15.1.0, SVG Export Plug-In . SVG Version: 6.00 Build 0)  -->
<!DOCTYPE svg PUBLIC "-//W3C//DTD SVG 1.1//EN" "http://www.w3.org/Graphics/SVG/1.1/DTD/svg11.dtd">
<svg version="1.1" id="Layer_1" xmlns="http://www.w3.org/2000/svg" xmlns:xlink="http://www.w3.org/1999/xlink" x="0px" y="0px"
	 width="72px" height="72px" viewBox="0 0 72 72" enable-background="new 0 0 72 72" xml:space="preserve">
<g>
	<path fill="#57652D" d="M25.92,33.603h21.886c0.401,0,0.769,0.17,1.033,0.447c0.246,0.259,0.403,0.614,0.403,1.002v3.258
		c0,0.388-0.155,0.743-0.403,1.002c-0.265,0.277-0.632,0.447-1.033,0.447H25.92c-0.403,0-0.77-0.17-1.034-0.447
		c-0.247-0.259-0.403-0.614-0.403-1.002v-3.258c0-0.389,0.157-0.744,0.403-1.002C25.151,33.773,25.518,33.603,25.92,33.603z"/>
	<linearGradient id="SVGID_1_" gradientUnits="userSpaceOnUse" x1="36.8633" y1="34.729" x2="36.8633" y2="38.6342">
		<stop  offset="0" style="stop-color:#A3AF5D"/>
		<stop  offset="1" style="stop-color:#84904E"/>
	</linearGradient>
	<path fill-rule="evenodd" clip-rule="evenodd" fill="url(#SVGID_1_)" d="M25.92,34.729h21.886c0.171,0,0.311,0.145,0.311,0.324
		v3.258c0,0.178-0.14,0.323-0.311,0.323H25.92c-0.171,0-0.311-0.146-0.311-0.323v-3.258C25.609,34.874,25.75,34.729,25.92,34.729z"
		/>
	<path fill="#57652D" d="M34.715,42.607h4.296c0.403,0,0.766,0.172,1.028,0.444l0.005,0.004c0.248,0.259,0.403,0.613,0.403,1.003
		v3.256c0,0.384-0.155,0.741-0.403,1.002l0,0c-0.264,0.276-0.631,0.448-1.033,0.448h-4.296c-0.402,0-0.766-0.171-1.028-0.443
		l-0.005-0.004c-0.248-0.26-0.403-0.615-0.403-1.003v-3.256c0-0.387,0.156-0.742,0.404-1.002l-0.001-0.001
		C33.944,42.781,34.311,42.607,34.715,42.607z"/>
	<linearGradient id="SVGID_2_" gradientUnits="userSpaceOnUse" x1="36.8633" y1="52.5283" x2="36.8633" y2="56.433">
		<stop  offset="0" style="stop-color:#A3AF5D"/>
		<stop  offset="1" style="stop-color:#84904E"/>
	</linearGradient>
	<path fill-rule="evenodd" clip-rule="evenodd" fill="url(#SVGID_2_)" d="M34.715,43.734h4.296c0.172,0,0.311,0.146,0.311,0.324
		v3.256c0,0.178-0.141,0.324-0.311,0.324h-4.296c-0.169,0-0.311-0.146-0.311-0.324v-3.256C34.404,43.88,34.544,43.734,34.715,43.734
		z"/>
	<path fill="#57652D" d="M34.715,24.598h4.296c0.403,0,0.766,0.171,1.028,0.443l0.005,0.004c0.248,0.259,0.403,0.614,0.403,1.002
		v3.257c0,0.383-0.155,0.741-0.403,1.001v0c-0.264,0.276-0.631,0.448-1.033,0.448h-4.296c-0.402,0-0.766-0.172-1.028-0.443
		l-0.005-0.004c-0.248-0.26-0.403-0.616-0.403-1.003v-3.257c0-0.386,0.156-0.742,0.404-1.002l-0.001,0
		C33.944,24.771,34.311,24.598,34.715,24.598z"/>
	<linearGradient id="SVGID_3_" gradientUnits="userSpaceOnUse" x1="36.8633" y1="34.5186" x2="36.8633" y2="38.4237">
		<stop  offset="0" style="stop-color:#A3AF5D"/>
		<stop  offset="1" style="stop-color:#84904E"/>
	</linearGradient>
	<path fill-rule="evenodd" clip-rule="evenodd" fill="url(#SVGID_3_)" d="M34.715,25.724h4.296c0.172,0,0.311,0.147,0.311,0.324
		v3.257c0,0.177-0.141,0.324-0.311,0.324h-4.296c-0.169,0-0.311-0.146-0.311-0.324v-3.257
		C34.404,25.869,34.544,25.724,34.715,25.724z"/>
</g>
</svg>
