<?xml version="1.0" encoding="utf-8"?>
<!-- Generator: Adobe Illustrator 15.1.0, SVG Export Plug-In . SVG Version: 6.00 Build 0)  -->
<!DOCTYPE svg PUBLIC "-//W3C//DTD SVG 1.1//EN" "http://www.w3.org/Graphics/SVG/1.1/DTD/svg11.dtd">
<svg version="1.1" id="Layer_1" xmlns="http://www.w3.org/2000/svg" xmlns:xlink="http://www.w3.org/1999/xlink" x="0px" y="0px"
	 width="72px" height="72px" viewBox="0 0 72 72" enable-background="new 0 0 72 72" xml:space="preserve">
<g>
	<path fill-rule="evenodd" clip-rule="evenodd" fill="#E66161" d="M48.43,33.153v10.173H31.493
		c2.776-3.197,4.624-6.931,6.482-10.173H48.43z"/>
	<rect x="39.465" y="37.152" fill="#5D5D5D" width="10.666" height="1.031"/>
	<rect x="47.914" y="23.667" fill="#010101" width="1.031" height="27.03"/>
	<rect x="23.101" y="48.453" fill="#010101" width="27.03" height="1.032"/>
	<path fill-rule="evenodd" clip-rule="evenodd" fill="#E66161" d="M48.43,25.252c0,7.906,0,15.812,0,23.718
		c-8.208,0-16.416,0-24.624,0C38.055,43.025,36.796,24.795,48.43,25.252z"/>
	<path fill="#010101" d="M48.945,25.252V48.97v0.516H48.43H23.806l-0.197-0.992c6.811-2.841,10.024-8.614,12.858-13.705
		c3.079-5.533,5.731-10.295,11.985-10.05l0.494,0.02V25.252L48.945,25.252z M47.914,48.453V25.759
		c-5.275,0.057-7.723,4.451-10.549,9.529c-2.62,4.708-5.558,9.983-11.31,13.165H47.914z"/>
	<path fill-rule="evenodd" clip-rule="evenodd" fill="#A7DCDD" d="M48.43,33.153v10.173H31.493
		c2.776-3.197,4.624-6.931,6.482-10.173H48.43z"/>
	<path fill="#010101" d="M48.945,33.153v10.173v0.516H48.43H31.493h-1.128l0.74-0.853c2.218-2.555,3.848-5.481,5.367-8.209
		c0.376-0.676,0.746-1.34,1.057-1.882l0.149-0.26h0.297H48.43h0.516V33.153L48.945,33.153z M47.914,42.811v-9.141h-9.641
		c-0.324,0.572-0.613,1.088-0.903,1.61c-1.381,2.479-2.85,5.117-4.779,7.531H47.914z"/>
	<rect x="28.544" y="42.811" fill="#5D5D5D" width="21.587" height="1.031"/>
	<rect x="33.257" y="32.638" fill="#5D5D5D" width="16.874" height="1.032"/>
	<polygon fill="#010101" points="25.591,30.909 27.204,28.604 25.678,26.463 24.623,24.983 26.44,24.983 28.224,24.983 
		28.733,24.983 29.012,25.415 29.223,25.744 29.458,25.397 29.74,24.983 30.231,24.983 31.949,24.983 33.774,24.983 32.71,26.467 
		31.225,28.542 32.885,30.905 33.923,32.382 32.119,32.382 30.326,32.382 29.824,32.382 29.545,31.957 29.2,31.431 28.849,31.96 
		28.57,32.382 28.068,32.382 26.356,32.382 24.56,32.382 	"/>
	<polygon fill="#E66161" points="26.356,31.443 28.349,28.598 26.44,25.921 28.224,25.921 29.202,27.438 30.232,25.921 
		31.949,25.921 30.076,28.536 32.119,31.443 30.326,31.443 29.202,29.732 28.068,31.443 	"/>
	<path fill="#010101" d="M26.398,35.141h1.555h0.671l0.216,0.641l0.422,1.254l0.412-1.25l0.213-0.645h0.677h1.513h1.342l-0.463,1.26
		l-1.949,5.314h-0.001l-0.349,0.959l-0.007,0.027c-0.067,0.168-0.142,0.336-0.22,0.494l-0.004,0.003
		c-0.079,0.157-0.16,0.299-0.241,0.42l-0.004,0.007c-0.089,0.13-0.186,0.248-0.287,0.353c-0.108,0.111-0.224,0.21-0.345,0.296
		l-0.008,0.004c-0.126,0.088-0.264,0.166-0.408,0.229l0-0.001c-0.139,0.061-0.286,0.113-0.439,0.154
		c-0.156,0.041-0.318,0.072-0.482,0.092c-0.165,0.02-0.333,0.029-0.504,0.029c-0.161,0-0.333-0.01-0.516-0.029
		c-0.177-0.02-0.345-0.047-0.505-0.081l-0.66-0.142l-0.076-0.672l-0.13-1.146l-0.145-1.274l1.259,0.256
		c0.074,0.015,0.155,0.027,0.237,0.036h0.004c0.059,0.007,0.125,0.01,0.195,0.01c0.041,0,0.018,0.056,0.025,0.053
		c0.041-0.05,0.077-0.106,0.105-0.165v-0.001l-1.979-5.218l-0.481-1.268H26.398L26.398,35.141z M29.533,40.294l-0.534,0.001
		l0.271,0.715L29.533,40.294z"/>
	<path fill="#A7DCDD" d="M26.398,36.079h1.555L29.273,40l1.291-3.921h1.513l-1.949,5.315l-0.35,0.962
		c-0.127,0.321-0.25,0.568-0.365,0.738c-0.117,0.171-0.25,0.308-0.401,0.414c-0.151,0.104-0.335,0.188-0.556,0.246
		s-0.468,0.09-0.748,0.09c-0.28,0-0.555-0.031-0.827-0.09l-0.129-1.145c0.229,0.047,0.435,0.067,0.62,0.067
		c0.339,0,0.591-0.1,0.754-0.298c0.162-0.199,0.288-0.453,0.375-0.762L26.398,36.079z"/>
</g>
</svg>
