<?xml version="1.0" encoding="utf-8"?>
<!-- Generator: Adobe Illustrator 15.1.0, SVG Export Plug-In . SVG Version: 6.00 Build 0)  -->
<!DOCTYPE svg PUBLIC "-//W3C//DTD SVG 1.1//EN" "http://www.w3.org/Graphics/SVG/1.1/DTD/svg11.dtd">
<svg version="1.1" id="Layer_1" xmlns="http://www.w3.org/2000/svg" xmlns:xlink="http://www.w3.org/1999/xlink" x="0px" y="0px"
	 width="72px" height="72px" viewBox="0 0 72 72" enable-background="new 0 0 72 72" xml:space="preserve">
<g>
	<g>
		<linearGradient id="SVGID_1_" gradientUnits="userSpaceOnUse" x1="33.4883" y1="32.5171" x2="29.8765" y2="24.4048">
			<stop  offset="0" style="stop-color:#ACCCD4"/>
			<stop  offset="1" style="stop-color:#E5F5FD"/>
		</linearGradient>
		<path fill-rule="evenodd" clip-rule="evenodd" fill="url(#SVGID_1_)" d="M32.35,24.213c-1.511,0-2.76,1.118-2.968,2.571
			c-0.291-0.1-0.603-0.154-0.927-0.154c-1.551,0-2.813,1.236-2.855,2.777c-0.385,0.309-0.632,0.782-0.632,1.315
			c0,0.93,0.754,1.684,1.684,1.684c0.308,0,0.597-0.083,0.845-0.227c0.299,0.106,0.622,0.165,0.958,0.165c2.857,0,4.877,0,8.219,0
			c1.657,0,3-1.343,3-3c0-1.656-1.343-2.999-3-2.999c-0.494,0-0.961,0.12-1.372,0.332C35.05,25.276,33.824,24.213,32.35,24.213z"/>
		<path fill-rule="evenodd" clip-rule="evenodd" fill="#E5F5FC" d="M32.35,24.213c-0.207,0-0.408,0.021-0.603,0.061
			c-1.044,0.717-1.739,1.99-1.739,3.443c0,0.419,0.092,1.293,0.565,1.79c-0.003-0.067-0.004-0.134-0.004-0.202
			c0-2.24,1.652-4.055,3.688-4.055c0.128,0,0.253,0.007,0.378,0.021C34.086,24.624,33.266,24.213,32.35,24.213z"/>
		<path fill-rule="evenodd" clip-rule="evenodd" fill="#E5F5FC" d="M33.243,32.345h0.211c-0.003-0.069-0.005-0.138-0.005-0.207
			c0-2.298,1.863-4.161,4.16-4.161c0.696,0,1.353,0.171,1.93,0.474c-0.367-1.176-1.437-2.041-2.719-2.102
			c-2.225,0.083-4.002,1.913-4.002,4.158C32.816,31.167,32.97,31.791,33.243,32.345z"/>
		<path fill-rule="evenodd" clip-rule="evenodd" fill="#E5F5FC" d="M27.003,30.855c0-1.189,1.322-1.991,2.303-1.859
			c0.983,0.132,0.888,0.243,1.267,0.512c-0.241-0.877-0.943-1.593-1.785-1.75C26.215,27.263,26.225,30.059,27.003,30.855z"/>
		<path fill="#87A7AF" d="M32.35,23.807c-0.85,0-1.63,0.313-2.227,0.831c-0.494,0.429-0.866,0.998-1.049,1.646l-0.083-0.015
			c-0.178-0.029-0.358-0.045-0.536-0.045c-0.882,0-1.686,0.353-2.274,0.925c-0.547,0.533-0.91,1.258-0.977,2.067
			c-0.178,0.171-0.327,0.376-0.437,0.604c-0.132,0.275-0.206,0.582-0.206,0.903c0,0.577,0.234,1.101,0.611,1.479h0.002
			c0.378,0.377,0.902,0.612,1.477,0.612c0.187,0,0.369-0.024,0.543-0.071c0.116-0.031,0.23-0.072,0.338-0.123
			c0.119,0.035,0.242,0.063,0.366,0.085c0.183,0.031,0.369,0.048,0.556,0.048h8.219c0.941,0,1.793-0.382,2.409-0.998
			c0.616-0.616,0.997-1.468,0.997-2.409c0-0.941-0.382-1.792-0.997-2.408c-0.616-0.616-1.468-0.997-2.409-0.997
			c-0.271,0-0.542,0.034-0.802,0.097l0,0c-0.101,0.024-0.2,0.053-0.296,0.085c-0.203-0.602-0.568-1.127-1.044-1.524
			C33.941,24.104,33.178,23.807,32.35,23.807L32.35,23.807z M30.653,25.251c0.454-0.393,1.047-0.631,1.697-0.631
			c0.632,0,1.212,0.226,1.662,0.601c0.458,0.383,0.782,0.92,0.891,1.529L35,27.291l0.488-0.252c0.182-0.093,0.375-0.167,0.573-0.214
			h0.002c0.191-0.046,0.397-0.071,0.611-0.071c0.716,0,1.365,0.291,1.834,0.76c0.469,0.469,0.759,1.117,0.759,1.832
			c0,0.717-0.29,1.364-0.759,1.833c-0.469,0.469-1.118,0.759-1.834,0.759h-8.219c-0.146,0-0.286-0.012-0.419-0.035
			c-0.136-0.023-0.272-0.059-0.402-0.105l-0.177-0.063l-0.162,0.094c-0.095,0.055-0.2,0.098-0.309,0.127
			C26.881,31.985,26.769,32,26.652,32c-0.353,0-0.672-0.143-0.904-0.374l0.001-0.001c-0.23-0.23-0.374-0.55-0.374-0.903
			c0-0.201,0.045-0.389,0.124-0.554c0.083-0.172,0.206-0.325,0.355-0.445L26,29.607l0.005-0.189c0.019-0.661,0.3-1.258,0.742-1.688
			c0.439-0.428,1.042-0.692,1.708-0.692c0.143,0,0.279,0.012,0.406,0.033c0.129,0.021,0.259,0.055,0.389,0.1l0.464,0.159l0.07-0.487
			C29.874,26.209,30.193,25.649,30.653,25.251z"/>
	</g>
	<g>
		<linearGradient id="SVGID_2_" gradientUnits="userSpaceOnUse" x1="37.1152" y1="38.2803" x2="33.5038" y2="30.1689">
			<stop  offset="0" style="stop-color:#ACCCD4"/>
			<stop  offset="1" style="stop-color:#E5F5FD"/>
		</linearGradient>
		<path fill-rule="evenodd" clip-rule="evenodd" fill="url(#SVGID_2_)" d="M36.072,30.194c-1.511,0-2.761,1.118-2.968,2.571
			c-0.29-0.099-0.602-0.153-0.926-0.153c-1.551,0-2.813,1.236-2.855,2.776c-0.384,0.309-0.631,0.783-0.631,1.315
			c0,0.93,0.753,1.684,1.684,1.684c0.308,0,0.596-0.082,0.845-0.227c0.3,0.106,0.622,0.166,0.958,0.166c2.857,0,4.877,0,8.219,0
			c1.656,0,2.999-1.343,2.999-3c0-1.656-1.343-2.998-2.999-2.998c-0.494,0-0.961,0.12-1.372,0.331
			C38.773,31.257,37.547,30.194,36.072,30.194z"/>
		<path fill-rule="evenodd" clip-rule="evenodd" fill="#E5F5FC" d="M36.072,30.194c-0.207,0-0.408,0.02-0.603,0.061
			c-1.044,0.717-1.738,1.991-1.738,3.443c0,0.42,0.092,1.294,0.564,1.791c-0.003-0.067-0.003-0.134-0.003-0.202
			c0-2.24,1.651-4.056,3.688-4.056c0.127,0,0.254,0.007,0.379,0.021C37.81,30.604,36.989,30.194,36.072,30.194z"/>
		<path fill-rule="evenodd" clip-rule="evenodd" fill="#E5F5FC" d="M36.965,38.326h0.21c-0.003-0.069-0.005-0.138-0.005-0.207
			c0-2.298,1.863-4.161,4.161-4.161c0.695,0,1.352,0.171,1.928,0.474c-0.365-1.175-1.436-2.04-2.719-2.101
			c-2.224,0.083-4.002,1.912-4.002,4.157C36.539,37.148,36.692,37.771,36.965,38.326z"/>
		<path fill-rule="evenodd" clip-rule="evenodd" fill="#E5F5FC" d="M30.727,36.835c0-1.189,1.321-1.991,2.303-1.859
			c0.982,0.132,0.888,0.242,1.266,0.511c-0.24-0.877-0.943-1.593-1.784-1.75C29.939,33.244,29.948,36.039,30.727,36.835z"/>
		<path fill="#87A7AF" d="M36.072,29.787c-0.85,0-1.629,0.313-2.227,0.831c-0.495,0.429-0.866,0.998-1.05,1.646l-0.082-0.014
			c-0.178-0.03-0.357-0.045-0.536-0.045c-0.883,0-1.686,0.353-2.274,0.925c-0.549,0.533-0.91,1.258-0.977,2.067
			c-0.178,0.172-0.327,0.376-0.437,0.604c-0.131,0.275-0.207,0.582-0.207,0.903c0,0.576,0.234,1.101,0.613,1.479h0.001
			c0.378,0.377,0.901,0.612,1.477,0.612c0.186,0,0.368-0.024,0.542-0.071c0.117-0.031,0.231-0.072,0.339-0.123
			c0.119,0.035,0.241,0.063,0.367,0.084c0.182,0.031,0.369,0.049,0.555,0.049h8.219c0.941,0,1.793-0.382,2.408-0.998
			c0.617-0.615,0.998-1.468,0.998-2.409c0-0.94-0.381-1.792-0.998-2.408c-0.615-0.617-1.467-0.998-2.408-0.998
			c-0.271,0-0.541,0.034-0.803,0.097v0c-0.1,0.024-0.199,0.053-0.295,0.085c-0.203-0.602-0.568-1.127-1.044-1.524
			C37.664,30.085,36.901,29.787,36.072,29.787L36.072,29.787z M34.375,31.232c0.454-0.393,1.048-0.631,1.697-0.631
			c0.632,0,1.213,0.226,1.66,0.601c0.459,0.382,0.783,0.919,0.894,1.529l0.097,0.541l0.488-0.251
			c0.182-0.094,0.375-0.167,0.572-0.215h0.002c0.191-0.046,0.396-0.072,0.611-0.072c0.717,0,1.365,0.292,1.834,0.76
			c0.469,0.468,0.759,1.117,0.759,1.832c0,0.717-0.29,1.365-0.759,1.833c-0.469,0.468-1.117,0.759-1.834,0.759h-8.219
			c-0.146,0-0.286-0.012-0.418-0.035c-0.137-0.021-0.273-0.059-0.403-0.104l-0.177-0.063l-0.163,0.095
			c-0.095,0.055-0.199,0.099-0.309,0.128c-0.104,0.027-0.216,0.043-0.333,0.043c-0.353,0-0.673-0.144-0.904-0.373l0.001-0.002
			c-0.23-0.23-0.374-0.551-0.374-0.902c0-0.201,0.044-0.389,0.123-0.554c0.083-0.173,0.205-0.325,0.356-0.445l0.146-0.117
			l0.004-0.188c0.018-0.661,0.3-1.259,0.742-1.688c0.44-0.429,1.043-0.692,1.708-0.692c0.143,0,0.279,0.011,0.407,0.032
			c0.128,0.021,0.259,0.055,0.388,0.099l0.464,0.16l0.07-0.487C33.597,32.189,33.917,31.63,34.375,31.232z"/>
	</g>
	<rect x="25.608" y="39.539" fill-rule="evenodd" clip-rule="evenodd" fill="#989898" width="23.71" height="9.946"/>
	<linearGradient id="SVGID_3_" gradientUnits="userSpaceOnUse" x1="37.4277" y1="49.3965" x2="37.4277" y2="41.3917">
		<stop  offset="0" style="stop-color:#955D5D"/>
		<stop  offset="1" style="stop-color:#BE9797"/>
	</linearGradient>
	<rect x="26.734" y="40.524" fill-rule="evenodd" clip-rule="evenodd" fill="url(#SVGID_3_)" width="21.387" height="8.961"/>
	<rect x="38.025" y="42.695" fill-rule="evenodd" clip-rule="evenodd" fill="#C09B9B" width="7.774" height="6.79"/>
	<rect x="26.734" y="40.524" fill-rule="evenodd" clip-rule="evenodd" fill="#976464" width="21.387" height="1.044"/>
	<rect x="38.025" y="42.695" fill-rule="evenodd" clip-rule="evenodd" fill="#976464" width="7.774" height="1.265"/>
	<linearGradient id="SVGID_4_" gradientUnits="userSpaceOnUse" x1="42.3398" y1="49.4727" x2="41.6095" y2="45.3308">
		<stop  offset="0" style="stop-color:#ACCCD4"/>
		<stop  offset="1" style="stop-color:#E5F5FD"/>
	</linearGradient>
	<rect x="40.242" y="45.017" fill-rule="evenodd" clip-rule="evenodd" fill="url(#SVGID_4_)" width="3.412" height="4.469"/>
	<linearGradient id="SVGID_5_" gradientUnits="userSpaceOnUse" x1="29.2793" y1="44.042" x2="28.729" y2="41.6584">
		<stop  offset="0" style="stop-color:#ACCCD4"/>
		<stop  offset="1" style="stop-color:#E5F5FD"/>
	</linearGradient>
	<rect x="27.823" y="41.569" fill-rule="evenodd" clip-rule="evenodd" fill="url(#SVGID_5_)" width="2.322" height="2.391"/>
	<linearGradient id="SVGID_6_" gradientUnits="userSpaceOnUse" x1="32.6563" y1="43.8867" x2="32.1059" y2="41.5031">
		<stop  offset="0" style="stop-color:#ACCCD4"/>
		<stop  offset="1" style="stop-color:#E5F5FD"/>
	</linearGradient>
	<rect x="31.235" y="41.569" fill-rule="evenodd" clip-rule="evenodd" fill="url(#SVGID_6_)" width="2.322" height="2.391"/>
	<linearGradient id="SVGID_7_" gradientUnits="userSpaceOnUse" x1="36.104" y1="44.041" x2="35.5539" y2="41.6582">
		<stop  offset="0" style="stop-color:#ACCCD4"/>
		<stop  offset="1" style="stop-color:#E5F5FD"/>
	</linearGradient>
	<rect x="34.648" y="41.569" fill-rule="evenodd" clip-rule="evenodd" fill="url(#SVGID_7_)" width="2.322" height="2.391"/>
	<linearGradient id="SVGID_8_" gradientUnits="userSpaceOnUse" x1="36.0728" y1="47.7715" x2="35.5226" y2="45.3887">
		<stop  offset="0" style="stop-color:#ACCCD4"/>
		<stop  offset="1" style="stop-color:#E5F5FD"/>
	</linearGradient>
	<rect x="34.648" y="45.435" fill-rule="evenodd" clip-rule="evenodd" fill="url(#SVGID_8_)" width="2.322" height="2.391"/>
	<linearGradient id="SVGID_9_" gradientUnits="userSpaceOnUse" x1="32.6919" y1="47.9277" x2="32.1418" y2="45.5449">
		<stop  offset="0" style="stop-color:#ACCCD4"/>
		<stop  offset="1" style="stop-color:#E5F5FD"/>
	</linearGradient>
	<rect x="31.235" y="45.452" fill-rule="evenodd" clip-rule="evenodd" fill="url(#SVGID_9_)" width="2.322" height="2.391"/>
	<linearGradient id="SVGID_10_" gradientUnits="userSpaceOnUse" x1="29.2705" y1="47.8535" x2="28.7202" y2="45.4699">
		<stop  offset="0" style="stop-color:#ACCCD4"/>
		<stop  offset="1" style="stop-color:#E5F5FD"/>
	</linearGradient>
	<rect x="27.823" y="45.417" fill-rule="evenodd" clip-rule="evenodd" fill="url(#SVGID_10_)" width="2.322" height="2.391"/>
	<radialGradient id="SVGID_11_" cx="45.3506" cy="38.1475" r="2.7173" gradientUnits="userSpaceOnUse">
		<stop  offset="0" style="stop-color:#FFFFFF"/>
		<stop  offset="1" style="stop-color:#0FA8E1"/>
	</radialGradient>
	<path fill-rule="evenodd" clip-rule="evenodd" fill="url(#SVGID_11_)" d="M45.377,42.263l-1.425-1.995l-1.425-1.996h1.852
		c-0.199-3.026-2.716-5.418-5.791-5.418c-0.703,0-1.378,0.125-2.002,0.354c1.008-0.71,2.237-1.128,3.564-1.128
		c3.419,0,6.192,2.772,6.192,6.192h1.885l-1.425,1.996L45.377,42.263z"/>
	<path fill="#3982A9" d="M44.995,42.534l-1.425-1.995l-1.424-1.996l-0.528-0.74h0.909h1.328c-0.191-1.194-0.779-2.255-1.623-3.044
		c-0.951-0.891-2.234-1.437-3.645-1.437c-0.322,0-0.637,0.028-0.938,0.082c-0.312,0.055-0.614,0.138-0.902,0.243l-0.431-0.822
		c0.552-0.389,1.167-0.698,1.822-0.905c0.635-0.201,1.311-0.309,2.011-0.309c1.839,0,3.505,0.746,4.71,1.951
		c1.102,1.102,1.82,2.588,1.935,4.241h1.433h0.91l-0.529,0.74l-1.424,1.996l-1.426,1.995l-0.381,0.534L44.995,42.534L44.995,42.534z
		 M44.334,39.996l1.043,1.461l1.043-1.461l0.896-1.256h-0.975h-0.47v-0.469c0-1.58-0.641-3.011-1.677-4.046
		c-1.035-1.036-2.467-1.677-4.046-1.677l-0.126,0.001c1.083,0.254,2.06,0.791,2.848,1.527c1.128,1.056,1.867,2.525,1.976,4.165
		l0.032,0.498h-0.5h-0.941L44.334,39.996z"/>
</g>
</svg>
