<?xml version="1.0" encoding="utf-8"?>
<!-- Generator: Adobe Illustrator 15.1.0, SVG Export Plug-In . SVG Version: 6.00 Build 0)  -->
<!DOCTYPE svg PUBLIC "-//W3C//DTD SVG 1.1//EN" "http://www.w3.org/Graphics/SVG/1.1/DTD/svg11.dtd">
<svg version="1.1" id="Layer_1" xmlns="http://www.w3.org/2000/svg" xmlns:xlink="http://www.w3.org/1999/xlink" x="0px" y="0px"
	 width="72px" height="72px" viewBox="0 0 72 72" enable-background="new 0 0 72 72" xml:space="preserve">
<g>
	<g>
		<g>
			<linearGradient id="SVGID_1_" gradientUnits="userSpaceOnUse" x1="36.5259" y1="41.2578" x2="40.8759" y2="31.9291">
				<stop  offset="0" style="stop-color:#ACCCD4"/>
				<stop  offset="1" style="stop-color:#E5F5FD"/>
			</linearGradient>
			<path fill-rule="evenodd" clip-rule="evenodd" fill="url(#SVGID_1_)" d="M37.801,31.908c1.742,0,3.184,1.289,3.423,2.964
				c0.334-0.115,0.694-0.177,1.067-0.177c1.789,0,3.243,1.425,3.293,3.201c0.443,0.355,0.728,0.902,0.728,1.516
				c0,1.073-0.869,1.942-1.941,1.942c-0.355,0-0.688-0.096-0.974-0.262c-0.346,0.123-0.718,0.19-1.105,0.19
				c-3.293,0-5.623,0-9.475,0c-1.91,0-3.458-1.549-3.458-3.459c0-1.908,1.548-3.457,3.458-3.457c0.57,0,1.108,0.138,1.583,0.383
				C34.688,33.134,36.101,31.908,37.801,31.908z"/>
			<path fill-rule="evenodd" clip-rule="evenodd" fill="#E5F5FC" d="M37.801,31.908c0.238,0,0.471,0.024,0.695,0.07
				c1.204,0.826,2.004,2.294,2.004,3.969c0,0.484-0.105,1.492-0.65,2.064c0.003-0.077,0.005-0.154,0.005-0.232
				c0-2.583-1.904-4.675-4.252-4.675c-0.147,0-0.293,0.008-0.437,0.024C35.799,32.382,36.745,31.908,37.801,31.908z"/>
			<path fill-rule="evenodd" clip-rule="evenodd" fill="#E5F5FC" d="M36.772,41.283h-0.243c0.004-0.078,0.006-0.158,0.006-0.238
				c0-2.648-2.148-4.797-4.796-4.797c-0.803,0-1.56,0.197-2.224,0.546c0.422-1.355,1.656-2.352,3.134-2.422
				c2.564,0.096,4.615,2.206,4.615,4.793C37.264,39.926,37.087,40.645,36.772,41.283z"/>
			<path fill-rule="evenodd" clip-rule="evenodd" fill="#E5F5FC" d="M43.965,39.566c0-1.372-1.523-2.297-2.655-2.145
				s-1.024,0.279-1.46,0.59c0.277-1.012,1.087-1.837,2.057-2.018C44.873,35.424,44.862,38.647,43.965,39.566z"/>
			<path fill="#87A7AF" d="M37.801,31.439c0.98,0,1.879,0.361,2.568,0.958c0.57,0.494,0.998,1.15,1.21,1.897l0.095-0.016
				c0.205-0.034,0.412-0.053,0.617-0.053c1.018,0,1.944,0.407,2.622,1.066c0.632,0.614,1.049,1.451,1.126,2.383
				c0.206,0.198,0.378,0.435,0.503,0.696c0.152,0.317,0.238,0.671,0.238,1.041c0,0.666-0.27,1.27-0.705,1.705h-0.003
				c-0.436,0.436-1.038,0.706-1.702,0.706c-0.215,0-0.425-0.028-0.626-0.083c-0.134-0.035-0.266-0.083-0.39-0.141
				c-0.138,0.039-0.279,0.072-0.423,0.097c-0.21,0.036-0.425,0.056-0.641,0.056h-9.475c-1.085,0-2.067-0.439-2.777-1.149
				c-0.711-0.711-1.15-1.692-1.15-2.778c0-1.083,0.44-2.066,1.15-2.776c0.71-0.71,1.692-1.149,2.777-1.149
				c0.313,0,0.624,0.039,0.925,0.112l0,0c0.116,0.028,0.23,0.062,0.341,0.099c0.234-0.693,0.655-1.3,1.204-1.758
				C35.967,31.782,36.846,31.439,37.801,31.439L37.801,31.439z M39.758,33.105c-0.523-0.453-1.208-0.728-1.957-0.728
				c-0.729,0-1.397,0.26-1.914,0.692c-0.528,0.441-0.902,1.06-1.029,1.763l-0.111,0.624l-0.563-0.29
				c-0.209-0.108-0.433-0.193-0.662-0.248h-0.002c-0.22-0.053-0.458-0.082-0.705-0.082c-0.825,0-1.573,0.335-2.113,0.875
				c-0.541,0.54-0.875,1.288-0.875,2.112c0,0.826,0.335,1.574,0.875,2.114s1.288,0.876,2.113,0.876h9.475
				c0.168,0,0.33-0.015,0.483-0.041c0.157-0.026,0.314-0.068,0.464-0.121l0.204-0.072l0.188,0.107
				c0.109,0.064,0.229,0.115,0.355,0.148c0.121,0.031,0.25,0.049,0.385,0.049c0.406,0,0.775-0.164,1.042-0.43l-0.001-0.002
				c0.267-0.266,0.431-0.635,0.431-1.041c0-0.23-0.051-0.448-0.143-0.638c-0.095-0.198-0.236-0.375-0.409-0.513l-0.168-0.135
				l-0.006-0.218c-0.021-0.763-0.346-1.451-0.854-1.947c-0.508-0.493-1.203-0.798-1.971-0.798c-0.165,0-0.321,0.013-0.468,0.038
				c-0.148,0.024-0.299,0.063-0.448,0.114L40.84,35.5l-0.08-0.562C40.655,34.208,40.287,33.564,39.758,33.105z"/>
		</g>
		<g>
			<linearGradient id="SVGID_2_" gradientUnits="userSpaceOnUse" x1="32.2334" y1="48.1553" x2="36.584" y2="38.8254">
				<stop  offset="0" style="stop-color:#ACCCD4"/>
				<stop  offset="1" style="stop-color:#E5F5FD"/>
			</linearGradient>
			<path fill-rule="evenodd" clip-rule="evenodd" fill="url(#SVGID_2_)" d="M33.509,38.803c1.742,0,3.183,1.289,3.422,2.964
				c0.334-0.114,0.694-0.177,1.069-0.177c1.788,0,3.242,1.424,3.291,3.201c0.444,0.355,0.729,0.902,0.729,1.516
				c0,1.073-0.869,1.942-1.941,1.942c-0.355,0-0.688-0.095-0.974-0.261c-0.346,0.122-0.718,0.189-1.104,0.189
				c-3.294,0-5.623,0-9.476,0c-1.91,0-3.458-1.548-3.458-3.458c0-1.909,1.548-3.457,3.458-3.457c0.57,0,1.108,0.138,1.583,0.382
				C30.396,40.029,31.809,38.803,33.509,38.803z"/>
			<path fill-rule="evenodd" clip-rule="evenodd" fill="#E5F5FC" d="M33.509,38.803c0.238,0,0.47,0.024,0.695,0.07
				c1.204,0.826,2.004,2.295,2.004,3.969c0,0.484-0.106,1.492-0.651,2.064c0.003-0.077,0.005-0.154,0.005-0.232
				c0-2.582-1.904-4.676-4.252-4.676c-0.148,0-0.293,0.01-0.438,0.025C31.507,39.276,32.453,38.803,33.509,38.803z"/>
			<path fill-rule="evenodd" clip-rule="evenodd" fill="#E5F5FC" d="M32.48,48.178h-0.243c0.004-0.079,0.006-0.158,0.006-0.238
				c0-2.648-2.148-4.797-4.796-4.797c-0.803,0-1.56,0.197-2.224,0.547c0.422-1.355,1.656-2.353,3.135-2.423
				c2.564,0.096,4.614,2.205,4.614,4.793C32.972,46.819,32.795,47.539,32.48,48.178z"/>
			<path fill-rule="evenodd" clip-rule="evenodd" fill="#E5F5FC" d="M39.673,46.46c0-1.37-1.522-2.296-2.655-2.144
				c-1.132,0.152-1.024,0.279-1.46,0.59c0.277-1.012,1.087-1.837,2.058-2.018C40.581,42.318,40.57,45.542,39.673,46.46z"/>
			<path fill="#87A7AF" d="M33.509,38.334c0.98,0,1.879,0.361,2.568,0.959c0.57,0.493,0.998,1.149,1.21,1.896l0.094-0.017
				c0.206-0.034,0.413-0.052,0.619-0.052c1.018,0,1.943,0.406,2.621,1.065c0.632,0.614,1.05,1.45,1.126,2.384
				c0.206,0.197,0.378,0.434,0.503,0.695c0.152,0.317,0.238,0.672,0.238,1.041c0,0.666-0.27,1.27-0.705,1.706H41.78
				c-0.436,0.435-1.038,0.705-1.702,0.705c-0.215,0-0.425-0.028-0.626-0.082c-0.134-0.036-0.266-0.084-0.39-0.143
				c-0.138,0.041-0.278,0.074-0.423,0.099c-0.21,0.035-0.425,0.055-0.64,0.055h-9.476c-1.085,0-2.067-0.439-2.777-1.149
				c-0.71-0.711-1.149-1.692-1.149-2.777s0.439-2.066,1.149-2.776c0.711-0.711,1.692-1.15,2.777-1.15
				c0.313,0,0.624,0.039,0.925,0.112v0.001c0.116,0.027,0.229,0.061,0.341,0.098c0.234-0.693,0.655-1.299,1.203-1.758
				C31.675,38.677,32.554,38.334,33.509,38.334L33.509,38.334z M35.465,40c-0.522-0.453-1.207-0.729-1.956-0.729
				c-0.729,0-1.397,0.262-1.915,0.693c-0.528,0.44-0.902,1.061-1.028,1.763l-0.112,0.624l-0.563-0.291
				c-0.209-0.107-0.432-0.192-0.661-0.247h-0.002c-0.221-0.054-0.458-0.081-0.705-0.081c-0.825,0-1.573,0.334-2.113,0.875
				c-0.541,0.54-0.876,1.288-0.876,2.112c0,0.825,0.335,1.573,0.876,2.113c0.54,0.54,1.288,0.876,2.113,0.876H38
				c0.167,0,0.329-0.015,0.482-0.041c0.157-0.026,0.314-0.068,0.464-0.121l0.204-0.072l0.188,0.108
				c0.109,0.063,0.229,0.114,0.355,0.147c0.121,0.032,0.25,0.05,0.385,0.05c0.407,0,0.775-0.166,1.042-0.431l-0.001-0.001
				c0.267-0.267,0.432-0.635,0.432-1.042c0-0.23-0.053-0.447-0.143-0.638c-0.096-0.198-0.237-0.374-0.41-0.513l-0.168-0.135
				l-0.006-0.217c-0.021-0.764-0.346-1.451-0.855-1.948c-0.507-0.493-1.202-0.798-1.969-0.798c-0.166,0-0.322,0.014-0.469,0.037
				c-0.148,0.025-0.299,0.064-0.447,0.115l-0.536,0.184l-0.081-0.562C36.363,41.104,35.995,40.459,35.465,40z"/>
		</g>
	</g>
	<path fill="#FFFFFF" d="M39.49,24.919h1.642h0.704v0.704c0,2.264-0.959,4.457-1.916,6.647c-0.896,2.053-1.795,4.107-1.795,6.088
		v0.703h-0.703h-1.641h-0.704v-0.703c0-2.264,0.958-4.457,1.916-6.648c0.896-2.052,1.794-4.105,1.794-6.086v-0.704H39.49z"/>
	<linearGradient id="SVGID_3_" gradientUnits="userSpaceOnUse" x1="38.5264" y1="29.957" x2="38.2343" y2="38.338">
		<stop  offset="0" style="stop-color:#F47822"/>
		<stop  offset="0.37" style="stop-color:#F99E1F"/>
		<stop  offset="1" style="stop-color:#FFCA0B"/>
	</linearGradient>
	<path fill-rule="evenodd" clip-rule="evenodd" fill="url(#SVGID_3_)" d="M39.49,25.623c0.547,0,1.095,0,1.642,0
		c0,4.245-3.71,8.49-3.71,12.735c-0.547,0-1.095,0-1.641,0C35.781,34.112,39.49,29.868,39.49,25.623z"/>
	<path fill="#FFFFFF" d="M43.021,24.919h1.641h0.703v0.704c0,2.264-0.958,4.457-1.915,6.647c-0.896,2.053-1.794,4.107-1.794,6.088
		v0.703h-0.704h-1.642h-0.703v-0.703c0-2.264,0.958-4.457,1.915-6.648c0.897-2.052,1.795-4.105,1.795-6.086v-0.704H43.021z"/>
	<linearGradient id="SVGID_4_" gradientUnits="userSpaceOnUse" x1="42.0566" y1="29.9854" x2="41.7638" y2="38.3701">
		<stop  offset="0" style="stop-color:#F47822"/>
		<stop  offset="0.37" style="stop-color:#F99E1F"/>
		<stop  offset="1" style="stop-color:#FFCA0B"/>
	</linearGradient>
	<path fill-rule="evenodd" clip-rule="evenodd" fill="url(#SVGID_4_)" d="M43.021,25.623c0.546,0,1.094,0,1.641,0
		c0,4.245-3.71,8.49-3.71,12.735c-0.547,0-1.095,0-1.642,0C39.311,34.112,43.021,29.868,43.021,25.623z"/>
	<path fill="#FFFFFF" d="M46.551,24.919h1.642h0.703v0.704c0,2.264-0.958,4.457-1.916,6.647c-0.896,2.053-1.794,4.107-1.794,6.088
		v0.703h-0.703h-1.642h-0.704v-0.703c0-2.264,0.959-4.457,1.916-6.648c0.896-2.052,1.794-4.105,1.794-6.086v-0.704H46.551z"/>
	<linearGradient id="SVGID_5_" gradientUnits="userSpaceOnUse" x1="45.583" y1="30.0767" x2="45.2933" y2="38.3716">
		<stop  offset="0" style="stop-color:#F47822"/>
		<stop  offset="0.37" style="stop-color:#F99E1F"/>
		<stop  offset="1" style="stop-color:#FFCA0B"/>
	</linearGradient>
	<path fill-rule="evenodd" clip-rule="evenodd" fill="url(#SVGID_5_)" d="M46.551,25.623c0.547,0,1.095,0,1.642,0
		c0,4.245-3.71,8.49-3.71,12.735c-0.547,0-1.096,0-1.642,0C42.841,34.112,46.551,29.868,46.551,25.623z"/>
</g>
</svg>
