<?xml version="1.0" encoding="utf-8"?>
<!-- Generator: Adobe Illustrator 15.1.0, SVG Export Plug-In . SVG Version: 6.00 Build 0)  -->
<!DOCTYPE svg PUBLIC "-//W3C//DTD SVG 1.1//EN" "http://www.w3.org/Graphics/SVG/1.1/DTD/svg11.dtd">
<svg version="1.1" id="Layer_1" xmlns="http://www.w3.org/2000/svg" xmlns:xlink="http://www.w3.org/1999/xlink" x="0px" y="0px"
	 width="72px" height="72px" viewBox="0 0 72 72" enable-background="new 0 0 72 72" xml:space="preserve">
<g>
	<path fill="#57652D" d="M26.05,30.358h20.239c0.379,0,0.729,0.154,0.984,0.404l0.001,0c0.262,0.254,0.427,0.61,0.427,1.002v2.816
		c0,0.391-0.164,0.748-0.427,1.002h-0.001c-0.256,0.25-0.605,0.404-0.984,0.404H26.05c-0.377,0-0.728-0.153-0.984-0.404h-0.001
		c-0.263-0.255-0.428-0.611-0.428-1.002v-2.816c0-0.393,0.166-0.749,0.428-1.002l0.001,0C25.322,30.511,25.673,30.358,26.05,30.358z
		"/>
	<path fill="#57652D" d="M26.05,37.101h20.239c0.379,0,0.729,0.154,0.984,0.404l0.001-0.001c0.262,0.255,0.427,0.611,0.427,1.003
		v2.816c0,0.392-0.164,0.747-0.427,1.003l-0.001-0.001c-0.256,0.25-0.605,0.404-0.984,0.404H26.05c-0.377,0-0.728-0.153-0.984-0.404
		l-0.001,0.001c-0.263-0.256-0.428-0.611-0.428-1.003v-2.816c0-0.392,0.166-0.748,0.428-1.003l0.001,0.001
		C25.322,37.254,25.673,37.101,26.05,37.101z"/>
	<linearGradient id="SVGID_1_" gradientUnits="userSpaceOnUse" x1="36.1689" y1="29.1641" x2="36.1689" y2="47.0842">
		<stop  offset="0" style="stop-color:#A3AF5D"/>
		<stop  offset="1" style="stop-color:#84904E"/>
	</linearGradient>
	<path fill-rule="evenodd" clip-rule="evenodd" fill="url(#SVGID_1_)" d="M26.05,38.227h20.239c0.157,0,0.286,0.126,0.286,0.28
		v2.816c0,0.155-0.129,0.28-0.286,0.28H26.05c-0.157,0-0.287-0.125-0.287-0.28v-2.816C25.763,38.353,25.893,38.227,26.05,38.227
		L26.05,38.227z M26.05,31.484h20.239c0.157,0,0.286,0.126,0.286,0.28v2.816c0,0.155-0.129,0.28-0.286,0.28H26.05
		c-0.157,0-0.287-0.125-0.287-0.28v-2.816C25.763,31.61,25.893,31.484,26.05,31.484z"/>
</g>
</svg>
