<?xml version="1.0" encoding="utf-8"?>
<!-- Generator: Adobe Illustrator 15.1.0, SVG Export Plug-In . SVG Version: 6.00 Build 0)  -->
<!DOCTYPE svg PUBLIC "-//W3C//DTD SVG 1.1//EN" "http://www.w3.org/Graphics/SVG/1.1/DTD/svg11.dtd">
<svg version="1.1" id="Layer_1" xmlns="http://www.w3.org/2000/svg" xmlns:xlink="http://www.w3.org/1999/xlink" x="0px" y="0px"
	 width="72px" height="72px" viewBox="0 0 72 72" enable-background="new 0 0 72 72" xml:space="preserve">
<g>
	<path fill="#763217" d="M25.803,28.219c-0.119-0.129-0.23-0.245-0.334-0.351c-0.118-0.12-0.235-0.236-0.349-0.346l-0.573-0.552
		l0.327-0.719l0.364-0.805l0.307-0.676l0.74,0.017c5.14,0.116,11.381,1.426,15.969,3.663c4.036,1.967,6.875,4.692,6.875,8.056
		s-2.839,6.089-6.875,8.056c-4.588,2.236-10.829,3.547-15.969,3.663l-0.74,0.017l-0.307-0.677l-0.364-0.805l-0.327-0.718
		l0.573-0.553c0.113-0.109,0.23-0.226,0.349-0.346c0.104-0.105,0.215-0.222,0.334-0.351c1.228-1.315,2.152-2.687,2.765-4.081v-0.004
		c0.605-1.379,0.912-2.789,0.912-4.202c0-1.413-0.307-2.824-0.912-4.202V32.3C27.955,30.906,27.03,29.535,25.803,28.219
		L25.803,28.219z M46.878,36.507c0-1.205-0.604-2.333-1.634-3.363c0.197,0.294,0.373,0.597,0.522,0.901
		c0.407,0.831,0.634,1.688,0.634,2.462c0,0.774-0.226,1.631-0.634,2.462c-0.149,0.305-0.325,0.607-0.522,0.9
		C46.273,38.84,46.878,37.711,46.878,36.507L46.878,36.507z M44.147,36.507c0-0.444-0.141-0.959-0.395-1.477
		c-0.269-0.547-0.663-1.092-1.152-1.567c-1.26-1.218-2.911-2.31-5.202-3.128c-1.87-0.667-4.157-1.153-6.986-1.376
		c0.514,0.811,0.945,1.642,1.289,2.502c0.634,1.586,0.965,3.252,0.965,5.047c0,1.794-0.331,3.46-0.965,5.047
		c-0.344,0.859-0.774,1.69-1.289,2.501c2.83-0.225,5.116-0.709,6.986-1.376c2.291-0.818,3.942-1.909,5.202-3.128
		c0.489-0.475,0.884-1.02,1.152-1.567C44.007,37.465,44.147,36.951,44.147,36.507z"/>
	<path fill="#F47B20" d="M26.625,27.454c-0.229-0.247-0.474-0.495-0.727-0.74l0.364-0.805c9.101,0.206,21.74,4.26,21.74,10.598
		s-12.64,10.392-21.74,10.597l-0.364-0.805c0.253-0.244,0.497-0.492,0.727-0.739c2.635-2.824,3.98-5.928,3.98-9.053
		S29.26,30.278,26.625,27.454L26.625,27.454z M45.274,36.507c0-1.209-0.72-2.715-1.891-3.848c-2.738-2.65-7.125-4.726-15.267-4.941
		c2.214,2.681,3.423,5.482,3.423,8.79s-1.209,6.108-3.423,8.788c8.142-0.215,12.528-2.291,15.267-4.939
		C44.555,39.222,45.274,37.715,45.274,36.507z"/>
</g>
</svg>
