<?xml version="1.0" encoding="utf-8"?>
<!-- Generator: Adobe Illustrator 15.1.0, SVG Export Plug-In . SVG Version: 6.00 Build 0)  -->
<!DOCTYPE svg PUBLIC "-//W3C//DTD SVG 1.1//EN" "http://www.w3.org/Graphics/SVG/1.1/DTD/svg11.dtd">
<svg version="1.1" id="Layer_1" xmlns="http://www.w3.org/2000/svg" xmlns:xlink="http://www.w3.org/1999/xlink" x="0px" y="0px"
	 width="72px" height="72px" viewBox="0 0 72 72" enable-background="new 0 0 72 72" xml:space="preserve">
<g>
	<path fill="#57652D" d="M27.634,47.874l19.825-8.589l0.002,0.004c0.25-0.107,0.469-0.295,0.625-0.516l-0.001-0.002
		c0.14-0.197,0.24-0.439,0.274-0.681l0.002-0.008l0.001-0.008l0.001-0.008l0.001-0.007l0.002-0.023h0.001v-0.004h-0.001l0.004-0.039
		h0.002l0.001-0.006l0.005-0.093v-0.008h-0.001l0.002-0.015v-2.816l-0.002-0.014h0.001v-0.007l-0.005-0.093l-0.001-0.006H48.37
		l-0.004-0.04h0.001v-0.004h-0.001l-0.002-0.023l-0.001-0.006l-0.001-0.008l-0.001-0.007l-0.002-0.008h0.001
		c-0.034-0.24-0.135-0.482-0.275-0.681l0.001-0.001c-0.156-0.22-0.374-0.409-0.625-0.517l-0.002,0.004l-19.825-8.588
		c-0.179-0.078-0.356-0.115-0.524-0.115c-0.255,0-0.5,0.078-0.713,0.225l-0.002-0.002c-0.196,0.134-0.354,0.323-0.455,0.557
		c-0.07,0.166-0.111,0.351-0.111,0.543v2.815c0,0.286,0.091,0.576,0.236,0.814v0.004c0.157,0.255,0.396,0.476,0.682,0.598
		l0.001-0.003l13.787,5.972l-13.787,5.972l-0.001-0.004c-0.284,0.123-0.523,0.343-0.682,0.599v0.005
		c-0.145,0.238-0.236,0.527-0.236,0.813v2.816c0,0.183,0.04,0.369,0.114,0.542l-0.002,0.001c0.096,0.226,0.25,0.412,0.445,0.548
		l0.009,0.009c0.211,0.145,0.455,0.223,0.715,0.223C27.277,47.988,27.455,47.951,27.634,47.874z"/>
	<linearGradient id="SVGID_1_" gradientUnits="userSpaceOnUse" x1="37.1035" y1="29.1689" x2="37.1035" y2="47.6536">
		<stop  offset="0" style="stop-color:#A3AF5D"/>
		<stop  offset="1" style="stop-color:#84904E"/>
	</linearGradient>
	<path fill-rule="evenodd" clip-rule="evenodd" fill="url(#SVGID_1_)" d="M47.017,38.256L27.19,46.845
		c-0.131,0.057-0.236-0.023-0.236-0.179V43.85c0-0.154,0.105-0.326,0.236-0.383l16.163-7.001L27.19,29.463
		c-0.131-0.056-0.236-0.227-0.236-0.383v-2.815c0-0.155,0.105-0.235,0.236-0.179l19.826,8.588c0.114,0.049,0.211,0.19,0.231,0.328
		l0.001,0.004l0.001,0.007v0.002v0.004l0.002,0.008v0.001v0.006v0.007l0.001,0.014v2.816l-0.001,0.015v0.008v0.007l0,0L47.25,37.91
		v0.005v0.002l-0.001,0.007l-0.001,0.004C47.228,38.066,47.132,38.206,47.017,38.256z"/>
</g>
</svg>
