<?xml version="1.0" encoding="utf-8"?>
<!-- Generator: Adobe Illustrator 15.1.0, SVG Export Plug-In . SVG Version: 6.00 Build 0)  -->
<!DOCTYPE svg PUBLIC "-//W3C//DTD SVG 1.1//EN" "http://www.w3.org/Graphics/SVG/1.1/DTD/svg11.dtd">
<svg version="1.1" id="Layer_1" xmlns="http://www.w3.org/2000/svg" xmlns:xlink="http://www.w3.org/1999/xlink" x="0px" y="0px"
	 width="72px" height="72px" viewBox="0 0 72 72" enable-background="new 0 0 72 72" xml:space="preserve">
<g>
	<path fill="#57652D" d="M28.992,45.987l17.778-7.702l0.002,0.004c0.251-0.107,0.469-0.295,0.626-0.516l-0.001-0.001
		c0.139-0.198,0.239-0.44,0.274-0.682l0.002-0.008l0.001-0.007v-0.009l0.001-0.007l0.003-0.023l0,0l0.001-0.004h-0.001l0.003-0.039
		h0.003l0.001-0.007l0.005-0.093v-0.007h-0.002l0.002-0.014v-2.816l-0.002-0.014h0.002v-0.007l-0.005-0.092l-0.001-0.007h-0.003
		l-0.003-0.039h0.001l-0.001-0.005l0,0l-0.003-0.023l-0.001-0.006v-0.008l-0.001-0.008l-0.002-0.008h0.001
		c-0.035-0.24-0.136-0.482-0.275-0.681l0.001,0c-0.156-0.221-0.375-0.409-0.626-0.517l-0.002,0.004l-19.824-8.588
		c-0.179-0.078-0.356-0.115-0.525-0.115c-0.255,0-0.499,0.078-0.713,0.225l-0.001-0.002c-0.197,0.134-0.355,0.323-0.455,0.557
		c-0.071,0.167-0.111,0.351-0.111,0.543v2.815c0,0.286,0.09,0.576,0.236,0.813v0.004c0.156,0.255,0.396,0.476,0.681,0.599
		l0.002-0.004l13.786,5.972L26.06,41.438l-0.002-0.004c-0.284,0.123-0.523,0.343-0.681,0.599v0.005
		c-0.146,0.238-0.236,0.527-0.236,0.813v2.816c0,0.184,0.04,0.368,0.114,0.542l-0.003,0.001c0.043,0.1,0.097,0.191,0.16,0.275
		c-0.162,0.196-0.254,0.445-0.254,0.742v1.145c0,0.535,0.3,0.92,0.781,1.118l0.004,0.004c0.178,0.072,0.398,0.118,0.621,0.118
		h19.703c0.221,0,0.441-0.046,0.62-0.118l0.004-0.004c0.482-0.198,0.781-0.583,0.781-1.118v-1.145c0-0.54-0.3-0.921-0.781-1.117
		l-0.004-0.005c-0.179-0.072-0.399-0.117-0.62-0.117H28.992z"/>
	<linearGradient id="SVGID_1_" gradientUnits="userSpaceOnUse" x1="36.415" y1="28.0933" x2="36.415" y2="46.1701">
		<stop  offset="0" style="stop-color:#A3AF5D"/>
		<stop  offset="1" style="stop-color:#84904E"/>
	</linearGradient>
	<path fill-rule="evenodd" clip-rule="evenodd" fill="url(#SVGID_1_)" d="M46.328,37.256l-19.826,8.589
		c-0.13,0.057-0.236-0.023-0.236-0.179V42.85c0-0.154,0.106-0.326,0.236-0.383l16.164-7.001l-16.164-7.002
		c-0.13-0.056-0.236-0.228-0.236-0.383v-2.815c0-0.156,0.106-0.235,0.236-0.179l19.826,8.588c0.114,0.049,0.212,0.19,0.231,0.328
		l0.001,0.003l0.002,0.007v0.002v0.004l0.001,0.008v0.001v0.006v0.007l0.001,0.014v2.816l-0.001,0.014v0.007v0.007v0.001
		l-0.001,0.007v0.005v0.002l-0.002,0.007l-0.001,0.004C46.539,37.066,46.443,37.207,46.328,37.256L46.328,37.256z M46.268,47.113
		H26.564c-0.154,0-0.28,0.051-0.28,0.113v1.145c0,0.063,0.126,0.114,0.28,0.114h19.703c0.153,0,0.279-0.052,0.279-0.114v-1.145
		C46.547,47.164,46.421,47.113,46.268,47.113z"/>
</g>
</svg>
