<?xml version="1.0" encoding="utf-8"?>
<!-- Generator: Adobe Illustrator 15.1.0, SVG Export Plug-In . SVG Version: 6.00 Build 0)  -->
<!DOCTYPE svg PUBLIC "-//W3C//DTD SVG 1.1//EN" "http://www.w3.org/Graphics/SVG/1.1/DTD/svg11.dtd">
<svg version="1.1" id="Layer_1" xmlns="http://www.w3.org/2000/svg" xmlns:xlink="http://www.w3.org/1999/xlink" x="0px" y="0px"
	 width="72px" height="72px" viewBox="0 0 72 72" enable-background="new 0 0 72 72" xml:space="preserve">
<g>
	<g>
		<linearGradient id="SVGID_1_" gradientUnits="userSpaceOnUse" x1="36.3608" y1="41.376" x2="40.711" y2="32.0471">
			<stop  offset="0" style="stop-color:#ACCCD4"/>
			<stop  offset="1" style="stop-color:#E5F5FD"/>
		</linearGradient>
		<path fill-rule="evenodd" clip-rule="evenodd" fill="url(#SVGID_1_)" d="M37.691,31.908c1.742,0,3.183,1.289,3.422,2.964
			c0.335-0.115,0.694-0.177,1.067-0.177c1.789,0,3.243,1.425,3.292,3.201c0.444,0.355,0.729,0.902,0.729,1.516
			c0,1.073-0.869,1.942-1.941,1.942c-0.354,0-0.688-0.096-0.974-0.262c-0.346,0.123-0.718,0.19-1.105,0.19c-3.293,0-5.622,0-9.475,0
			c-1.911,0-3.458-1.549-3.458-3.459c0-1.908,1.547-3.457,3.458-3.457c0.57,0,1.108,0.138,1.582,0.383
			C34.578,33.134,35.991,31.908,37.691,31.908z"/>
		<path fill-rule="evenodd" clip-rule="evenodd" fill="#E5F5FC" d="M37.691,31.908c0.238,0,0.47,0.024,0.694,0.07
			c1.204,0.826,2.005,2.294,2.005,3.969c0,0.484-0.106,1.492-0.651,2.064c0.003-0.077,0.005-0.154,0.005-0.232
			c0-2.583-1.904-4.675-4.252-4.675c-0.147,0-0.293,0.008-0.438,0.024C35.688,32.382,36.635,31.908,37.691,31.908z"/>
		<path fill-rule="evenodd" clip-rule="evenodd" fill="#E5F5FC" d="M36.661,41.283h-0.242c0.004-0.078,0.006-0.158,0.006-0.238
			c0-2.648-2.147-4.797-4.797-4.797c-0.802,0-1.559,0.197-2.224,0.546c0.422-1.355,1.656-2.352,3.135-2.422
			c2.564,0.096,4.614,2.206,4.614,4.793C37.153,39.926,36.977,40.645,36.661,41.283z"/>
		<path fill-rule="evenodd" clip-rule="evenodd" fill="#E5F5FC" d="M43.855,39.566c0-1.372-1.524-2.297-2.656-2.145
			s-1.023,0.279-1.46,0.59c0.277-1.012,1.087-1.837,2.058-2.018C44.763,35.424,44.752,38.647,43.855,39.566z"/>
		<path fill="#87A7AF" d="M37.691,31.439c0.98,0,1.879,0.361,2.567,0.958c0.57,0.494,0.998,1.15,1.209,1.897l0.095-0.016
			c0.206-0.034,0.413-0.053,0.618-0.053c1.019,0,1.944,0.407,2.622,1.066c0.632,0.614,1.05,1.451,1.126,2.383
			c0.206,0.198,0.378,0.435,0.503,0.696c0.152,0.317,0.238,0.671,0.238,1.041c0,0.666-0.27,1.27-0.705,1.705h-0.002
			c-0.437,0.436-1.039,0.706-1.703,0.706c-0.215,0-0.425-0.028-0.626-0.083c-0.134-0.035-0.265-0.083-0.39-0.141
			c-0.138,0.039-0.278,0.072-0.423,0.097c-0.21,0.036-0.425,0.056-0.641,0.056h-9.475c-1.085,0-2.067-0.439-2.777-1.149
			c-0.711-0.711-1.149-1.692-1.149-2.778c0-1.083,0.439-2.066,1.149-2.776c0.711-0.71,1.692-1.149,2.777-1.149
			c0.313,0,0.624,0.039,0.925,0.112l0,0c0.115,0.028,0.229,0.062,0.341,0.099c0.234-0.693,0.655-1.3,1.203-1.758
			C35.857,31.782,36.736,31.439,37.691,31.439L37.691,31.439z M39.647,33.105c-0.523-0.453-1.207-0.728-1.956-0.728
			c-0.729,0-1.397,0.26-1.915,0.692c-0.528,0.441-0.902,1.06-1.028,1.763l-0.111,0.624l-0.563-0.29
			c-0.209-0.108-0.432-0.193-0.66-0.248H33.41c-0.22-0.053-0.457-0.082-0.704-0.082c-0.826,0-1.573,0.335-2.114,0.875
			c-0.54,0.54-0.875,1.288-0.875,2.112c0,0.826,0.335,1.574,0.875,2.114c0.541,0.54,1.288,0.876,2.114,0.876h9.475
			c0.168,0,0.33-0.015,0.483-0.041c0.157-0.026,0.314-0.068,0.465-0.121l0.204-0.072l0.188,0.107
			c0.108,0.064,0.229,0.115,0.354,0.148c0.121,0.031,0.25,0.049,0.385,0.049c0.407,0,0.775-0.164,1.042-0.43l-0.001-0.002
			c0.267-0.266,0.432-0.635,0.432-1.041c0-0.23-0.052-0.448-0.143-0.638c-0.096-0.198-0.237-0.375-0.41-0.513l-0.168-0.135
			l-0.006-0.218c-0.021-0.763-0.346-1.451-0.855-1.947c-0.507-0.493-1.202-0.798-1.97-0.798c-0.164,0-0.321,0.013-0.468,0.038
			c-0.148,0.024-0.299,0.063-0.447,0.114L40.73,35.5l-0.081-0.562C40.545,34.208,40.177,33.564,39.647,33.105z"/>
	</g>
	<linearGradient id="SVGID_2_" gradientUnits="userSpaceOnUse" x1="32.1763" y1="48.0391" x2="36.5268" y2="38.7094">
		<stop  offset="0" style="stop-color:#ACCCD4"/>
		<stop  offset="1" style="stop-color:#E5F5FD"/>
	</linearGradient>
	<path fill-rule="evenodd" clip-rule="evenodd" fill="url(#SVGID_2_)" d="M33.399,38.803c1.741,0,3.183,1.289,3.422,2.964
		c0.334-0.114,0.693-0.177,1.068-0.177c1.788,0,3.242,1.424,3.291,3.201c0.444,0.355,0.729,0.902,0.729,1.516
		c0,1.073-0.869,1.942-1.941,1.942c-0.354,0-0.688-0.095-0.975-0.261c-0.345,0.122-0.717,0.189-1.104,0.189
		c-3.294,0-5.623,0-9.476,0c-1.91,0-3.458-1.548-3.458-3.458c0-1.909,1.548-3.457,3.458-3.457c0.57,0,1.108,0.138,1.582,0.382
		C30.286,40.029,31.699,38.803,33.399,38.803z"/>
	<path fill-rule="evenodd" clip-rule="evenodd" fill="#E5F5FC" d="M33.399,38.803c0.238,0,0.47,0.024,0.695,0.07
		c1.203,0.826,2.004,2.295,2.004,3.969c0,0.484-0.105,1.492-0.651,2.064c0.003-0.077,0.005-0.154,0.005-0.232
		c0-2.582-1.904-4.676-4.252-4.676c-0.147,0-0.293,0.01-0.438,0.025C31.397,39.276,32.343,38.803,33.399,38.803z"/>
	<path fill-rule="evenodd" clip-rule="evenodd" fill="#E5F5FC" d="M32.369,48.178h-0.242c0.004-0.079,0.006-0.158,0.006-0.238
		c0-2.648-2.148-4.797-4.796-4.797c-0.803,0-1.56,0.197-2.225,0.547c0.422-1.355,1.656-2.353,3.135-2.423
		c2.564,0.096,4.614,2.205,4.614,4.793C32.861,46.819,32.685,47.539,32.369,48.178z"/>
	<path fill-rule="evenodd" clip-rule="evenodd" fill="#E5F5FC" d="M39.563,46.46c0-1.37-1.522-2.296-2.655-2.144
		s-1.023,0.279-1.46,0.59c0.277-1.012,1.087-1.837,2.058-2.018C40.472,42.318,40.46,45.542,39.563,46.46z"/>
	<path fill="#87A7AF" d="M33.399,38.334c0.98,0,1.878,0.361,2.567,0.959c0.57,0.493,0.998,1.149,1.21,1.896l0.095-0.017
		c0.205-0.034,0.412-0.052,0.618-0.052c1.018,0,1.944,0.406,2.621,1.065c0.632,0.614,1.05,1.45,1.126,2.384
		c0.206,0.197,0.378,0.434,0.504,0.695c0.151,0.317,0.237,0.672,0.237,1.041c0,0.666-0.27,1.27-0.705,1.706h-0.002
		c-0.437,0.435-1.039,0.705-1.703,0.705c-0.215,0-0.425-0.028-0.626-0.082c-0.134-0.036-0.265-0.084-0.39-0.143
		c-0.138,0.041-0.278,0.074-0.423,0.099c-0.21,0.035-0.425,0.055-0.64,0.055h-9.476c-1.085,0-2.067-0.439-2.777-1.149
		c-0.71-0.711-1.15-1.692-1.15-2.777s0.44-2.066,1.15-2.776c0.71-0.711,1.692-1.15,2.777-1.15c0.313,0,0.624,0.039,0.925,0.112
		v0.001c0.116,0.027,0.229,0.061,0.341,0.098c0.234-0.693,0.655-1.299,1.203-1.758C31.564,38.677,32.444,38.334,33.399,38.334
		L33.399,38.334z M35.355,40c-0.522-0.453-1.207-0.729-1.956-0.729c-0.729,0-1.397,0.262-1.915,0.693
		c-0.528,0.44-0.902,1.061-1.028,1.763l-0.112,0.624l-0.562-0.291c-0.21-0.107-0.433-0.192-0.661-0.247h-0.002
		c-0.221-0.054-0.458-0.081-0.705-0.081c-0.826,0-1.573,0.334-2.113,0.875c-0.541,0.54-0.876,1.288-0.876,2.112
		c0,0.825,0.335,1.573,0.876,2.113c0.54,0.54,1.287,0.876,2.113,0.876h9.476c0.167,0,0.329-0.015,0.482-0.041
		c0.157-0.026,0.314-0.068,0.465-0.121l0.204-0.072l0.188,0.108c0.108,0.063,0.229,0.114,0.355,0.147
		c0.12,0.032,0.25,0.05,0.384,0.05c0.407,0,0.775-0.166,1.042-0.431l-0.001-0.001c0.267-0.267,0.432-0.635,0.432-1.042
		c0-0.23-0.052-0.447-0.143-0.638c-0.096-0.198-0.237-0.374-0.41-0.513l-0.168-0.135l-0.006-0.217
		c-0.021-0.764-0.345-1.451-0.854-1.948c-0.508-0.493-1.203-0.798-1.97-0.798c-0.165,0-0.322,0.014-0.469,0.037
		c-0.148,0.025-0.299,0.064-0.447,0.115l-0.535,0.184l-0.081-0.562C36.253,41.104,35.885,40.459,35.355,40z"/>
	<radialGradient id="SVGID_3_" cx="36.499" cy="32.8418" r="2.3395" fx="36.4496" fy="32.8565" gradientUnits="userSpaceOnUse">
		<stop  offset="0" style="stop-color:#FFFFFF"/>
		<stop  offset="1" style="stop-color:#0FA8E1"/>
	</radialGradient>
	<path fill-rule="evenodd" clip-rule="evenodd" fill="url(#SVGID_3_)" d="M40.948,28.119c-2.788,3.177-1.963,5.512-2.792,6.823
		c-0.829,1.31-2.404,1.117-3.342,0.25c-0.938-0.869-1.267-2.126-0.176-3.276C35.73,30.764,38.486,30.527,40.948,28.119z"/>
	<path fill="#3982A9" d="M41.301,28.427c-1.744,1.987-2.004,3.635-2.201,4.883c-0.115,0.736-0.213,1.352-0.548,1.881v0.001
		c-0.092,0.145-0.194,0.278-0.307,0.398V35.59c-0.464,0.501-1.046,0.734-1.64,0.759c-0.573,0.023-1.158-0.151-1.653-0.465
		c-0.158-0.1-0.313-0.218-0.455-0.351l-0.005-0.004L34.46,35.5c-0.528-0.502-0.888-1.125-0.961-1.795
		c-0.074-0.683,0.144-1.401,0.769-2.076l0.004-0.005l0.029-0.03c0.517-0.545,1.3-0.884,2.234-1.288
		c1.21-0.523,2.704-1.169,4.086-2.521L41.301,28.427L41.301,28.427z M38.177,33.167c0.133-0.847,0.293-1.86,0.852-3.028
		c-0.751,0.429-1.476,0.742-2.123,1.022c-0.838,0.361-1.539,0.665-1.928,1.075l-0.028,0.03l-0.001,0
		c-0.416,0.453-0.564,0.914-0.519,1.338c0.048,0.438,0.301,0.862,0.676,1.218l0.03,0.03v0.001c0.095,0.087,0.2,0.167,0.314,0.239
		c0.342,0.216,0.738,0.336,1.119,0.321c0.359-0.015,0.712-0.156,0.991-0.458v-0.001c0.068-0.074,0.136-0.162,0.2-0.264v0.001
		C37.994,34.322,38.077,33.796,38.177,33.167z"/>
	<radialGradient id="SVGID_4_" cx="46.0654" cy="38.6113" r="2.0973" gradientUnits="userSpaceOnUse">
		<stop  offset="0" style="stop-color:#FFFFFF"/>
		<stop  offset="1" style="stop-color:#0FA8E1"/>
	</radialGradient>
	<path fill-rule="evenodd" clip-rule="evenodd" fill="url(#SVGID_4_)" d="M41.366,33.93c2.789,3.177,1.963,5.512,2.793,6.822
		c0.829,1.312,2.404,1.118,3.342,0.25c0.938-0.868,1.267-2.127,0.175-3.276S43.829,36.339,41.366,33.93z"/>
	<path fill="#3982A9" d="M43.286,35.95c0.56,1.169,0.719,2.183,0.853,3.029c0.099,0.629,0.183,1.154,0.416,1.523l0,0
		c0.063,0.1,0.131,0.189,0.202,0.266h-0.001c0.279,0.303,0.631,0.443,0.99,0.457c0.38,0.017,0.776-0.104,1.117-0.32
		c0.116-0.073,0.225-0.156,0.319-0.244l0,0l0.032-0.031c0.372-0.354,0.623-0.776,0.671-1.213c0.045-0.427-0.104-0.889-0.522-1.341
		v0.001l-0.03-0.031c-0.389-0.408-1.087-0.711-1.923-1.071C44.762,36.693,44.037,36.38,43.286,35.95L43.286,35.95z M43.216,39.121
		c-0.197-1.248-0.457-2.896-2.201-4.883l0.678-0.643c1.38,1.349,2.876,1.997,4.088,2.521c0.936,0.405,1.717,0.743,2.234,1.289
		l0.004,0.003l0.029,0.032v0.001c0.624,0.673,0.842,1.391,0.768,2.074c-0.072,0.671-0.43,1.293-0.96,1.796l-0.003,0.004l-0.033,0.03
		h-0.001c-0.144,0.132-0.297,0.251-0.455,0.351c-0.496,0.314-1.081,0.488-1.653,0.465c-0.595-0.025-1.177-0.258-1.641-0.76h-0.002
		c-0.109-0.117-0.212-0.251-0.304-0.396v-0.002C43.429,40.474,43.331,39.857,43.216,39.121z"/>
	<path fill-rule="evenodd" clip-rule="evenodd" fill="#C43B3E" d="M42.456,36.783c0.641,0.481,1.055,1.248,1.055,2.111
		c0,1.456-1.181,2.638-2.638,2.638s-2.639-1.182-2.639-2.638c0-0.863,0.415-1.629,1.056-2.111V26.539
		c0-0.388,0.316-0.704,0.703-0.704h1.76c0.387,0,0.703,0.316,0.703,0.704V36.783z"/>
	<path fill-rule="evenodd" clip-rule="evenodd" fill="#CC5E4F" d="M39.332,41.035c-0.664-0.479-1.098-1.26-1.098-2.142
		c0-0.863,0.415-1.629,1.056-2.111v-9.064h0.818c0.328,0,0.598,0.268,0.598,0.597v8.691c0.543,0.407,0.895,1.058,0.895,1.79
		c0,1.236-1.002,2.238-2.237,2.238H39.332z"/>
	<path fill-rule="evenodd" clip-rule="evenodd" fill="#FFFFFF" d="M39.29,29.564v-3.025c0-0.388,0.316-0.704,0.703-0.704h1.76
		c0.387,0,0.703,0.316,0.703,0.704v3.025H39.29z"/>
	<path fill-rule="evenodd" clip-rule="evenodd" fill="#E6E6E5" d="M40.706,25.835h1.047c0.387,0,0.703,0.316,0.703,0.704v3.025
		h-1.75V25.835z"/>
	<path fill="#87A7AF" d="M42.925,36.563c0.3,0.263,0.548,0.584,0.728,0.943h0.001c0.209,0.418,0.327,0.89,0.327,1.388
		c0,0.856-0.348,1.635-0.91,2.196l-0.001-0.001C42.507,41.652,41.729,42,40.873,42c-0.858,0-1.635-0.348-2.197-0.91l0.001-0.001
		c-0.563-0.563-0.911-1.339-0.911-2.195c0-0.496,0.118-0.968,0.328-1.388c0.18-0.359,0.428-0.68,0.728-0.943V26.539
		c0-0.322,0.132-0.616,0.343-0.827l0.002-0.002c0.213-0.211,0.507-0.344,0.827-0.344h1.76c0.321,0,0.614,0.133,0.826,0.344
		l0.003,0.002c0.211,0.211,0.343,0.505,0.343,0.827V36.563L42.925,36.563z M42.815,37.924c-0.151-0.303-0.371-0.566-0.64-0.768
		l-0.188-0.142v-0.232V26.539c0-0.064-0.026-0.124-0.068-0.167c-0.043-0.042-0.103-0.068-0.166-0.068h-1.76
		c-0.064,0-0.123,0.026-0.166,0.068c-0.042,0.042-0.068,0.103-0.068,0.167v10.244v0.233l-0.188,0.141
		c-0.268,0.201-0.489,0.465-0.641,0.768c-0.145,0.289-0.226,0.619-0.226,0.97c0,0.6,0.242,1.143,0.634,1.533h0.002
		c0.393,0.392,0.935,0.636,1.533,0.636c0.601,0,1.144-0.242,1.533-0.634v-0.002c0.393-0.393,0.636-0.935,0.636-1.533
		C43.042,38.545,42.96,38.215,42.815,37.924L42.815,37.924z"/>
</g>
</svg>
