<?xml version="1.0" encoding="utf-8"?>
<!-- Generator: Adobe Illustrator 15.1.0, SVG Export Plug-In . SVG Version: 6.00 Build 0)  -->
<!DOCTYPE svg PUBLIC "-//W3C//DTD SVG 1.1//EN" "http://www.w3.org/Graphics/SVG/1.1/DTD/svg11.dtd">
<svg version="1.1" id="Layer_1" xmlns="http://www.w3.org/2000/svg" xmlns:xlink="http://www.w3.org/1999/xlink" x="0px" y="0px"
	 width="72px" height="72px" viewBox="0 0 72 72" enable-background="new 0 0 72 72" xml:space="preserve">
<g>
	<path fill="#57652D" d="M45.577,47.874l-19.825-8.589l-0.001,0.004c-0.25-0.107-0.469-0.295-0.625-0.517l0,0
		c-0.139-0.198-0.239-0.44-0.274-0.682l-0.002-0.008l-0.001-0.007v-0.008l-0.001-0.008l-0.002-0.022h-0.001v-0.005h0.001
		l-0.004-0.039h-0.003l-0.001-0.007l-0.004-0.093v-0.006h0.001l-0.002-0.016v-2.816l0.002-0.014h-0.001v-0.007l0.004-0.093
		l0.001-0.006h0.003l0.004-0.039h-0.001v-0.005h0.001l0.002-0.023l0.001-0.006v-0.008l0.001-0.008l0.002-0.008l0,0
		c0.034-0.24,0.135-0.482,0.274-0.681v0c0.155-0.221,0.374-0.409,0.625-0.517l0.001,0.003l19.825-8.588
		c0.179-0.078,0.356-0.115,0.525-0.115c0.255,0,0.499,0.078,0.713,0.224l0.001-0.001c0.197,0.134,0.355,0.323,0.455,0.557
		c0.071,0.167,0.112,0.351,0.112,0.542v2.816c0,0.286-0.091,0.575-0.237,0.814v0.004c-0.156,0.255-0.396,0.476-0.681,0.599
		l-0.002-0.004l-13.786,5.972l13.786,5.973l0.002-0.004c0.284,0.123,0.523,0.343,0.681,0.599v0.005
		c0.146,0.237,0.237,0.527,0.237,0.813v2.815c0,0.184-0.041,0.369-0.115,0.542l0.003,0.001c-0.097,0.226-0.251,0.412-0.445,0.548
		l-0.009,0.009c-0.212,0.144-0.456,0.223-0.715,0.223C45.934,47.988,45.756,47.951,45.577,47.874z"/>
	<linearGradient id="SVGID_1_" gradientUnits="userSpaceOnUse" x1="36.1084" y1="29.2007" x2="36.1084" y2="46.9739">
		<stop  offset="0" style="stop-color:#A3AF5D"/>
		<stop  offset="1" style="stop-color:#84904E"/>
	</linearGradient>
	<path fill-rule="evenodd" clip-rule="evenodd" fill="url(#SVGID_1_)" d="M26.195,38.256l19.826,8.589
		c0.131,0.056,0.236-0.023,0.236-0.179v-2.815c0-0.155-0.105-0.327-0.236-0.384l-16.164-7.002l16.164-7.001
		c0.131-0.056,0.236-0.228,0.236-0.383v-2.816c0-0.155-0.105-0.235-0.236-0.178l-19.826,8.588c-0.114,0.05-0.212,0.19-0.231,0.328
		l-0.001,0.004l-0.001,0.007v0.002l-0.001,0.005l-0.001,0.007v0.001v0.007v0.007l-0.001,0.014v2.816l0.001,0.016v0.006v0.008l0,0
		l0.001,0.008l0.001,0.005v0.002l0.001,0.007l0.001,0.004C25.984,38.066,26.08,38.207,26.195,38.256z"/>
</g>
</svg>
