<?xml version="1.0" encoding="utf-8"?>
<!-- Generator: Adobe Illustrator 15.1.0, SVG Export Plug-In . SVG Version: 6.00 Build 0)  -->
<!DOCTYPE svg PUBLIC "-//W3C//DTD SVG 1.1//EN" "http://www.w3.org/Graphics/SVG/1.1/DTD/svg11.dtd">
<svg version="1.1" id="Layer_1" xmlns="http://www.w3.org/2000/svg" xmlns:xlink="http://www.w3.org/1999/xlink" x="0px" y="0px"
	 width="72px" height="72px" viewBox="0 0 72 72" enable-background="new 0 0 72 72" xml:space="preserve">
<g>
	<polygon fill="#57652D" points="45.308,31.669 45.308,34.25 48.621,30.629 45.308,27.008 45.308,29.471 40.559,29.471 
		40.559,31.669 	"/>
	<polygon fill="#D37028" points="45.308,42.927 45.308,45.508 48.621,41.887 45.308,38.266 45.308,40.729 40.559,40.729 
		40.559,42.927 	"/>
	<g>
		<polygon fill="#947D2E" points="25.965,28.495 28.059,28.495 29.8,26.612 31.369,23.446 31.63,22.922 32.209,22.922 
			33.458,22.922 34.396,22.922 34.396,23.86 34.396,26.204 37.205,26.204 37.825,26.438 39.073,27.538 39.392,27.819 39.392,28.242 
			39.392,33.746 39.392,34.169 39.073,34.449 37.825,35.55 37.205,35.785 30.961,35.785 30.342,35.55 29.358,34.684 25.965,34.684 
			25.027,34.684 25.027,33.746 25.027,29.433 25.027,28.495 		"/>
		<linearGradient id="SVGID_1_" gradientUnits="userSpaceOnUse" x1="32.209" y1="32.4985" x2="32.209" y2="36.2667">
			<stop  offset="0" style="stop-color:#EEDC9F"/>
			<stop  offset="1" style="stop-color:#DBC887"/>
		</linearGradient>
		<polygon fill="url(#SVGID_1_)" points="25.965,29.433 28.463,29.433 30.582,27.142 32.209,23.86 33.458,23.86 33.458,27.142 
			37.205,27.142 38.453,28.242 38.453,28.51 35.772,28.51 35.772,29.448 38.453,29.448 38.453,30.797 35.532,30.797 35.532,31.735 
			38.453,31.735 38.453,32.974 35.847,32.974 35.847,33.912 38.266,33.912 37.205,34.846 30.961,34.846 29.712,33.746 
			25.965,33.746 		"/>
	</g>
	<polygon fill="#947D2E" points="38.453,44.166 36.36,44.166 34.619,46.049 33.049,49.215 32.789,49.738 32.21,49.738 
		30.961,49.738 30.023,49.738 30.023,48.801 30.023,46.457 27.214,46.457 26.594,46.223 25.346,45.123 25.027,44.842 25.027,44.419 
		25.027,38.915 25.027,38.492 25.346,38.211 26.594,37.111 27.214,36.876 33.458,36.876 34.077,37.111 35.061,37.977 38.453,37.977 
		39.392,37.977 39.392,38.915 39.392,43.228 39.392,44.166 	"/>
	<linearGradient id="SVGID_2_" gradientUnits="userSpaceOnUse" x1="32.3008" y1="36.2358" x2="32.2283" y2="40.3907">
		<stop  offset="0" style="stop-color:#EEDC9F"/>
		<stop  offset="1" style="stop-color:#DBC887"/>
	</linearGradient>
	<polygon fill="url(#SVGID_2_)" points="38.453,43.228 35.956,43.228 33.837,45.52 32.21,48.801 30.961,48.801 30.961,45.52 
		27.214,45.52 25.965,44.419 25.965,44.15 28.646,44.15 28.646,43.213 25.965,43.213 25.965,41.863 28.887,41.863 28.887,40.926 
		25.965,40.926 25.965,39.688 28.572,39.688 28.572,38.749 26.154,38.749 27.214,37.814 33.458,37.814 34.707,38.915 38.453,38.915 
			"/>
</g>
</svg>
