<?xml version="1.0" encoding="utf-8"?>
<!-- Generator: Adobe Illustrator 15.1.0, SVG Export Plug-In . SVG Version: 6.00 Build 0)  -->
<!DOCTYPE svg PUBLIC "-//W3C//DTD SVG 1.1//EN" "http://www.w3.org/Graphics/SVG/1.1/DTD/svg11.dtd">
<svg version="1.1" id="Layer_1" xmlns="http://www.w3.org/2000/svg" xmlns:xlink="http://www.w3.org/1999/xlink" x="0px" y="0px"
	 width="72px" height="72px" viewBox="0 0 72 72" enable-background="new 0 0 72 72" xml:space="preserve">
<g>
	<polygon fill-rule="evenodd" clip-rule="evenodd" fill="#166433" points="43.234,35.201 45.967,38.19 48.698,41.182 43.234,41.182 
		37.771,41.182 40.502,38.19 	"/>
	<path fill="#166433" d="M49.08,40.834l-2.732-2.99h-0.002l-2.732-2.99l-0.379-0.414l-0.001-0.001l-0.378,0.415l-2.731,2.99h-0.003
		l-2.731,2.99l-0.788,0.863h1.169h5.464h5.464h1.169L49.08,40.834z M43.234,40.665h-4.295l1.943-2.128l-0.001-0.001l2.353-2.575v0
		l2.354,2.574l-0.001,0.001l1.942,2.128H43.234z"/>
	<linearGradient id="SVGID_1_" gradientUnits="userSpaceOnUse" x1="28.0361" y1="27.4634" x2="28.0361" y2="24.6074">
		<stop  offset="0" style="stop-color:#599666"/>
		<stop  offset="1" style="stop-color:#B3CDB9"/>
	</linearGradient>
	<path fill-rule="evenodd" clip-rule="evenodd" fill="url(#SVGID_1_)" d="M25.397,24.291h5.277c0.459,0,0.835,0.376,0.835,0.835
		v1.891c0,0.459-0.376,0.835-0.835,0.835h-5.277c-0.459,0-0.835-0.376-0.835-0.835v-1.891
		C24.563,24.667,24.938,24.291,25.397,24.291z"/>
	<path fill="#166433" d="M31.597,24.204c-0.235-0.236-0.563-0.382-0.922-0.382h-2.639h-2.639c-0.358,0-0.686,0.146-0.922,0.382
		v0.002c-0.235,0.236-0.383,0.562-0.383,0.92v1.891c0,0.357,0.147,0.684,0.383,0.92l0.002,0.002c0.236,0.235,0.563,0.382,0.92,0.382
		h2.639h2.639c0.358,0,0.684-0.147,0.92-0.382h0.002c0.236-0.236,0.383-0.563,0.383-0.922v-1.891
		C31.979,24.767,31.833,24.44,31.597,24.204z M31.041,27.017c0,0.1-0.042,0.192-0.108,0.258l0.002,0.001
		c-0.066,0.065-0.159,0.107-0.26,0.107h-2.639h-2.639c-0.101,0-0.193-0.042-0.259-0.107c-0.065-0.066-0.107-0.159-0.107-0.259
		v-1.891c0-0.101,0.042-0.193,0.107-0.26l0.001,0.001c0.066-0.067,0.158-0.108,0.258-0.108h2.639h2.639
		c0.1,0,0.192,0.042,0.258,0.108c0.066,0.066,0.108,0.158,0.108,0.258V27.017z"/>
	<linearGradient id="SVGID_2_" gradientUnits="userSpaceOnUse" x1="27.7246" y1="37.6094" x2="27.7246" y2="34.6258">
		<stop  offset="0" style="stop-color:#599666"/>
		<stop  offset="1" style="stop-color:#B3CDB9"/>
	</linearGradient>
	<path fill-rule="evenodd" clip-rule="evenodd" fill="url(#SVGID_2_)" d="M25.086,34.516h5.277c0.459,0,0.835,0.376,0.835,0.835
		v1.891c0,0.459-0.376,0.835-0.835,0.835h-5.277c-0.459,0-0.835-0.376-0.835-0.835v-1.891
		C24.251,34.892,24.627,34.516,25.086,34.516z"/>
	<path fill="#166433" d="M31.285,34.429c-0.236-0.236-0.562-0.382-0.922-0.382h-2.639h-2.639c-0.358,0-0.686,0.146-0.922,0.382
		v0.002c-0.235,0.236-0.383,0.561-0.383,0.92v1.891c0,0.357,0.147,0.684,0.383,0.92l0.002,0.002c0.236,0.235,0.563,0.382,0.92,0.382
		h2.639h2.639c0.358,0,0.684-0.146,0.92-0.382h0.002c0.236-0.236,0.383-0.563,0.383-0.922v-1.891
		C31.668,34.991,31.521,34.665,31.285,34.429z M30.729,37.242c0,0.1-0.041,0.191-0.108,0.258l0.002,0.002
		c-0.067,0.064-0.159,0.105-0.26,0.105h-2.639h-2.639c-0.101,0-0.193-0.041-0.26-0.105c-0.065-0.066-0.106-0.159-0.106-0.26v-1.891
		c0-0.101,0.041-0.193,0.106-0.26l0.001,0.001c0.067-0.067,0.159-0.108,0.259-0.108h2.639h2.639c0.1,0,0.191,0.042,0.258,0.108
		c0.067,0.066,0.108,0.158,0.108,0.258V37.242z"/>
	<linearGradient id="SVGID_3_" gradientUnits="userSpaceOnUse" x1="39.7119" y1="32.3521" x2="34.8627" y2="24.5916">
		<stop  offset="0" style="stop-color:#AE1F24"/>
		<stop  offset="1" style="stop-color:#88181B"/>
	</linearGradient>
	<polygon fill-rule="evenodd" clip-rule="evenodd" fill="url(#SVGID_3_)" points="34.896,24.509 41.279,30.892 39.7,32.47 
		33.317,26.087 	"/>
	<path fill="#6F1A16" d="M41.611,30.56l-4.313-4.313l-2.07-2.07l-0.332-0.332l-0.331,0.332l-1.579,1.578l-0.332,0.332l0.332,0.332
		l4.313,4.313l2.071,2.07l0.331,0.332l0.332-0.332l1.579-1.579l0.332-0.332L41.611,30.56z M39.7,31.807l-2.402-2.403l-3.317-3.317
		l0.915-0.915l2.402,2.402l3.317,3.317L39.7,31.807z"/>
	<linearGradient id="SVGID_4_" gradientUnits="userSpaceOnUse" x1="44.875" y1="32.9023" x2="44.875" y2="29.0051">
		<stop  offset="0" style="stop-color:#599666"/>
		<stop  offset="1" style="stop-color:#B3CDB9"/>
	</linearGradient>
	<path fill-rule="evenodd" clip-rule="evenodd" fill="url(#SVGID_4_)" d="M42.54,28.623h4.669c0.627,0,1.14,0.513,1.14,1.14v2.58
		c0,0.627-0.513,1.14-1.14,1.14H42.54c-0.627,0-1.14-0.513-1.14-1.14v-2.58C41.4,29.136,41.913,28.623,42.54,28.623z"/>
	<path fill="#166433" d="M48.345,28.628l-0.002-0.002c-0.292-0.292-0.694-0.473-1.134-0.473h-2.335H42.54
		c-0.44,0-0.843,0.181-1.135,0.473l-0.002,0.002c-0.291,0.291-0.472,0.694-0.472,1.134v2.58c0,0.44,0.181,0.843,0.472,1.135
		l0.002,0.002c0.292,0.291,0.694,0.472,1.135,0.472h2.334h2.335c0.439,0,0.842-0.181,1.134-0.472l0.002-0.002
		c0.292-0.292,0.473-0.694,0.473-1.135v-2.58C48.817,29.322,48.637,28.919,48.345,28.628z M47.879,32.342
		c0,0.185-0.075,0.353-0.195,0.473l-0.002,0.002c-0.12,0.121-0.289,0.195-0.473,0.195h-2.335H42.54
		c-0.185,0-0.353-0.075-0.473-0.195l-0.002-0.002c-0.121-0.12-0.196-0.288-0.196-0.473v-2.58c0-0.185,0.075-0.352,0.196-0.472
		l0.002-0.002c0.12-0.121,0.288-0.196,0.473-0.196h2.334h2.335c0.184,0,0.353,0.075,0.473,0.196l0.002,0.002
		c0.12,0.12,0.195,0.288,0.195,0.472V32.342z"/>
	<linearGradient id="SVGID_5_" gradientUnits="userSpaceOnUse" x1="34.7368" y1="48.2002" x2="34.7368" y2="38.8712">
		<stop  offset="0" style="stop-color:#599666"/>
		<stop  offset="0.34" style="stop-color:#B3CDB9"/>
		<stop  offset="0.8227" style="stop-color:#599666"/>
		<stop  offset="1" style="stop-color:#B3CDB9"/>
	</linearGradient>
	<path fill-rule="evenodd" clip-rule="evenodd" fill="url(#SVGID_5_)" d="M25.173,44.589h16.402v-4.364
		c0-0.46,0.375-0.836,0.835-0.836h1.891c0.46,0,0.836,0.377,0.836,0.836v5.199v0.639v1.252c0,0.46-0.376,0.836-0.836,0.836H25.173
		c-0.46,0-0.836-0.376-0.836-0.836v-1.891C24.337,44.964,24.713,44.589,25.173,44.589z"/>
	<path fill="#166433" d="M45.223,39.305l-0.002-0.002c-0.236-0.235-0.562-0.383-0.92-0.383H42.41c-0.359,0-0.687,0.146-0.922,0.383
		v0.002c-0.235,0.236-0.383,0.562-0.383,0.92v3.895h-6.369h-9.563c-0.357,0-0.685,0.147-0.921,0.383l-0.002,0.002
		c-0.235,0.236-0.383,0.563-0.383,0.92v1.891c0,0.357,0.147,0.684,0.383,0.92l0.002,0.002c0.236,0.236,0.563,0.383,0.921,0.383
		h9.563h9.564c0.358,0,0.684-0.146,0.92-0.383l0.002-0.002c0.235-0.236,0.383-0.563,0.383-0.92v-1.252v-0.639v-5.199
		C45.605,39.867,45.458,39.541,45.223,39.305z M44.667,45.424v0.639v1.252c0,0.102-0.041,0.193-0.106,0.26
		c-0.066,0.065-0.159,0.107-0.26,0.107h-9.564h-9.563c-0.102,0-0.194-0.042-0.261-0.107c-0.064-0.066-0.106-0.158-0.106-0.26v-1.891
		c0-0.101,0.042-0.193,0.106-0.26c0.066-0.064,0.159-0.106,0.261-0.106h9.563h6.839h0.469v-0.469v-4.364
		c0-0.101,0.041-0.193,0.106-0.26l0.001,0.002c0.066-0.066,0.159-0.108,0.259-0.108h1.891c0.101,0,0.193,0.042,0.26,0.106
		c0.065,0.066,0.106,0.159,0.106,0.26V45.424z"/>
	<linearGradient id="SVGID_6_" gradientUnits="userSpaceOnUse" x1="43.2344" y1="36.126" x2="43.2344" y2="42.5647">
		<stop  offset="0" style="stop-color:#599666"/>
		<stop  offset="1" style="stop-color:#B3CDB9"/>
	</linearGradient>
	<polygon fill-rule="evenodd" clip-rule="evenodd" fill="url(#SVGID_6_)" points="45.588,38.536 43.234,35.961 40.882,38.536 
		40.883,38.537 38.939,40.665 43.234,40.665 47.529,40.665 45.587,38.537 	"/>
</g>
</svg>
