<?xml version="1.0" encoding="utf-8"?>
<!-- Generator: Adobe Illustrator 15.1.0, SVG Export Plug-In . SVG Version: 6.00 Build 0)  -->
<!DOCTYPE svg PUBLIC "-//W3C//DTD SVG 1.1//EN" "http://www.w3.org/Graphics/SVG/1.1/DTD/svg11.dtd">
<svg version="1.1" id="Layer_1" xmlns="http://www.w3.org/2000/svg" xmlns:xlink="http://www.w3.org/1999/xlink" x="0px" y="0px"
	 width="72px" height="72px" viewBox="0 0 72 72" enable-background="new 0 0 72 72" xml:space="preserve">
<g>
	<path fill="#57652D" d="M24.717,43.646l7.197-7.196l-7.197-7.196V29.25c-0.299-0.301-0.444-0.699-0.436-1.093
		c0.008-0.383,0.157-0.768,0.447-1.059l2.896-2.895c0.289-0.29,0.675-0.44,1.058-0.448c0.4-0.008,0.797,0.137,1.097,0.437
		l7.196,7.196l7.196-7.196c0.299-0.299,0.696-0.443,1.098-0.436c0.382,0.007,0.767,0.156,1.059,0.447l2.895,2.896v0
		c0.291,0.29,0.439,0.674,0.447,1.058c0.009,0.396-0.136,0.791-0.436,1.092v0.004v0l-7.196,7.196l7.196,7.196v0.001
		c0.299,0.298,0.444,0.696,0.436,1.097c-0.008,0.383-0.156,0.767-0.447,1.058l0,0l-2.895,2.896c-0.291,0.291-0.677,0.44-1.059,0.448
		c-0.401,0.008-0.799-0.138-1.098-0.437l-7.196-7.195l-7.196,7.195c-0.3,0.3-0.697,0.444-1.097,0.437
		c-0.383-0.008-0.77-0.159-1.058-0.448l-2.896-2.895c-0.291-0.291-0.44-0.676-0.447-1.059c-0.008-0.395,0.136-0.792,0.436-1.093
		V43.646z"/>
	<linearGradient id="SVGID_1_" gradientUnits="userSpaceOnUse" x1="35.1235" y1="34.5986" x2="38.8268" y2="38.3019">
		<stop  offset="0" style="stop-color:#A3AF5D"/>
		<stop  offset="1" style="stop-color:#84904E"/>
	</linearGradient>
	<path fill-rule="evenodd" clip-rule="evenodd" fill="url(#SVGID_1_)" d="M25.513,44.442l7.993-7.992l-7.993-7.991
		c-0.151-0.152-0.146-0.406,0.012-0.564L28.42,25c0.159-0.159,0.412-0.163,0.563-0.012l7.992,7.992l7.992-7.991
		c0.151-0.151,0.405-0.147,0.563,0.011l2.896,2.896c0.158,0.158,0.162,0.412,0.012,0.564l-7.992,7.991l7.992,7.992
		c0.15,0.151,0.146,0.405-0.012,0.563l-2.896,2.896c-0.158,0.158-0.412,0.162-0.563,0.011l-7.992-7.991l-7.992,7.992
		c-0.151,0.151-0.404,0.147-0.563-0.012l-2.896-2.896C25.366,44.848,25.362,44.594,25.513,44.442z"/>
</g>
</svg>
