<?xml version="1.0" encoding="utf-8"?>
<!-- Generator: Adobe Illustrator 15.1.0, SVG Export Plug-In . SVG Version: 6.00 Build 0)  -->
<!DOCTYPE svg PUBLIC "-//W3C//DTD SVG 1.1//EN" "http://www.w3.org/Graphics/SVG/1.1/DTD/svg11.dtd">
<svg version="1.1" id="Layer_1" xmlns="http://www.w3.org/2000/svg" xmlns:xlink="http://www.w3.org/1999/xlink" x="0px" y="0px"
	 width="72px" height="72px" viewBox="0 0 72 72" enable-background="new 0 0 72 72" xml:space="preserve">
<g>
	<path fill="#57652D" d="M26.851,37.101h6.823l0.354-1.114h-7.177c-0.377,0-0.727-0.153-0.984-0.404h-0.001
		c-0.263-0.255-0.428-0.611-0.428-1.002v-2.816c0-0.393,0.166-0.749,0.428-1.002l0.001,0c0.258-0.251,0.607-0.404,0.984-0.404h8.964
		l1.862-5.865c0.1-0.313,0.308-0.581,0.562-0.76h0.004c0.247-0.172,0.554-0.281,0.863-0.281h2.817c0.135,0,0.272,0.024,0.407,0.065
		h0.013c0.265,0.083,0.485,0.245,0.648,0.457h0.001c0.172,0.225,0.268,0.496,0.268,0.788c0,0.133-0.022,0.272-0.069,0.417h-0.002
		l-1.645,5.179h5.546c0.379,0,0.729,0.154,0.984,0.404l0.001,0c0.262,0.254,0.428,0.61,0.428,1.002v2.816
		c0,0.391-0.164,0.748-0.428,1.002h-0.001c-0.256,0.25-0.605,0.404-0.984,0.404h-7.334l-0.354,1.114h7.688
		c0.379,0,0.729,0.154,0.984,0.404l0.001-0.001c0.262,0.255,0.428,0.611,0.428,1.003v2.816c0,0.392-0.164,0.747-0.428,1.003
		l-0.001-0.001c-0.256,0.25-0.605,0.404-0.984,0.404h-9.475l-1.775,5.592c-0.1,0.312-0.307,0.58-0.562,0.76h-0.005
		c-0.246,0.172-0.552,0.281-0.863,0.281h-2.816c-0.134,0-0.271-0.024-0.407-0.065h-0.014c-0.263-0.083-0.485-0.244-0.647-0.457
		l-0.001,0.001c-0.173-0.227-0.268-0.499-0.268-0.788c0-0.135,0.022-0.274,0.068-0.418l0.003,0.001l1.558-4.906h-5.035
		c-0.377,0-0.727-0.153-0.984-0.404l-0.001,0.001c-0.263-0.256-0.428-0.611-0.428-1.003v-2.816c0-0.392,0.166-0.748,0.428-1.003
		l0.001,0.001C26.124,37.254,26.474,37.101,26.851,37.101z"/>
	<linearGradient id="SVGID_1_" gradientUnits="userSpaceOnUse" x1="36.9702" y1="29.1318" x2="36.9702" y2="48.4243">
		<stop  offset="0" style="stop-color:#A3AF5D"/>
		<stop  offset="1" style="stop-color:#84904E"/>
	</linearGradient>
	<path fill-rule="evenodd" clip-rule="evenodd" fill="url(#SVGID_1_)" d="M26.851,38.227h7.642l1.068-3.366h-8.71
		c-0.157,0-0.287-0.125-0.287-0.28v-2.816c0-0.154,0.13-0.28,0.287-0.28h9.782l2.112-6.652c0.045-0.14,0.206-0.254,0.36-0.254h2.817
		c0.154,0,0.244,0.114,0.199,0.254l-2.112,6.652h7.08c0.157,0,0.287,0.126,0.287,0.28v2.816c0,0.155-0.13,0.28-0.287,0.28h-8.152
		l-1.068,3.366h9.221c0.157,0,0.287,0.126,0.287,0.28v2.816c0,0.155-0.13,0.28-0.287,0.28H36.797l-2.025,6.379
		c-0.045,0.141-0.207,0.254-0.361,0.254h-2.816c-0.155,0-0.244-0.113-0.199-0.254l2.024-6.379h-6.568
		c-0.157,0-0.287-0.125-0.287-0.28v-2.816C26.563,38.353,26.693,38.227,26.851,38.227z"/>
</g>
</svg>
