<?xml version="1.0" encoding="utf-8"?>
<!-- Generator: Adobe Illustrator 15.1.0, SVG Export Plug-In . SVG Version: 6.00 Build 0)  -->
<!DOCTYPE svg PUBLIC "-//W3C//DTD SVG 1.1//EN" "http://www.w3.org/Graphics/SVG/1.1/DTD/svg11.dtd">
<svg version="1.1" id="Layer_1" xmlns="http://www.w3.org/2000/svg" xmlns:xlink="http://www.w3.org/1999/xlink" x="0px" y="0px"
	 width="72px" height="72px" viewBox="0 0 72 72" enable-background="new 0 0 72 72" xml:space="preserve">
<g>
	<path opacity="0.4" fill-rule="evenodd" clip-rule="evenodd" fill="#E66161" d="M48.09,32.225v10.172H31.151
		c2.776-3.197,4.624-6.93,6.483-10.172H48.09z"/>
	<rect x="47.573" y="22.739" fill="#010101" width="1.032" height="27.03"/>
	<rect x="22.76" y="47.525" fill="#010101" width="27.029" height="1.031"/>
	<path fill-rule="evenodd" clip-rule="evenodd" fill="#A7DCDD" d="M48.09,24.324c0,7.905,0,15.811,0,23.717
		c-8.209,0-16.417,0-24.625,0C37.713,42.098,36.455,23.867,48.09,24.324z"/>
	<path fill-rule="evenodd" clip-rule="evenodd" fill="#E66161" d="M48.09,32.225v10.172H31.151c2.776-3.197,4.624-6.93,6.483-10.172
		H48.09z"/>
	<path fill="#010101" d="M48.605,24.324v23.717v0.516H48.09H36.644v-1.031h10.93V24.83c-5.276,0.057-7.723,4.45-10.55,9.53
		l-0.38,0.683V32.93c2.872-5.125,5.565-9.352,11.466-9.121l0.496,0.02V24.324z M36.644,48.557H23.464l-0.197-0.992
		c6.811-2.84,10.024-8.613,12.858-13.705l0.518-0.93v2.112c-2.529,4.528-5.454,9.454-10.929,12.483h10.929V48.557z"/>
	<path opacity="0.4" fill="#010101" d="M48.605,32.225v10.172v0.517H48.09h-8.178v-1.032h7.661v-9.141h-7.661v-1.032h8.178h0.516
		V32.225z M39.912,42.914h-8.761h-1.128l0.74-0.854c2.218-2.555,3.848-5.48,5.368-8.209c0.376-0.675,0.746-1.34,1.057-1.882
		l0.148-0.26h0.299h2.277v1.032h-1.979c-0.326,0.572-0.614,1.088-0.904,1.61c-1.381,2.479-2.85,5.118-4.779,7.531h7.662V42.914z"/>
	<rect x="30.881" y="41.882" fill="#5D5D5D" width="18.908" height="1.032"/>
	<path fill="#5D5D5D" d="M47.726,37.256v-1.032h2.063v1.032H47.726L47.726,37.256z M32.249,37.256v-1.032h2.063v1.032H32.249
		L32.249,37.256z M37.408,37.256v-1.032h2.063v1.032H37.408L37.408,37.256z M42.566,37.256v-1.032h2.064v1.032H42.566z"/>
	<rect x="30.94" y="31.709" fill="#5D5D5D" width="18.849" height="1.032"/>
	<path fill="#010101" d="M35.244,22.866l-0.054-0.011l-0.009-0.004l-0.319-0.053l-0.009-0.005c-0.071-0.01-0.171-0.023-0.297-0.037
		l-0.008-0.001h-0.004c-0.174-0.018-0.333-0.03-0.474-0.034l-0.125-0.002c-0.138,0-0.289,0.008-0.455,0.025
		c-0.17,0.018-0.32,0.042-0.447,0.072v0c-0.117,0.028-0.231,0.062-0.338,0.102l-0.25-0.052L32.4,22.854l-0.009-0.004l-0.319-0.053
		l-0.009-0.005c-0.073-0.01-0.175-0.023-0.306-0.038h-0.004c-0.228-0.024-0.429-0.036-0.599-0.036c-0.138,0-0.29,0.008-0.455,0.025
		c-0.17,0.018-0.32,0.042-0.447,0.072v0c-0.323,0.076-0.61,0.197-0.854,0.361c-0.105,0.071-0.214,0.155-0.32,0.251
		c-0.096,0.086-0.189,0.185-0.277,0.294c-0.078,0.098-0.155,0.214-0.228,0.342h-0.005c-0.064,0.116-0.124,0.241-0.171,0.371
		c-0.034,0.093-0.065,0.203-0.092,0.326L28.3,24.774c-0.022,0.104-0.041,0.213-0.054,0.322v0.004
		c-0.01,0.084-0.019,0.197-0.025,0.336h0c-0.007,0.154-0.012,0.278-0.012,0.358v0.333h-0.952v0.102
		c-0.168-0.066-0.34-0.118-0.515-0.154h-0.004c-0.237-0.048-0.472-0.073-0.701-0.074h-0.006h-0.002c-0.208,0-0.422,0.02-0.64,0.061
		v0.001c-0.214,0.04-0.421,0.1-0.613,0.177c-0.203,0.081-0.394,0.182-0.571,0.3L24.2,26.546c-0.175,0.117-0.342,0.252-0.496,0.404
		c-0.197,0.194-0.368,0.409-0.509,0.643v0.004c-0.138,0.231-0.253,0.482-0.34,0.75c-0.082,0.249-0.144,0.52-0.185,0.812
		c-0.04,0.284-0.06,0.575-0.06,0.869c0,0.256,0.018,0.523,0.053,0.797c0.033,0.266,0.085,0.516,0.152,0.748
		c0.075,0.255,0.167,0.489,0.277,0.701c0.118,0.229,0.259,0.438,0.418,0.627c0.154,0.183,0.327,0.348,0.514,0.492l0.005,0.004
		c0.187,0.144,0.392,0.267,0.613,0.365l-0.001,0.002c0.277,0.125,0.571,0.215,0.881,0.255c0.167,0.021,0.337,0.031,0.507,0.03h0.008
		c0.266-0.002,0.532-0.031,0.783-0.09c0.045-0.011,0.09-0.022,0.135-0.035c0.001,0-0.001-0.002-0.001-0.003c0,0,0.001,0,0.001,0
		c0.163-0.046,0.312-0.1,0.442-0.159c0.137-0.062,0.276-0.137,0.415-0.225h0.005c0.126-0.08,0.255-0.176,0.384-0.286l0.007-0.006
		v0.773h1.126h0.056h1.074h0.057h0.477h0.649h0.477h0.057h1.074h0.056h0.758h0.368v-1.126v-0.056v-3.504h0.057h0.057h0.005h1.121
		v-1.126v-0.056v-0.839v-0.056v-0.935l0.074,0.014l0.192-1.133l0.009-0.051h0l0.162-0.937h0l0.009-0.054l0.191-1.07L35.244,22.866z
		 M26.237,30.369L26.237,30.369c-0.011,0.104-0.028,0.197-0.048,0.279c-0.012,0.051-0.031,0.104-0.055,0.155v0.004
		c-0.014,0.03-0.026,0.052-0.037,0.066h0.001c-0.018,0.022-0.034,0.041-0.047,0.052l-0.003,0.003l-0.011,0h-0.006h-0.002H26.01
		l-0.007-0.007c-0.012-0.01-0.028-0.029-0.046-0.051l0-0.001c-0.031-0.041-0.062-0.117-0.089-0.226
		c-0.041-0.162-0.062-0.369-0.062-0.619c0-0.147,0.005-0.27,0.016-0.363c0.011-0.103,0.025-0.189,0.042-0.255h0
		c0.016-0.061,0.033-0.114,0.053-0.158l0.002,0c0.013-0.028,0.026-0.052,0.038-0.066c0.016-0.021,0.032-0.039,0.046-0.05
		l0.009-0.005h0.017h0.002h0.006h0.008h0l0.006,0.005l0,0c0.015,0.013,0.03,0.031,0.046,0.053v0.004
		c0.021,0.026,0.035,0.049,0.043,0.066v0.004c0.02,0.041,0.037,0.092,0.052,0.147c0.018,0.068,0.033,0.151,0.043,0.243
		c0.01,0.091,0.015,0.208,0.015,0.345C26.251,30.149,26.246,30.274,26.237,30.369z M34.068,26.074l-0.003,0.001L34.068,26.074
		L34.068,26.074l0.003-0.001L34.068,26.074z M34.555,26.128H34.55h-0.057h-0.057V26.09l0.052,0.005v0l0.067,0.012l0.016,0.002
		l0.056,0.011l0.047,0.009H34.555z"/>
	<g>
		<path fill="#E66161" d="M34.961,23.954c-0.183-0.037-0.362-0.065-0.533-0.083c-0.171-0.018-0.333-0.027-0.485-0.027
			c-0.24,0-0.455,0.022-0.642,0.066c-0.191,0.044-0.354,0.113-0.49,0.203c-0.134,0.089-0.251,0.195-0.346,0.313
			c-0.095,0.119-0.17,0.251-0.224,0.397c-0.039,0.106-0.07,0.242-0.088,0.405c-0.02,0.162-0.03,0.352-0.03,0.566v1.459h-0.363
			h-0.057h-0.476h-0.057h-0.651v-1.37c0-0.188,0.016-0.345,0.048-0.47c0.032-0.121,0.08-0.214,0.14-0.276v0
			c0.06-0.063,0.145-0.111,0.251-0.143c0.109-0.033,0.245-0.05,0.402-0.05c0.1,0,0.203,0.005,0.305,0.015
			c0.103,0.01,0.211,0.025,0.321,0.045l0.055,0.011l0.01-0.057l0.162-0.941l0.009-0.054l-0.053-0.011
			c-0.184-0.037-0.363-0.065-0.533-0.083c-0.171-0.018-0.333-0.027-0.485-0.027c-0.24,0-0.455,0.022-0.642,0.066
			c-0.19,0.044-0.354,0.113-0.49,0.203c-0.134,0.089-0.251,0.195-0.346,0.313c-0.095,0.119-0.17,0.251-0.223,0.397
			c-0.039,0.106-0.07,0.242-0.089,0.405c-0.019,0.162-0.029,0.352-0.029,0.566v1.459h-0.896h-0.056v0.056v0.839v0.056h0.056h0.896
			v4.63v0.056h0.056h1.074h0.057v-0.056v-4.63h0.651h0.057h0.476h0.057h0.363v4.63v0.056h0.057h1.074h0.056v-0.056v-4.63h1.183
			h0.057v-0.056v-0.839v-0.056h-0.057H33.31v-1.37c0-0.188,0.017-0.345,0.049-0.47c0.032-0.121,0.079-0.214,0.14-0.276v0
			c0.06-0.063,0.145-0.111,0.251-0.143c0.109-0.033,0.245-0.05,0.402-0.05c0.101,0,0.203,0.005,0.305,0.015
			c0.103,0.01,0.211,0.025,0.321,0.045l0.056,0.011l0.01-0.057l0.161-0.941l0.01-0.054L34.961,23.954z"/>
		<path fill="#E66161" d="M28.163,28.78c-0.105-0.346-0.266-0.644-0.479-0.895c-0.213-0.252-0.459-0.441-0.733-0.567
			c-0.276-0.126-0.583-0.189-0.919-0.189h-0.002c-0.301,0-0.58,0.052-0.836,0.155c-0.258,0.104-0.493,0.26-0.702,0.465
			c-0.252,0.249-0.443,0.564-0.568,0.945c-0.125,0.378-0.188,0.823-0.188,1.333c0,0.464,0.053,0.876,0.157,1.233
			c0.105,0.36,0.264,0.666,0.475,0.914c0.211,0.25,0.458,0.44,0.735,0.565c0.276,0.125,0.586,0.188,0.926,0.188h0.002
			c0.212,0,0.419-0.029,0.616-0.086v0c0.197-0.056,0.386-0.143,0.567-0.256c0.18-0.114,0.34-0.251,0.478-0.41
			c0.137-0.161,0.253-0.344,0.348-0.549c0.188-0.407,0.281-0.967,0.281-1.676C28.321,29.515,28.269,29.124,28.163,28.78z
			 M27.279,30.916c-0.064,0.258-0.162,0.472-0.289,0.639c-0.128,0.167-0.273,0.293-0.433,0.376
			c-0.159,0.083-0.335,0.125-0.526,0.125h-0.002c-0.193,0-0.369-0.042-0.527-0.124c-0.16-0.082-0.304-0.208-0.433-0.375v-0.001
			c-0.258-0.335-0.389-0.846-0.389-1.53c0-0.342,0.033-0.643,0.098-0.899c0.064-0.251,0.161-0.461,0.291-0.628
			c0.128-0.166,0.273-0.291,0.433-0.373c0.158-0.081,0.335-0.123,0.527-0.123h0.002c0.19,0,0.366,0.042,0.523,0.124
			c0.158,0.081,0.303,0.207,0.432,0.374c0.13,0.167,0.228,0.375,0.292,0.622c0.065,0.249,0.098,0.541,0.098,0.874
			C27.377,30.347,27.344,30.654,27.279,30.916z"/>
	</g>
	<path fill="#010101" d="M34.786,38.467l-0.003-0.289v-0.025l-0.008-0.258v-0.04l-0.014-0.197l-0.009-0.065l-0.021-0.162H34.73
		l-0.007-0.063c-0.022-0.125-0.043-0.219-0.062-0.285H34.66c-0.021-0.08-0.051-0.17-0.086-0.265l-0.002-0.011
		c-0.027-0.074-0.068-0.167-0.115-0.264l-0.005-0.009c-0.048-0.098-0.096-0.184-0.14-0.256l0,0c-0.122-0.196-0.276-0.375-0.46-0.532
		c-0.088-0.075-0.181-0.146-0.276-0.207c-0.088-0.057-0.187-0.113-0.295-0.165l-0.001,0.002c-0.102-0.05-0.205-0.094-0.305-0.129
		l0-0.001c-0.098-0.035-0.21-0.066-0.331-0.092l-0.009-0.005c-0.097-0.021-0.205-0.039-0.322-0.051v0
		c-0.125-0.014-0.238-0.021-0.338-0.021c-0.252,0-0.505,0.033-0.759,0.097L31.122,35.2h-0.609h-0.057h-0.728h-0.056h-1.126v1.067
		l-0.028-0.034c-0.155-0.184-0.328-0.349-0.514-0.493c-0.188-0.146-0.393-0.269-0.611-0.369c-0.218-0.099-0.445-0.173-0.674-0.221
		h-0.004c-0.237-0.049-0.472-0.074-0.701-0.074h-0.006h-0.002c-0.208,0-0.423,0.021-0.64,0.061v0.001
		c-0.214,0.04-0.421,0.1-0.613,0.177c-0.203,0.081-0.394,0.182-0.571,0.299l-0.004,0.004c-0.175,0.117-0.342,0.252-0.496,0.404
		c-0.197,0.194-0.367,0.409-0.508,0.644v0.004c-0.139,0.231-0.254,0.482-0.341,0.75c-0.082,0.25-0.144,0.521-0.185,0.813
		c-0.04,0.283-0.06,0.574-0.06,0.868c0,0.257,0.018,0.522,0.053,0.797c0.033,0.266,0.085,0.517,0.152,0.749
		c0.075,0.254,0.167,0.488,0.277,0.7c0.119,0.229,0.259,0.438,0.418,0.627c0.154,0.183,0.327,0.348,0.514,0.493l0.005,0.004
		c0.187,0.143,0.392,0.266,0.612,0.365l0,0.002c0.277,0.125,0.571,0.219,0.881,0.254c0.17,0.02,0.339,0.027,0.507,0.025h0.008
		c0.265-0.003,0.526-0.032,0.783-0.085c0.045-0.009,0.09-0.022,0.135-0.035c0.001,0-0.001-0.002-0.001-0.003
		s0.001-0.001,0.001-0.001c0.163-0.046,0.311-0.1,0.442-0.159c0.137-0.062,0.276-0.137,0.415-0.225h0.005
		c0.126-0.08,0.255-0.176,0.384-0.285c0.123-0.106,0.239-0.223,0.344-0.346l0.024-0.029v1.055h1.126h0.056h0.81h0.056h1.022h0.104
		h1.022h0.056h0.811h0.056h1.126v-1.125v-0.057v-3.346L34.786,38.467z M26.213,39.441L26.213,39.441
		c-0.011,0.104-0.028,0.197-0.048,0.279c-0.012,0.051-0.031,0.104-0.055,0.154v0.004c-0.014,0.03-0.026,0.053-0.037,0.067h0
		c-0.018,0.022-0.034,0.041-0.047,0.052l-0.003,0.004h-0.011h-0.006h-0.002h-0.019l-0.007-0.008
		c-0.012-0.01-0.028-0.027-0.046-0.051v-0.002c-0.032-0.039-0.062-0.116-0.089-0.225c-0.041-0.162-0.062-0.369-0.062-0.619
		c0-0.146,0.005-0.27,0.015-0.362c0.012-0.103,0.026-0.189,0.042-0.255h0.001c0.015-0.061,0.034-0.114,0.053-0.158l0.002,0.001
		c0.014-0.028,0.027-0.052,0.038-0.066c0.016-0.021,0.032-0.038,0.046-0.05l0.009-0.006h0.016h0.002h0.006h0.008h0l0.006,0.006
		l0.001-0.001c0.014,0.013,0.03,0.031,0.045,0.052v0.005c0.02,0.025,0.035,0.05,0.043,0.065v0.005
		c0.019,0.041,0.037,0.091,0.052,0.147c0.018,0.068,0.033,0.151,0.043,0.243c0.01,0.091,0.016,0.207,0.016,0.345
		C26.229,39.221,26.223,39.346,26.213,39.441z"/>
	<g>
		<path fill="#A7DCDD" d="M33.654,37.93c-0.007-0.148-0.02-0.27-0.035-0.359l0,0c-0.025-0.134-0.059-0.26-0.102-0.377
			s-0.097-0.226-0.159-0.324c-0.063-0.101-0.141-0.191-0.236-0.273c-0.093-0.08-0.204-0.152-0.329-0.213
			c-0.124-0.061-0.254-0.107-0.39-0.137c-0.137-0.03-0.28-0.045-0.427-0.045c-0.341,0-0.643,0.077-0.905,0.232
			c-0.212,0.125-0.399,0.302-0.559,0.529v-0.582v-0.056h-0.057h-0.728h-0.056v0.056v5.441v0.057h0.056h0.81h0.056v-0.057v-2.971
			c0-0.346,0.031-0.633,0.092-0.864c0.059-0.226,0.148-0.398,0.267-0.517c0.12-0.118,0.251-0.208,0.394-0.268v-0.001
			c0.141-0.06,0.294-0.089,0.459-0.089c0.103,0,0.199,0.014,0.287,0.039c0.087,0.026,0.17,0.066,0.246,0.119
			c0.075,0.052,0.14,0.113,0.19,0.181v0.001c0.052,0.068,0.093,0.147,0.123,0.234c0.03,0.089,0.053,0.202,0.068,0.338
			c0.015,0.137,0.023,0.3,0.023,0.486v3.311v0.057h0.056h0.811h0.056v-0.057v-3.346C33.665,38.262,33.661,38.078,33.654,37.93z"/>
		<path fill="#A7DCDD" d="M27.661,36.958c-0.213-0.252-0.458-0.441-0.733-0.567c-0.276-0.126-0.583-0.189-0.919-0.189h-0.002
			c-0.301,0-0.58,0.052-0.836,0.155c-0.257,0.104-0.493,0.26-0.702,0.466c-0.252,0.248-0.443,0.564-0.568,0.945
			c-0.125,0.379-0.188,0.824-0.188,1.333c0,0.464,0.053,0.876,0.157,1.233c0.105,0.359,0.264,0.665,0.475,0.914
			c0.211,0.25,0.458,0.439,0.735,0.564c0.276,0.125,0.586,0.188,0.926,0.188h0.002c0.212,0,0.419-0.028,0.616-0.085l0,0
			c0.197-0.057,0.386-0.143,0.567-0.256c0.181-0.115,0.34-0.252,0.478-0.411c0.138-0.16,0.253-0.343,0.348-0.549
			c0.187-0.407,0.281-0.968,0.281-1.676c0-0.438-0.053-0.829-0.159-1.172C28.034,37.508,27.873,37.209,27.661,36.958z
			 M27.256,39.988c-0.064,0.258-0.162,0.473-0.29,0.639c-0.128,0.168-0.272,0.293-0.432,0.377c-0.159,0.082-0.335,0.123-0.526,0.123
			h-0.002c-0.193,0-0.369-0.041-0.528-0.123s-0.304-0.208-0.432-0.375c-0.258-0.336-0.389-0.847-0.389-1.531
			c0-0.342,0.033-0.643,0.099-0.898h-0.001c0.064-0.251,0.162-0.461,0.291-0.629c0.128-0.164,0.273-0.29,0.433-0.372
			c0.158-0.081,0.335-0.123,0.527-0.123h0.002c0.191,0,0.366,0.042,0.524,0.124c0.158,0.081,0.303,0.207,0.431,0.373
			c0.13,0.168,0.228,0.375,0.293,0.623c0.065,0.248,0.099,0.541,0.099,0.873C27.354,39.42,27.321,39.727,27.256,39.988z"/>
	</g>
</g>
</svg>
