<?xml version="1.0" encoding="utf-8"?>
<!-- Generator: Adobe Illustrator 15.1.0, SVG Export Plug-In . SVG Version: 6.00 Build 0)  -->
<!DOCTYPE svg PUBLIC "-//W3C//DTD SVG 1.1//EN" "http://www.w3.org/Graphics/SVG/1.1/DTD/svg11.dtd">
<svg version="1.1" id="Layer_1" xmlns="http://www.w3.org/2000/svg" xmlns:xlink="http://www.w3.org/1999/xlink" x="0px" y="0px"
	 width="72px" height="72px" viewBox="0 0 72 72" enable-background="new 0 0 72 72" xml:space="preserve">
<g>
	<polygon fill-rule="evenodd" clip-rule="evenodd" fill="#818181" points="24.381,49.324 48.109,49.324 48.109,48.684 25.1,48.684 	
		"/>
	<path fill="#ED647D" d="M47.895,30.182c1.226-1.229-3.052-5.609-4.332-4.332c-1.074,1.074-2.617,2.617-2.617,2.617l4.331,4.332
		C45.276,32.799,46.774,31.301,47.895,30.182z"/>
	<linearGradient id="SVGID_1_" gradientUnits="userSpaceOnUse" x1="40.3574" y1="28.3325" x2="45.3236" y2="33.4752">
		<stop  offset="0" style="stop-color:#646567"/>
		<stop  offset="0.33" style="stop-color:#FFFFFF"/>
		<stop  offset="0.52" style="stop-color:#FFFFFF"/>
		<stop  offset="0.68" style="stop-color:#595A5C"/>
		<stop  offset="0.84" style="stop-color:#B2B3B6"/>
		<stop  offset="0.93" style="stop-color:#8A8C8E"/>
		<stop  offset="1" style="stop-color:#646567"/>
	</linearGradient>
	<polygon fill="url(#SVGID_1_)" points="46.314,31.76 41.984,27.43 39.365,30.046 43.695,34.378 	"/>
	<linearGradient id="SVGID_2_" gradientUnits="userSpaceOnUse" x1="23.9829" y1="40.0225" x2="32.2329" y2="48.5656">
		<stop  offset="0" style="stop-color:#E4C3A8"/>
		<stop  offset="0.23" style="stop-color:#D6A578"/>
		<stop  offset="0.5" style="stop-color:#E4C3A8"/>
		<stop  offset="0.77" style="stop-color:#D6A578"/>
		<stop  offset="1" style="stop-color:#E4C3A8"/>
	</linearGradient>
	<polygon fill="url(#SVGID_2_)" points="28.95,40.459 33.281,44.79 27.017,47.98 25.734,46.697 	"/>
	<linearGradient id="SVGID_3_" gradientUnits="userSpaceOnUse" x1="23.8433" y1="46.4063" x2="27.7429" y2="49.7962">
		<stop  offset="0" style="stop-color:#424143"/>
		<stop  offset="0.37" style="stop-color:#818285"/>
		<stop  offset="0.45" style="stop-color:#595A5C"/>
		<stop  offset="1" style="stop-color:#231F20"/>
	</linearGradient>
	<path fill="url(#SVGID_3_)" d="M27.778,47.593c-0.603-0.868-1.084-0.599-1.653-1.653c-0.581,1.128-1.163,2.256-1.744,3.385
		C25.513,48.746,26.645,48.17,27.778,47.593z"/>
	<path fill="#D37028" d="M36.063,39.768l6.846-6.842l-0.973-0.973l-1.117-1.118l-6.846,6.843l-3.95,3.951
		c-0.312,0.58-0.22,1.322,0.274,1.816c0.491,0.491,1.229,0.585,1.808,0.277L36.063,39.768z"/>
	<linearGradient id="SVGID_4_" gradientUnits="userSpaceOnUse" x1="38.7773" y1="40.5576" x2="39.874" y2="41.6933">
		<stop  offset="0" style="stop-color:#FFCA0B"/>
		<stop  offset="1" style="stop-color:#D26B28"/>
	</linearGradient>
	<path fill="url(#SVGID_4_)" d="M30.019,41.637l4.761-4.765l6.039-6.038l-1.119-1.121l-5.373,5.374
		c-1.792,1.791-3.583,3.581-5.376,5.372C28.063,41.686,28.517,42.518,30.019,41.637z"/>
	<linearGradient id="SVGID_5_" gradientUnits="userSpaceOnUse" x1="45.7598" y1="27.9131" x2="46.5856" y2="27.1155">
		<stop  offset="0" style="stop-color:#ED5E77"/>
		<stop  offset="1" style="stop-color:#FFFFFF"/>
	</linearGradient>
	<path fill="url(#SVGID_5_)" d="M43.863,25.871c0.259,0.624,1.191,1.492,1.813,2.11c0.627,0.628,1.495,1.573,2.123,1.836
		c0.173-0.545-0.559-1.806-1.348-2.597C45.664,26.434,44.408,25.704,43.863,25.871z"/>
	<linearGradient id="SVGID_6_" gradientUnits="userSpaceOnUse" x1="40.8301" y1="42.4639" x2="42.2641" y2="43.8979">
		<stop  offset="0" style="stop-color:#8F3E1F"/>
		<stop  offset="1" style="stop-color:#9E4823"/>
	</linearGradient>
	<path fill="url(#SVGID_6_)" d="M32.104,43.722l4.764-4.761l6.039-6.039l1.121,1.119l-5.373,5.374
		c-1.791,1.792-3.583,3.584-5.374,5.376C32.055,45.677,31.224,45.224,32.104,43.722z"/>
	<g>
		<linearGradient id="SVGID_7_" gradientUnits="userSpaceOnUse" x1="45.8818" y1="34.5591" x2="40.9612" y2="29.4636">
			<stop  offset="0" style="stop-color:#646567"/>
			<stop  offset="0.33" style="stop-color:#FFFFFF"/>
			<stop  offset="0.52" style="stop-color:#FFFFFF"/>
			<stop  offset="0.68" style="stop-color:#595A5C"/>
			<stop  offset="0.84" style="stop-color:#B2B3B6"/>
			<stop  offset="0.93" style="stop-color:#8A8C8E"/>
			<stop  offset="1" style="stop-color:#646567"/>
		</linearGradient>
		<polygon opacity="0.4" fill="url(#SVGID_7_)" points="40.309,29.103 44.641,33.434 44.874,33.201 40.543,28.869 		"/>
		<linearGradient id="SVGID_8_" gradientUnits="userSpaceOnUse" x1="46.3477" y1="34.0918" x2="41.4278" y2="28.9971">
			<stop  offset="0" style="stop-color:#646567"/>
			<stop  offset="0.33" style="stop-color:#FFFFFF"/>
			<stop  offset="0.52" style="stop-color:#FFFFFF"/>
			<stop  offset="0.68" style="stop-color:#595A5C"/>
			<stop  offset="0.84" style="stop-color:#B2B3B6"/>
			<stop  offset="0.93" style="stop-color:#8A8C8E"/>
			<stop  offset="1" style="stop-color:#646567"/>
		</linearGradient>
		<polygon opacity="0.4" fill="url(#SVGID_8_)" points="40.776,28.637 45.107,32.967 45.341,32.735 41.01,28.402 		"/>
		<linearGradient id="SVGID_9_" gradientUnits="userSpaceOnUse" x1="46.8818" y1="33.6958" x2="41.8256" y2="28.4599">
			<stop  offset="0" style="stop-color:#646567"/>
			<stop  offset="0.33" style="stop-color:#FFFFFF"/>
			<stop  offset="0.52" style="stop-color:#FFFFFF"/>
			<stop  offset="0.68" style="stop-color:#595A5C"/>
			<stop  offset="0.84" style="stop-color:#B2B3B6"/>
			<stop  offset="0.93" style="stop-color:#8A8C8E"/>
			<stop  offset="1" style="stop-color:#646567"/>
		</linearGradient>
		<polygon opacity="0.4" fill="url(#SVGID_9_)" points="41.243,28.17 45.573,32.501 45.807,32.269 41.477,27.937 		"/>
	</g>
</g>
</svg>
