<?xml version="1.0" encoding="UTF-8" standalone="no"?>
<!-- Generator: Adobe Illustrator 15.1.0, SVG Export Plug-In . SVG Version: 6.00 Build 0)  -->

<svg
   xmlns:dc="http://purl.org/dc/elements/1.1/"
   xmlns:cc="http://creativecommons.org/ns#"
   xmlns:rdf="http://www.w3.org/1999/02/22-rdf-syntax-ns#"
   xmlns:svg="http://www.w3.org/2000/svg"
   xmlns="http://www.w3.org/2000/svg"
   xmlns:sodipodi="http://sodipodi.sourceforge.net/DTD/sodipodi-0.dtd"
   xmlns:inkscape="http://www.inkscape.org/namespaces/inkscape"
   version="1.1"
   id="Layer_1"
   x="0px"
   y="0px"
   width="72px"
   height="72px"
   viewBox="0 0 72 72"
   enable-background="new 0 0 72 72"
   xml:space="preserve"
   inkscape:version="0.48.4 r9939"
   sodipodi:docname="ProportionalReverseTrue.svg"><metadata
   id="metadata21"><rdf:RDF><cc:Work
       rdf:about=""><dc:format>image/svg+xml</dc:format><dc:type
         rdf:resource="http://purl.org/dc/dcmitype/StillImage" /><dc:title></dc:title></cc:Work></rdf:RDF></metadata><defs
   id="defs19" /><sodipodi:namedview
   pagecolor="#ffffff"
   bordercolor="#666666"
   borderopacity="1"
   objecttolerance="10"
   gridtolerance="10"
   guidetolerance="10"
   inkscape:pageopacity="0"
   inkscape:pageshadow="2"
   inkscape:window-width="1600"
   inkscape:window-height="837"
   id="namedview17"
   showgrid="false"
   inkscape:zoom="3.2777778"
   inkscape:cx="40.576271"
   inkscape:cy="36"
   inkscape:window-x="-9"
   inkscape:window-y="-9"
   inkscape:window-maximized="1"
   inkscape:current-layer="g3"
   inkscape:object-nodes="true" />
<g
   id="g3">
	<path
   d="m 35.482,33.189 8.52,-10e-4 0,-0.287 0,-1.284 0,-2.073 1.557,1.37 1.693,1.488 1.637,1.438 0.949,0.569 -0.186,0.185 0.045,0.044 -0.752,0.66 -1.693,1.489 -1.693,1.489 -1.557,1.37 0,-2.073 0,-1.285 0,-0.289 -8.52,0 0,5.04 0,0.506 -0.429,0.279 -0.852373,-3.043712 0.406254,0.332 L 24.234,31.992 l 9.8,-6.387 1.448,-0.943 0,1.728 0,6.799 z m -1.877,1.87 0,-0.928 0,-0.007 0,-6.007 -8.434,5.497 8.847458,5.094966 L 33.605,40.534 l 0,-5.47 0,-0.005 z m 12.273,-0.933 0,0.934 0,0.004 0,0.434 0.136,-0.119 0.893,-0.785 -0.893,-0.785 -0.136,-0.118 0,0.433 z"
   id="path5"
   inkscape:connector-curvature="0"
   style="fill:#8e782d"
   sodipodi:nodetypes="cccccccccccccccccccccccccccccccccccccccccccccccccc" />
	<path
   style="fill:#c3a02e"
   d="m 34.520254,34.119 0,-7.735 -10.31,6.719 10.31,7.931 0,0 0,-5.975 9.929,0 0.467001,0 0,0.468 0,0.755 0,1.285 1.693999,-1.489 1.693,-1.489 0,0 0,-10e-4 -0.002,-10e-4 -1.691,-1.487 -1.693999,-1.488 0,1.284 0,0.755 0,0.468 -0.467001,-10e-4 z"
   id="polygon7"
   inkscape:connector-curvature="0"
   sodipodi:nodetypes="ccccccccccccccccccccccc" />
	<path
   fill="#010101"
   d="M24.233,31.059l7.548-4.606l-0.149-0.245l-0.79-1.293l1.511-0.128l3.772-0.319l1.865-0.157l-0.993,1.587   l-2.008,3.209l-0.804,1.286l-0.79-1.293l-0.15-0.245l-9.013,5.5V31.059L24.233,31.059z M34.205,26.83l0.21-0.336l-0.395,0.034   L34.205,26.83z"
   id="path9" />
	<polygon
   points="32.668,27.008 24.233,32.155 24.233,33.258 33.159,27.811 33.558,27.567 33.801,27.967    34.195,28.611 36.204,25.401 32.431,25.721 32.824,26.365 33.068,26.764  "
   id="polygon11"
   fill="#FFFFFF" />
	
	
<path
   id="path2989"
   d="M24.233,31.059l7.548-4.606l-0.149-0.245l-0.79-1.293l1.511-0.128l3.772-0.319l1.865-0.157l-0.993,1.587   l-2.008,3.209l-0.804,1.286l-0.79-1.293l-0.15-0.245l-9.013,5.5V31.059L24.233,31.059z M34.205,26.83l0.21-0.336l-0.395,0.034   L34.205,26.83z"
   fill="#010101" /><polygon
   id="polygon2991"
   points="32.668,27.008 24.233,32.155 24.233,33.258 33.159,27.811 33.558,27.567 33.801,27.967    34.195,28.611 36.204,25.401 32.431,25.721 32.824,26.365 33.068,26.764  "
   fill="#FFFFFF" /><path
   id="path2993"
   d="m 26.821256,33.686403 7.201364,5.131071 0.166748,-0.233283 0.878588,-1.234517 0.711421,1.339173 1.775472,3.343269 0.877186,1.653306 -1.849534,-0.289553 -3.739898,-0.585584 -1.498481,-0.234026 0.878588,-1.234517 0.166355,-0.234203 -8.5991,-6.126961 3.030898,-1.295095 3.93e-4,9.2e-4 z m 7.807148,7.50824 0.39149,0.06108 -0.186472,-0.34987 -0.205018,0.288785 z"
   inkscape:connector-curvature="0"
   style="fill:#010101" /><polygon
   id="polygon2995"
   points="33.558,27.567 33.801,27.967 34.195,28.611 36.204,25.401 32.431,25.721 32.824,26.365 33.068,26.764 32.668,27.008 24.233,32.155 24.233,33.258 33.159,27.811 "
   transform="matrix(0.39292936,0.91956866,-0.91956866,0.39292936,45.860282,-0.801497)"
   style="fill:#ffffff" /><g
   transform="matrix(0.37551183,0,0,0.41482961,28.730964,25.183915)"
   id="g5"><path
     style="fill:#865923;fill-rule:evenodd"
     inkscape:connector-curvature="0"
     clip-rule="evenodd"
     d="m 31.986,44.679 c 4.659,0 8.459,-3.8 8.459,-8.459 0,-4.659 -3.8,-8.459 -8.459,-8.459 -4.659,0 -8.46,3.8 -8.46,8.459 0,4.659 3.801,8.459 8.46,8.459 z"
     id="path7" /><path
     style="fill:#d37028;fill-rule:evenodd"
     inkscape:connector-curvature="0"
     clip-rule="evenodd"
     d="m 31.986,43.271 c 3.885,0 7.053,-3.168 7.053,-7.052 0,-3.884 -3.168,-7.052 -7.053,-7.052 -3.884,0 -7.053,3.168 -7.053,7.052 0,3.884 3.17,7.052 7.053,7.052 z"
     id="path9-1" /><path
     style="fill:#ffffff;fill-rule:evenodd"
     inkscape:connector-curvature="0"
     clip-rule="evenodd"
     d="m 31.986,41.921 c 3.141,0 5.703,-2.562 5.703,-5.702 0,-3.141 -2.563,-5.702 -5.703,-5.702 -3.14,0 -5.701,2.562 -5.701,5.702 0,3.14 2.561,5.702 5.701,5.702 z"
     id="path11" /><g
     id="g13"><path
       style="fill:#010101;fill-rule:evenodd"
       inkscape:connector-curvature="0"
       clip-rule="evenodd"
       d="m 29.168,31.889 1.692,1.981 1.693,1.98 h 0.001 c 0.203,0.313 0.115,0.73 -0.198,0.934 -0.313,0.204 -0.73,0.116 -0.935,-0.197 l -0.003,0.002 -1.126,-2.351 -1.124,-2.349 z"
       id="path15" /><circle
       d="m 32.265,36.219002 c 0,0.153535 -0.124465,0.278 -0.278,0.278 -0.153536,0 -0.278,-0.124465 -0.278,-0.278 0,-0.153535 0.124464,-0.278 0.278,-0.278 0.153535,0 0.278,0.124465 0.278,0.278 z"
       style="opacity:0.4;fill:#010101;fill-rule:evenodd"
       sodipodi:ry="0.278"
       sodipodi:rx="0.278"
       sodipodi:cy="36.219002"
       sodipodi:cx="31.987"
       clip-rule="evenodd"
       cx="31.987"
       cy="36.219002"
       r="0.278"
       id="circle17" /></g><path
     style="fill:#010101;fill-rule:evenodd"
     inkscape:connector-curvature="0"
     clip-rule="evenodd"
     d="m 31.986,30.517 c 0.208,0 0.414,0.011 0.615,0.033 v 1.05 h -1.23 v -1.05 c 0.201,-0.022 0.408,-0.033 0.615,-0.033 z"
     id="path19" /><path
     style="fill:#010101;fill-rule:evenodd"
     inkscape:connector-curvature="0"
     clip-rule="evenodd"
     d="m 31.986,41.922 c 0.208,0 0.414,-0.012 0.615,-0.033 v -1.051 h -1.23 v 1.051 c 0.201,0.021 0.408,0.033 0.615,0.033 z"
     id="path21" /><path
     style="fill:#010101;fill-rule:evenodd"
     inkscape:connector-curvature="0"
     clip-rule="evenodd"
     d="m 26.284,36.219 c 0,-0.208 0.011,-0.413 0.032,-0.615 h 1.051 v 1.231 h -1.051 c -0.021,-0.202 -0.032,-0.408 -0.032,-0.616 z"
     id="path23" /><path
     style="fill:#010101;fill-rule:evenodd"
     inkscape:connector-curvature="0"
     clip-rule="evenodd"
     d="m 37.689,36.219 c 0,0.208 -0.012,0.414 -0.033,0.616 h -1.051 v -1.231 h 1.051 c 0.022,0.202 0.033,0.408 0.033,0.615 z"
     id="path25" /><path
     style="fill:#010101;fill-rule:evenodd"
     inkscape:connector-curvature="0"
     clip-rule="evenodd"
     d="m 29.96,39.832 0.776,-1.939 0.776,-1.939 0,0 c 0.146,-0.261 0.476,-0.354 0.737,-0.208 0.261,0.146 0.354,0.476 0.207,0.737 l 0.003,0 -1.251,1.674 -1.248,1.675 z"
     id="path27" /></g></g>
</svg>