<?xml version="1.0" encoding="UTF-8" standalone="no"?>
<!-- Generator: Adobe Illustrator 15.1.0, SVG Export Plug-In . SVG Version: 6.00 Build 0)  -->

<svg
   xmlns:dc="http://purl.org/dc/elements/1.1/"
   xmlns:cc="http://creativecommons.org/ns#"
   xmlns:rdf="http://www.w3.org/1999/02/22-rdf-syntax-ns#"
   xmlns:svg="http://www.w3.org/2000/svg"
   xmlns="http://www.w3.org/2000/svg"
   xmlns:sodipodi="http://sodipodi.sourceforge.net/DTD/sodipodi-0.dtd"
   xmlns:inkscape="http://www.inkscape.org/namespaces/inkscape"
   version="1.1"
   id="Layer_1"
   x="0px"
   y="0px"
   width="72px"
   height="72px"
   viewBox="0 0 72 72"
   enable-background="new 0 0 72 72"
   xml:space="preserve"
   inkscape:version="0.48.4 r9939"
   sodipodi:docname="ProportionalReverseFalse.svg"><metadata
   id="metadata21"><rdf:RDF><cc:Work
       rdf:about=""><dc:format>image/svg+xml</dc:format><dc:type
         rdf:resource="http://purl.org/dc/dcmitype/StillImage" /><dc:title></dc:title></cc:Work></rdf:RDF></metadata><defs
   id="defs19" /><sodipodi:namedview
   pagecolor="#ffffff"
   bordercolor="#666666"
   borderopacity="1"
   objecttolerance="10"
   gridtolerance="10"
   guidetolerance="10"
   inkscape:pageopacity="0"
   inkscape:pageshadow="2"
   inkscape:window-width="1600"
   inkscape:window-height="837"
   id="namedview17"
   showgrid="false"
   inkscape:zoom="3.2777778"
   inkscape:cx="36"
   inkscape:cy="36"
   inkscape:window-x="-9"
   inkscape:window-y="-9"
   inkscape:window-maximized="1"
   inkscape:current-layer="Layer_1" />
<g
   id="g3">
	<path
   fill="#8E782D"
   d="M35.482,33.189l8.52-0.001v-0.287v-1.284v-2.073l1.557,1.37l1.693,1.488l1.637,1.438l0.949,0.569   l-0.186,0.185l0.045,0.044l-0.752,0.66l-1.693,1.489l-1.693,1.489l-1.557,1.37v-2.073v-1.285v-0.289l-8.52,0v5.04v0.506   l-0.429,0.279l-10.31,6.719l-0.509,0.332V31.992l9.8-6.387l1.448-0.943v1.728V33.189L35.482,33.189z M33.605,35.059v-0.928v-0.007   v-6.007l-8.434,5.497v12.417l8.434-5.497v-5.47V35.059L33.605,35.059z M45.878,34.126v0.934v0.004v0.434l0.136-0.119l0.893-0.785   l-0.893-0.785l-0.136-0.118v0.433V34.126z"
   id="path5" />
	<polygon
   fill="#C3A02E"
   points="44.472,34.123 34.543,34.124 34.543,26.389 24.233,33.108 24.233,47.759 34.543,41.039    34.543,35.064 44.472,35.064 44.939,35.064 44.939,35.532 44.939,36.287 44.939,37.572 46.633,36.083 48.326,34.594 48.326,34.594    48.326,34.593 48.324,34.592 46.633,33.105 44.939,31.617 44.939,32.901 44.939,33.656 44.939,34.124  "
   id="polygon7" />
	<path
   fill="#010101"
   d="M24.233,31.059l7.548-4.606l-0.149-0.245l-0.79-1.293l1.511-0.128l3.772-0.319l1.865-0.157l-0.993,1.587   l-2.008,3.209l-0.804,1.286l-0.79-1.293l-0.15-0.245l-9.013,5.5V31.059L24.233,31.059z M34.205,26.83l0.21-0.336l-0.395,0.034   L34.205,26.83z"
   id="path9" />
	<polygon
   fill="#FFFFFF"
   points="32.668,27.008 24.233,32.155 24.233,33.258 33.159,27.811 33.558,27.567 33.801,27.967    34.195,28.611 36.204,25.401 32.431,25.721 32.824,26.365 33.068,26.764  "
   id="polygon11" />
	<path
   fill="#010101"
   d="M24.233,45.921l7.548-4.607l-0.149-0.245l-0.79-1.293l1.511-0.128l3.772-0.319l1.865-0.157l-0.993,1.587   l-2.008,3.209l-0.804,1.286l-0.79-1.294l-0.15-0.244l-9.013,5.5V45.921L24.233,45.921z M34.205,41.691l0.21-0.336l-0.395,0.033   L34.205,41.691z"
   id="path13" />
	<polygon
   fill="#FFFFFF"
   points="32.668,41.869 24.233,47.017 24.233,48.119 33.159,42.672 33.558,42.429 33.801,42.828    34.195,43.473 36.204,40.263 32.431,40.582 32.824,41.226 33.068,41.625  "
   id="polygon15" />
</g>
<g
   transform="matrix(0.46567223,0,0,0.50499533,26.444224,25.895509)"
   id="g5"><path
     style="fill:#865923;fill-rule:evenodd"
     inkscape:connector-curvature="0"
     clip-rule="evenodd"
     d="m 31.986,44.679 c 4.659,0 8.459,-3.8 8.459,-8.459 0,-4.659 -3.8,-8.459 -8.459,-8.459 -4.659,0 -8.46,3.8 -8.46,8.459 0,4.659 3.801,8.459 8.46,8.459 z"
     id="path7" /><path
     style="fill:#d37028;fill-rule:evenodd"
     inkscape:connector-curvature="0"
     clip-rule="evenodd"
     d="m 31.986,43.271 c 3.885,0 7.053,-3.168 7.053,-7.052 0,-3.884 -3.168,-7.052 -7.053,-7.052 -3.884,0 -7.053,3.168 -7.053,7.052 0,3.884 3.17,7.052 7.053,7.052 z"
     id="path9-1" /><path
     style="fill:#ffffff;fill-rule:evenodd"
     inkscape:connector-curvature="0"
     clip-rule="evenodd"
     d="m 31.986,41.921 c 3.141,0 5.703,-2.562 5.703,-5.702 0,-3.141 -2.563,-5.702 -5.703,-5.702 -3.14,0 -5.701,2.562 -5.701,5.702 0,3.14 2.561,5.702 5.701,5.702 z"
     id="path11" /><g
     id="g13"><path
       style="fill:#010101;fill-rule:evenodd"
       inkscape:connector-curvature="0"
       clip-rule="evenodd"
       d="m 29.168,31.889 1.692,1.981 1.693,1.98 h 0.001 c 0.203,0.313 0.115,0.73 -0.198,0.934 -0.313,0.204 -0.73,0.116 -0.935,-0.197 l -0.003,0.002 -1.126,-2.351 -1.124,-2.349 z"
       id="path15" /><circle
       d="m 32.265,36.219002 c 0,0.153535 -0.124465,0.278 -0.278,0.278 -0.153536,0 -0.278,-0.124465 -0.278,-0.278 0,-0.153535 0.124464,-0.278 0.278,-0.278 0.153535,0 0.278,0.124465 0.278,0.278 z"
       style="opacity:0.4;fill:#010101;fill-rule:evenodd"
       sodipodi:ry="0.278"
       sodipodi:rx="0.278"
       sodipodi:cy="36.219002"
       sodipodi:cx="31.987"
       clip-rule="evenodd"
       cx="31.987"
       cy="36.219002"
       r="0.278"
       id="circle17" /></g><path
     style="fill:#010101;fill-rule:evenodd"
     inkscape:connector-curvature="0"
     clip-rule="evenodd"
     d="m 31.986,30.517 c 0.208,0 0.414,0.011 0.615,0.033 v 1.05 h -1.23 v -1.05 c 0.201,-0.022 0.408,-0.033 0.615,-0.033 z"
     id="path19" /><path
     style="fill:#010101;fill-rule:evenodd"
     inkscape:connector-curvature="0"
     clip-rule="evenodd"
     d="m 31.986,41.922 c 0.208,0 0.414,-0.012 0.615,-0.033 v -1.051 h -1.23 v 1.051 c 0.201,0.021 0.408,0.033 0.615,0.033 z"
     id="path21" /><path
     style="fill:#010101;fill-rule:evenodd"
     inkscape:connector-curvature="0"
     clip-rule="evenodd"
     d="m 26.284,36.219 c 0,-0.208 0.011,-0.413 0.032,-0.615 h 1.051 v 1.231 h -1.051 c -0.021,-0.202 -0.032,-0.408 -0.032,-0.616 z"
     id="path23" /><path
     style="fill:#010101;fill-rule:evenodd"
     inkscape:connector-curvature="0"
     clip-rule="evenodd"
     d="m 37.689,36.219 c 0,0.208 -0.012,0.414 -0.033,0.616 h -1.051 v -1.231 h 1.051 c 0.022,0.202 0.033,0.408 0.033,0.615 z"
     id="path25" /><path
     style="fill:#010101;fill-rule:evenodd"
     inkscape:connector-curvature="0"
     clip-rule="evenodd"
     d="m 29.96,39.832 0.776,-1.939 0.776,-1.939 0,0 c 0.146,-0.261 0.476,-0.354 0.737,-0.208 0.261,0.146 0.354,0.476 0.207,0.737 l 0.003,0 -1.251,1.674 -1.248,1.675 z"
     id="path27" /></g></svg>