<?xml version="1.0" encoding="utf-8"?>
<!-- Generator: Adobe Illustrator 15.1.0, SVG Export Plug-In . SVG Version: 6.00 Build 0)  -->
<!DOCTYPE svg PUBLIC "-//W3C//DTD SVG 1.1//EN" "http://www.w3.org/Graphics/SVG/1.1/DTD/svg11.dtd">
<svg version="1.1" id="Layer_1" xmlns="http://www.w3.org/2000/svg" xmlns:xlink="http://www.w3.org/1999/xlink" x="0px" y="0px"
	 width="72px" height="72px" viewBox="0 0 72 72" enable-background="new 0 0 72 72" xml:space="preserve">
<g>
	<path fill="#57652D" d="M25.547,33.428h7.865v-7.865c0-0.403,0.17-0.769,0.448-1.034c0.258-0.246,0.613-0.403,1.002-0.403h3.257
		c0.389,0,0.744,0.156,1.003,0.403c0.276,0.265,0.447,0.631,0.447,1.034v7.865h7.864c0.401,0,0.77,0.17,1.033,0.447
		c0.247,0.259,0.404,0.614,0.404,1.003v3.256c0,0.389-0.156,0.744-0.404,1.003c-0.264,0.277-0.632,0.447-1.033,0.447h-7.864v7.865
		c0,0.4-0.17,0.769-0.447,1.033c-0.259,0.247-0.614,0.402-1.003,0.402h-3.257c-0.389,0-0.744-0.156-1.002-0.402
		c-0.278-0.265-0.448-0.633-0.448-1.033v-7.865h-7.865c-0.402,0-0.769-0.17-1.033-0.447c-0.248-0.259-0.403-0.614-0.403-1.003
		v-3.256c0-0.389,0.157-0.744,0.403-1.003C24.778,33.599,25.145,33.428,25.547,33.428z"/>
	<linearGradient id="SVGID_1_" gradientUnits="userSpaceOnUse" x1="36.4902" y1="34.48" x2="36.4902" y2="38.5314">
		<stop  offset="0" style="stop-color:#A3AF5D"/>
		<stop  offset="1" style="stop-color:#84904E"/>
	</linearGradient>
	<path fill-rule="evenodd" clip-rule="evenodd" fill="url(#SVGID_1_)" d="M25.547,34.554h8.991v-8.991
		c0-0.171,0.146-0.311,0.324-0.311h3.257c0.18,0,0.324,0.14,0.324,0.311v8.991h8.99c0.172,0,0.311,0.145,0.311,0.324v3.256
		c0,0.18-0.139,0.324-0.311,0.324h-8.99v8.991c0,0.17-0.145,0.31-0.324,0.31h-3.257c-0.178,0-0.324-0.14-0.324-0.31v-8.991h-8.991
		c-0.17,0-0.311-0.145-0.311-0.324v-3.256C25.237,34.699,25.377,34.554,25.547,34.554z"/>
</g>
</svg>
