<?xml version="1.0" encoding="utf-8"?>
<!-- Generator: Adobe Illustrator 15.1.0, SVG Export Plug-In . SVG Version: 6.00 Build 0)  -->
<!DOCTYPE svg PUBLIC "-//W3C//DTD SVG 1.1//EN" "http://www.w3.org/Graphics/SVG/1.1/DTD/svg11.dtd">
<svg version="1.1" id="Layer_1" xmlns="http://www.w3.org/2000/svg" xmlns:xlink="http://www.w3.org/1999/xlink" x="0px" y="0px"
	 width="72px" height="72px" viewBox="0 0 72 72" enable-background="new 0 0 72 72" xml:space="preserve">
<g>
	<path fill="#8E782D" d="M35.482,33.189l8.52-0.001v-0.287v-1.284v-2.073l1.557,1.37l1.693,1.488l1.637,1.438l0.949,0.569
		l-0.186,0.185l0.045,0.044l-0.752,0.66l-1.693,1.489l-1.693,1.489l-1.557,1.37v-2.073v-1.285v-0.289l-8.52,0v5.04v0.506
		l-0.429,0.279l-10.31,6.719l-0.509,0.332V31.992l9.8-6.387l1.448-0.943v1.728V33.189L35.482,33.189z M33.605,35.059v-0.928v-0.007
		v-6.007l-8.434,5.497v12.417l8.434-5.497v-5.47V35.059L33.605,35.059z M45.878,34.126v0.934v0.004v0.434l0.136-0.119l0.893-0.785
		l-0.893-0.785l-0.136-0.118v0.433V34.126z"/>
	<polygon fill="#C3A02E" points="44.472,34.123 34.543,34.124 34.543,26.389 24.233,33.108 24.233,47.759 34.543,41.039 
		34.543,35.064 44.472,35.064 44.939,35.064 44.939,35.532 44.939,36.287 44.939,37.572 46.633,36.083 48.326,34.594 48.326,34.594 
		48.326,34.593 48.324,34.592 46.633,33.105 44.939,31.617 44.939,32.901 44.939,33.656 44.939,34.124 	"/>
	<path fill="#010101" d="M24.233,31.059l7.548-4.606l-0.149-0.245l-0.79-1.293l1.511-0.128l3.772-0.319l1.865-0.157l-0.993,1.587
		l-2.008,3.209l-0.804,1.286l-0.79-1.293l-0.15-0.245l-9.013,5.5V31.059L24.233,31.059z M34.205,26.83l0.21-0.336l-0.395,0.034
		L34.205,26.83z"/>
	<polygon fill="#FFFFFF" points="32.668,27.008 24.233,32.155 24.233,33.258 33.159,27.811 33.558,27.567 33.801,27.967 
		34.195,28.611 36.204,25.401 32.431,25.721 32.824,26.365 33.068,26.764 	"/>
	<path fill="#010101" d="M24.233,45.921l7.548-4.607l-0.149-0.245l-0.79-1.293l1.511-0.128l3.772-0.319l1.865-0.157l-0.993,1.587
		l-2.008,3.209l-0.804,1.286l-0.79-1.294l-0.15-0.244l-9.013,5.5V45.921L24.233,45.921z M34.205,41.691l0.21-0.336l-0.395,0.033
		L34.205,41.691z"/>
	<polygon fill="#FFFFFF" points="32.668,41.869 24.233,47.017 24.233,48.119 33.159,42.672 33.558,42.429 33.801,42.828 
		34.195,43.473 36.204,40.263 32.431,40.582 32.824,41.226 33.068,41.625 	"/>
</g>
</svg>
