<?xml version="1.0" encoding="UTF-8" standalone="no"?>
<!-- Generator: Adobe Illustrator 15.1.0, SVG Export Plug-In . SVG Version: 6.00 Build 0)  -->

<svg
   xmlns:dc="http://purl.org/dc/elements/1.1/"
   xmlns:cc="http://creativecommons.org/ns#"
   xmlns:rdf="http://www.w3.org/1999/02/22-rdf-syntax-ns#"
   xmlns:svg="http://www.w3.org/2000/svg"
   xmlns="http://www.w3.org/2000/svg"
   xmlns:sodipodi="http://sodipodi.sourceforge.net/DTD/sodipodi-0.dtd"
   xmlns:inkscape="http://www.inkscape.org/namespaces/inkscape"
   version="1.1"
   id="Layer_1"
   x="0px"
   y="0px"
   width="72px"
   height="72px"
   viewBox="0 0 72 72"
   enable-background="new 0 0 72 72"
   xml:space="preserve"
   inkscape:version="0.48.4 r9939"
   sodipodi:docname="ProportionalReverseTrue.svg"><metadata
   id="metadata21"><rdf:RDF><cc:Work
       rdf:about=""><dc:format>image/svg+xml</dc:format><dc:type
         rdf:resource="http://purl.org/dc/dcmitype/StillImage" /><dc:title /></cc:Work></rdf:RDF></metadata><defs
   id="defs19" /><sodipodi:namedview
   pagecolor="#ffffff"
   bordercolor="#666666"
   borderopacity="1"
   objecttolerance="10"
   gridtolerance="10"
   guidetolerance="10"
   inkscape:pageopacity="0"
   inkscape:pageshadow="2"
   inkscape:window-width="1920"
   inkscape:window-height="1017"
   id="namedview17"
   showgrid="false"
   inkscape:zoom="3.2777778"
   inkscape:cx="45.152542"
   inkscape:cy="36"
   inkscape:window-x="-9"
   inkscape:window-y="-9"
   inkscape:window-maximized="1"
   inkscape:current-layer="g3"
   inkscape:object-nodes="true" />
<g
   id="g3">
	<path
   d="m 35.482,35.705398 8.52,-0.0013 0,-0.368348 0,-1.647939 0,-2.660575 1.557,1.758315 1.693,1.909761 1.637,1.845591 0.949,0.730278 -0.186,0.237437 0.045,0.05647 -0.752,0.847071 -1.693,1.911046 -1.693,1.911044 -1.557,1.758316 0,-2.660576 0,-1.649222 0,-0.370915 -8.52,0 0,6.468548 0,0.649422 -0.429,0.35808 -0.852373,-3.906428 0.406254,0.426102 -10.372881,-9.138476 9.8,-8.197344 1.448,-1.210287 0,2.217789 0,8.726122 z m -1.877,2.400037 0,-1.191035 0,-0.009 0,-7.709637 -8.434,7.05508 8.847458,6.539094 -0.413458,2.342326 0,-7.020429 0,-0.0064 z m 12.273,-1.197451 0,1.198735 0,0.0052 0,0.557015 0.136,-0.15273 0.893,-1.007502 -0.893,-1.007502 -0.136,-0.151447 0,0.555731 z"
   id="path5"
   inkscape:connector-curvature="0"
   style="fill:#8e782d"
   sodipodi:nodetypes="cccccccccccccccccccccccccccccccccccccccccccccccccc" />
	<path
   style="fill:#c3a02e"
   d="m 34.520254,36.898999 0,-9.927424 -10.31,8.623447 10.31,10.178979 0,0 0,-7.668566 9.929,0 0.467001,0 0,0.600651 0,0.968998 0,1.649224 1.693999,-1.911046 1.693,-1.911045 0,0 0,-0.0013 -0.002,-0.0013 -1.691,-1.908479 -1.693999,-1.909761 0,1.647939 0,0.968999 0,0.600651 -0.467001,-0.0013 z"
   id="polygon7"
   inkscape:connector-curvature="0"
   sodipodi:nodetypes="ccccccccccccccccccccccc" />
	<path
   d="m 24.233,32.971667 7.548,-5.911534 -0.149,-0.314443 -0.79,-1.659491 1.511,-0.16428 3.772,-0.409419 1.865,-0.2015 -0.993,2.036823 -2.008,4.118565 -0.804,1.650506 -0.79,-1.65949 -0.15,-0.314444 -9.013,7.058932 v -4.230225 l 0.001,0 z m 9.972,-5.427676 0.21,-0.431237 -0.395,0.04363 0.185,0.387601 z"
   id="path9"
   inkscape:connector-curvature="0"
   style="fill:#010101" />
	<polygon
   points="24.233,33.258 33.159,27.811 33.558,27.567 33.801,27.967 34.195,28.611 36.204,25.401 32.431,25.721 32.824,26.365 33.068,26.764 32.668,27.008 24.233,32.155 "
   id="polygon11"
   transform="matrix(1,0,0,1.2834421,0,-6.8907591)"
   style="fill:#ffffff" />
	
	
<path
   id="path2989"
   d="m 24.233,32.971667 7.548,-5.911534 -0.149,-0.314443 -0.79,-1.659491 1.511,-0.16428 3.772,-0.409419 1.865,-0.2015 -0.993,2.036823 -2.008,4.118565 -0.804,1.650506 -0.79,-1.65949 -0.15,-0.314444 -9.013,7.058932 v -4.230225 l 0.001,0 z m 9.972,-5.427676 0.21,-0.431237 -0.395,0.04363 0.185,0.387601 z"
   inkscape:connector-curvature="0"
   style="fill:#010101" /><polygon
   id="polygon2991"
   points="24.233,33.258 33.159,27.811 33.558,27.567 33.801,27.967 34.195,28.611 36.204,25.401 32.431,25.721 32.824,26.365 33.068,26.764 32.668,27.008 24.233,32.155 "
   transform="matrix(1,0,0,1.2834421,0,-6.8907591)"
   style="fill:#ffffff" /><path
   id="path2993"
   d="m 26.821256,36.343786 7.201364,6.585432 0.166748,-0.299405 0.878588,-1.584431 0.711421,1.718751 1.775472,4.290892 0.877186,2.121922 -1.849534,-0.371624 -3.739898,-0.751563 -1.498481,-0.300359 0.878588,-1.584431 0.166355,-0.300586 -8.5991,-7.863599 3.030898,-1.66218 3.93e-4,0.0012 z m 7.807148,9.636391 0.39149,0.07839 -0.186472,-0.449038 -0.205018,0.370638 z"
   inkscape:connector-curvature="0"
   style="fill:#010101" /><polygon
   id="polygon2995"
   points="34.195,28.611 36.204,25.401 32.431,25.721 32.824,26.365 33.068,26.764 32.668,27.008 24.233,32.155 24.233,33.258 33.159,27.811 33.558,27.567 33.801,27.967 "
   transform="matrix(0.39292936,1.1802131,-0.91956866,0.50430205,45.860282,-7.9194341)"
   style="fill:#ffffff" /></g>
</svg>