<?xml version="1.0" encoding="utf-8"?>
<!-- Generator: Adobe Illustrator 15.1.0, SVG Export Plug-In . SVG Version: 6.00 Build 0)  -->
<!DOCTYPE svg PUBLIC "-//W3C//DTD SVG 1.1//EN" "http://www.w3.org/Graphics/SVG/1.1/DTD/svg11.dtd">
<svg version="1.1" id="Layer_1" xmlns="http://www.w3.org/2000/svg" xmlns:xlink="http://www.w3.org/1999/xlink" x="0px" y="0px"
	 width="72px" height="72px" viewBox="0 0 72 72" enable-background="new 0 0 72 72" xml:space="preserve">
<g>
	<g>
		<path fill-rule="evenodd" clip-rule="evenodd" fill="#166433" d="M50.553,45.221h-3.386V24.993c-6.738,0-13.477,0-20.214,0v20.228
			h-3.387v2.063h26.986V45.221z"/>
		<linearGradient id="SVGID_1_" gradientUnits="userSpaceOnUse" x1="37.0596" y1="44.7451" x2="37.0596" y2="27.1452">
			<stop  offset="0" style="stop-color:#599666"/>
			<stop  offset="1" style="stop-color:#B3CDB9"/>
		</linearGradient>
		<path fill-rule="evenodd" clip-rule="evenodd" fill="url(#SVGID_1_)" d="M50.553,46.334h-4.559V26.106c-5.956,0-11.912,0-17.869,0
			v20.228h-4.559v1.711c9.07,0.014,17.916,0.014,26.986,0V46.334z"/>
		<rect x="23.566" y="47.478" fill-rule="evenodd" clip-rule="evenodd" fill="#010101" width="26.986" height="1.085"/>
	</g>
	<g>
		<path fill-rule="evenodd" clip-rule="evenodd" fill="#865923" d="M37.06,44.679c4.659,0,8.46-3.8,8.46-8.459
			s-3.801-8.459-8.46-8.459s-8.46,3.8-8.46,8.459S32.4,44.679,37.06,44.679z"/>
		<path fill-rule="evenodd" clip-rule="evenodd" fill="#D37028" d="M37.06,43.271c3.884,0,7.052-3.168,7.052-7.052
			s-3.168-7.052-7.052-7.052s-7.053,3.168-7.053,7.052S33.176,43.271,37.06,43.271z"/>
		<path fill-rule="evenodd" clip-rule="evenodd" fill="#FFFFFF" d="M37.06,41.921c3.141,0,5.702-2.562,5.702-5.702
			c0-3.141-2.562-5.702-5.702-5.702s-5.702,2.562-5.702,5.702C31.357,39.359,33.919,41.921,37.06,41.921z"/>
		<g>
			<path fill-rule="evenodd" clip-rule="evenodd" fill="#010101" d="M34.24,31.889l1.693,1.981l1.693,1.98h0.001
				c0.204,0.313,0.115,0.73-0.198,0.934c-0.313,0.204-0.73,0.116-0.934-0.197l-0.004,0.002l-1.125-2.351L34.24,31.889z"/>
			<circle opacity="0.4" fill-rule="evenodd" clip-rule="evenodd" fill="#010101" cx="37.06" cy="36.219" r="0.278"/>
		</g>
		<path fill-rule="evenodd" clip-rule="evenodd" fill="#010101" d="M37.061,30.517c0.207,0,0.412,0.011,0.615,0.033v1.05h-1.232
			v-1.05C36.646,30.528,36.852,30.517,37.061,30.517z"/>
		<path fill-rule="evenodd" clip-rule="evenodd" fill="#010101" d="M37.061,41.922c0.207,0,0.412-0.012,0.615-0.033v-1.051h-1.232
			v1.051C36.646,41.91,36.852,41.922,37.061,41.922z"/>
		<path fill-rule="evenodd" clip-rule="evenodd" fill="#010101" d="M31.357,36.219c0-0.208,0.012-0.413,0.033-0.615h1.051v1.231
			h-1.051C31.369,36.633,31.357,36.427,31.357,36.219z"/>
		<path fill-rule="evenodd" clip-rule="evenodd" fill="#010101" d="M42.762,36.219c0,0.208-0.011,0.414-0.033,0.616H41.68v-1.231
			h1.049C42.751,35.806,42.762,36.012,42.762,36.219z"/>
		<path fill-rule="evenodd" clip-rule="evenodd" fill="#010101" d="M35.033,39.832l0.777-1.939l0.775-1.939l0,0
			c0.146-0.261,0.477-0.354,0.737-0.208s0.354,0.476,0.208,0.737l0.002,0l-1.25,1.674L35.033,39.832z"/>
	</g>
</g>
</svg>
