<?xml version="1.0" encoding="utf-8"?>
<!-- Generator: Adobe Illustrator 15.1.0, SVG Export Plug-In . SVG Version: 6.00 Build 0)  -->
<!DOCTYPE svg PUBLIC "-//W3C//DTD SVG 1.1//EN" "http://www.w3.org/Graphics/SVG/1.1/DTD/svg11.dtd">
<svg version="1.1" id="Layer_1" xmlns="http://www.w3.org/2000/svg" xmlns:xlink="http://www.w3.org/1999/xlink" x="0px" y="0px"
	 width="72px" height="72px" viewBox="0 0 72 72" enable-background="new 0 0 72 72" xml:space="preserve">
<g>
	<path fill="#010101" d="M25.889,36.36l15.671-9.563l-0.149-0.245l-0.789-1.293l1.511-0.128l3.772-0.32l1.865-0.157l-0.993,1.586
		l-2.009,3.21l-0.803,1.286l-0.79-1.293l-0.149-0.245l-15.672,9.564l-0.798,0.486l-0.488-0.798l-0.49-0.804l-0.487-0.798
		L25.889,36.36L25.889,36.36z M43.983,27.174l0.21-0.336l-0.395,0.034L43.983,27.174z"/>
	<polygon fill="#FFFFFF" points="42.446,27.352 26.375,37.16 26.866,37.963 42.938,28.155 43.336,27.912 43.58,28.311 
		43.973,28.956 45.981,25.746 42.209,26.065 42.603,26.709 42.847,27.108 	"/>
	<path fill="#8E782D" d="M25.889,45.001l15.671-9.564l-0.149-0.245l-0.789-1.293l1.511-0.128l3.772-0.319l1.865-0.158l-0.993,1.587
		l-2.009,3.209l-0.803,1.287l-0.79-1.294l-0.149-0.245l-15.672,9.563l-0.798,0.487l-0.488-0.799l-0.49-0.803l-0.487-0.799
		L25.889,45.001L25.889,45.001z M43.983,35.814l0.21-0.336l-0.395,0.033L43.983,35.814z"/>
	<polygon fill="#C3A02E" points="42.446,35.992 26.375,45.8 26.866,46.603 42.938,36.795 43.336,36.552 43.58,36.951 43.973,37.596 
		45.981,34.386 42.209,34.705 42.603,35.349 42.847,35.749 	"/>
</g>
</svg>
