<?xml version="1.0" encoding="utf-8"?>
<!-- Generator: Adobe Illustrator 15.1.0, SVG Export Plug-In . SVG Version: 6.00 Build 0)  -->
<!DOCTYPE svg PUBLIC "-//W3C//DTD SVG 1.1//EN" "http://www.w3.org/Graphics/SVG/1.1/DTD/svg11.dtd">
<svg version="1.1" id="Layer_1" xmlns="http://www.w3.org/2000/svg" xmlns:xlink="http://www.w3.org/1999/xlink" x="0px" y="0px"
	 width="72px" height="72px" viewBox="0 0 72 72" enable-background="new 0 0 72 72" xml:space="preserve">
<g>
	<path fill="#33459C" d="M33.101,37.211h3.089v-3.089c0-0.158,0.066-0.302,0.175-0.406c0.102-0.097,0.241-0.158,0.394-0.158h1.278
		c0.153,0,0.293,0.061,0.395,0.158c0.109,0.104,0.176,0.248,0.176,0.406v3.089h3.088c0.158,0,0.303,0.066,0.406,0.176
		c0.097,0.102,0.158,0.24,0.158,0.393v1.279c0,0.152-0.061,0.293-0.158,0.395c-0.104,0.109-0.248,0.176-0.406,0.176h-3.088v3.088
		c0,0.158-0.066,0.303-0.176,0.406c-0.102,0.098-0.241,0.158-0.395,0.158h-1.278c-0.153,0-0.292-0.061-0.394-0.158
		c-0.109-0.104-0.175-0.248-0.175-0.406v-3.088h-3.089c-0.158,0-0.302-0.066-0.406-0.176c-0.097-0.102-0.158-0.242-0.158-0.395
		v-1.279c0-0.152,0.062-0.291,0.158-0.393C32.799,37.277,32.942,37.211,33.101,37.211z"/>
	<linearGradient id="SVGID_1_" gradientUnits="userSpaceOnUse" x1="37.3984" y1="35.7344" x2="37.3984" y2="42.8607">
		<stop  offset="0" style="stop-color:#B6BFE1"/>
		<stop  offset="1" style="stop-color:#8191C9"/>
	</linearGradient>
	<path fill-rule="evenodd" clip-rule="evenodd" fill="url(#SVGID_1_)" d="M33.101,37.652h3.531v-3.53
		c0-0.067,0.057-0.122,0.127-0.122h1.278c0.07,0,0.128,0.055,0.128,0.122v3.53h3.53c0.067,0,0.123,0.057,0.123,0.127v1.279
		c0,0.07-0.056,0.127-0.123,0.127h-3.53v3.531c0,0.066-0.058,0.123-0.128,0.123h-1.278c-0.07,0-0.127-0.057-0.127-0.123v-3.531
		h-3.531c-0.067,0-0.122-0.057-0.122-0.127v-1.279C32.979,37.709,33.033,37.652,33.101,37.652z"/>
	<path fill="#33459C" d="M24.856,35.911l2.113,5.47l1.816-11.589c0.024-0.156,0.113-0.288,0.237-0.374
		c0.094-0.065,0.21-0.104,0.331-0.103c4.491,0,8.982,0,13.473,0c0.156,0,0.301,0.067,0.405,0.176
		c0.097,0.102,0.158,0.241,0.158,0.394v1.28c0,0.152-0.062,0.292-0.158,0.394c-0.104,0.109-0.249,0.176-0.405,0.176
		c-3.949,0-7.899,0-11.848,0l-0.048-0.002l-2.03,12.955c-0.024,0.156-0.113,0.287-0.236,0.373c-0.094,0.066-0.21,0.104-0.331,0.102
		h-2.095c-0.08,0-0.158-0.014-0.229-0.045c-0.14-0.057-0.253-0.168-0.31-0.314l-3.098-8.02c-0.057-0.148-0.046-0.306,0.018-0.442
		c0.06-0.127,0.168-0.235,0.31-0.29l1.193-0.461c0.143-0.055,0.295-0.047,0.425,0.006C24.685,35.653,24.799,35.764,24.856,35.911z"
		/>
	<linearGradient id="SVGID_2_" gradientUnits="userSpaceOnUse" x1="32.9761" y1="34.0273" x2="32.9761" y2="44.7823">
		<stop  offset="0" style="stop-color:#B6BFE1"/>
		<stop  offset="1" style="stop-color:#8191C9"/>
	</linearGradient>
	<path fill-rule="evenodd" clip-rule="evenodd" fill="url(#SVGID_2_)" d="M24.443,36.071l2.708,7.009l2.072-13.22
		c0.01-0.063,0.069-0.107,0.135-0.102h0c4.489,0,8.978,0,13.468,0c0.066,0,0.121,0.058,0.121,0.127v1.279
		c0,0.07-0.055,0.127-0.121,0.127c-4.092,0-8.184,0-12.275,0l-2.088,13.325c-0.01,0.066-0.076,0.102-0.145,0.102l-2.089,0.002
		c-0.051,0-0.1-0.029-0.119-0.078l-3.098-8.019c-0.024-0.063,0.01-0.135,0.075-0.16l1.193-0.461
		C24.346,35.978,24.419,36.008,24.443,36.071z"/>
</g>
</svg>
