<?xml version="1.0" encoding="utf-8"?>
<!-- Generator: Adobe Illustrator 15.1.0, SVG Export Plug-In . SVG Version: 6.00 Build 0)  -->
<!DOCTYPE svg PUBLIC "-//W3C//DTD SVG 1.1//EN" "http://www.w3.org/Graphics/SVG/1.1/DTD/svg11.dtd">
<svg version="1.1" id="Layer_1" xmlns="http://www.w3.org/2000/svg" xmlns:xlink="http://www.w3.org/1999/xlink" x="0px" y="0px"
	 width="72px" height="72px" viewBox="0 0 72 72" enable-background="new 0 0 72 72" xml:space="preserve">
<g>
	<path fill="#33459C" d="M34.542,36.885h8.598c0.156,0,0.301,0.067,0.405,0.175c0.097,0.102,0.158,0.242,0.158,0.395v1.279
		c0,0.152-0.062,0.291-0.158,0.394c-0.104,0.108-0.249,0.176-0.405,0.176h-8.598c-0.158,0-0.302-0.067-0.406-0.176
		c-0.097-0.103-0.158-0.241-0.158-0.394v-1.279c0-0.152,0.062-0.293,0.158-0.395C34.24,36.952,34.384,36.885,34.542,36.885z"/>
	<linearGradient id="SVGID_1_" gradientUnits="userSpaceOnUse" x1="38.8418" y1="37.377" x2="38.8418" y2="38.7625">
		<stop  offset="0" style="stop-color:#B6BFE1"/>
		<stop  offset="1" style="stop-color:#8191C9"/>
	</linearGradient>
	<path fill-rule="evenodd" clip-rule="evenodd" fill="url(#SVGID_1_)" d="M34.542,37.328h8.598c0.066,0,0.121,0.057,0.121,0.127
		v1.279c0,0.07-0.055,0.127-0.121,0.127h-8.598c-0.067,0-0.122-0.057-0.122-0.127v-1.279C34.421,37.385,34.476,37.328,34.542,37.328
		z"/>
	<path fill="#33459C" d="M37.998,40.423h1.688c0.158,0,0.301,0.067,0.404,0.174l0.001,0.001c0.098,0.103,0.159,0.241,0.159,0.395
		v1.279c0,0.15-0.062,0.291-0.159,0.394l0,0c-0.104,0.108-0.247,0.176-0.405,0.176h-1.688c-0.158,0-0.302-0.067-0.404-0.174
		l-0.002-0.002c-0.098-0.102-0.158-0.241-0.158-0.394v-1.279c0-0.151,0.061-0.292,0.158-0.394v-0.001
		C37.694,40.49,37.839,40.423,37.998,40.423z"/>
	<linearGradient id="SVGID_2_" gradientUnits="userSpaceOnUse" x1="38.8418" y1="40.9326" x2="38.8418" y2="42.3182">
		<stop  offset="0" style="stop-color:#B6BFE1"/>
		<stop  offset="1" style="stop-color:#8191C9"/>
	</linearGradient>
	<path fill-rule="evenodd" clip-rule="evenodd" fill="url(#SVGID_2_)" d="M37.998,40.865h1.688c0.066,0,0.122,0.058,0.122,0.127
		v1.279c0,0.069-0.056,0.127-0.122,0.127h-1.688c-0.067,0-0.123-0.057-0.123-0.127v-1.279C37.875,40.922,37.93,40.865,37.998,40.865
		z"/>
	<path fill="#33459C" d="M37.998,33.348h1.688c0.158,0,0.301,0.067,0.404,0.174l0.001,0.002c0.098,0.102,0.159,0.241,0.159,0.394
		v1.279c0,0.15-0.062,0.291-0.159,0.394v0c-0.104,0.108-0.247,0.176-0.405,0.176h-1.688c-0.158,0-0.302-0.067-0.404-0.174
		l-0.002-0.002c-0.098-0.102-0.158-0.242-0.158-0.394v-1.279c0-0.151,0.061-0.291,0.158-0.394l0,0
		C37.694,33.416,37.839,33.348,37.998,33.348z"/>
	<linearGradient id="SVGID_3_" gradientUnits="userSpaceOnUse" x1="38.8418" y1="33.8569" x2="38.8418" y2="35.2429">
		<stop  offset="0" style="stop-color:#B6BFE1"/>
		<stop  offset="1" style="stop-color:#8191C9"/>
	</linearGradient>
	<path fill-rule="evenodd" clip-rule="evenodd" fill="url(#SVGID_3_)" d="M37.998,33.79h1.688c0.066,0,0.122,0.058,0.122,0.127
		v1.279c0,0.07-0.056,0.127-0.122,0.127h-1.688c-0.067,0-0.123-0.057-0.123-0.127v-1.279C37.875,33.847,37.93,33.79,37.998,33.79z"
		/>
	<path fill="#33459C" d="M26.475,35.489l2.113,5.47l1.816-11.589c0.024-0.156,0.112-0.288,0.236-0.374
		c0.094-0.065,0.21-0.104,0.331-0.103c4.491,0,8.981,0,13.474,0c0.156,0,0.301,0.067,0.404,0.176
		c0.098,0.102,0.159,0.241,0.159,0.394v1.28c0,0.152-0.062,0.292-0.159,0.394c-0.104,0.109-0.248,0.176-0.404,0.176
		c-3.95,0-7.899,0-11.848,0l-0.049-0.002l-2.03,12.955c-0.024,0.156-0.113,0.288-0.237,0.374c-0.094,0.065-0.209,0.104-0.331,0.102
		l-2.094-0.001c-0.08,0.001-0.158-0.014-0.229-0.044c-0.14-0.058-0.253-0.168-0.311-0.315l-3.098-8.02
		c-0.057-0.148-0.047-0.306,0.018-0.442c0.06-0.127,0.168-0.235,0.311-0.29l1.193-0.461c0.142-0.055,0.295-0.047,0.424,0.006
		C26.304,35.231,26.418,35.341,26.475,35.489z"/>
	<linearGradient id="SVGID_4_" gradientUnits="userSpaceOnUse" x1="34.5952" y1="33.5811" x2="34.5952" y2="44.3555">
		<stop  offset="0" style="stop-color:#B6BFE1"/>
		<stop  offset="1" style="stop-color:#8191C9"/>
	</linearGradient>
	<path fill-rule="evenodd" clip-rule="evenodd" fill="url(#SVGID_4_)" d="M26.063,35.648l2.708,7.009l2.071-13.219
		c0.01-0.063,0.069-0.107,0.135-0.102h0c4.489,0,8.979,0,13.469,0c0.066,0,0.121,0.058,0.121,0.127v1.279
		c0,0.07-0.055,0.127-0.121,0.127c-4.092,0-8.184,0-12.275,0l-2.088,13.325c-0.01,0.065-0.076,0.101-0.145,0.101l-2.089,0.002
		c-0.051,0.001-0.1-0.028-0.118-0.077l-3.098-8.02c-0.024-0.063,0.009-0.135,0.075-0.16l1.193-0.461
		C25.965,35.555,26.039,35.585,26.063,35.648z"/>
</g>
</svg>
