<?xml version="1.0" encoding="utf-8"?>
<!-- Generator: Adobe Illustrator 15.1.0, SVG Export Plug-In . SVG Version: 6.00 Build 0)  -->
<!DOCTYPE svg PUBLIC "-//W3C//DTD SVG 1.1//EN" "http://www.w3.org/Graphics/SVG/1.1/DTD/svg11.dtd">
<svg version="1.1" id="Layer_1" xmlns="http://www.w3.org/2000/svg" xmlns:xlink="http://www.w3.org/1999/xlink" x="0px" y="0px"
	 width="72px" height="72px" viewBox="0 0 72 72" enable-background="new 0 0 72 72" xml:space="preserve">
<g>
	<path fill="#33459C" d="M34.945,41.099l2.827-2.827l-2.827-2.826v-0.001c-0.117-0.119-0.174-0.275-0.171-0.43
		c0.003-0.15,0.062-0.302,0.176-0.416l1.137-1.137c0.114-0.114,0.266-0.173,0.416-0.176c0.156-0.003,0.313,0.054,0.431,0.171
		l2.827,2.827l2.826-2.827c0.118-0.118,0.273-0.174,0.432-0.171c0.15,0.003,0.301,0.062,0.415,0.176l1.138,1.137l0,0
		c0.114,0.114,0.173,0.265,0.176,0.416c0.003,0.155-0.054,0.311-0.171,0.429v0.002l0,0l-2.827,2.826l2.827,2.827l0,0
		c0.117,0.117,0.174,0.273,0.171,0.431c-0.003,0.15-0.062,0.302-0.176,0.416l0,0l-1.138,1.138c-0.113,0.113-0.265,0.173-0.415,0.176
		c-0.158,0.003-0.313-0.054-0.432-0.172l-2.826-2.826l-2.827,2.826c-0.117,0.118-0.274,0.175-0.431,0.172
		c-0.15-0.003-0.302-0.063-0.416-0.176l-1.137-1.138c-0.114-0.114-0.172-0.266-0.176-0.416c-0.003-0.154,0.054-0.311,0.171-0.429
		V41.099z"/>
	<linearGradient id="SVGID_1_" gradientUnits="userSpaceOnUse" x1="39.7607" y1="35.1899" x2="39.7607" y2="42.9183">
		<stop  offset="0" style="stop-color:#B6BFE1"/>
		<stop  offset="1" style="stop-color:#8191C9"/>
	</linearGradient>
	<path fill-rule="evenodd" clip-rule="evenodd" fill="url(#SVGID_1_)" d="M35.258,41.411l3.14-3.14l-3.14-3.139
		c-0.06-0.06-0.058-0.159,0.004-0.222l1.138-1.137c0.062-0.063,0.162-0.064,0.221-0.005l3.14,3.14l3.139-3.14
		c0.061-0.06,0.159-0.057,0.222,0.005l1.138,1.137c0.063,0.063,0.064,0.162,0.005,0.222l-3.14,3.139l3.14,3.14
		c0.06,0.06,0.058,0.159-0.005,0.222l-1.138,1.138c-0.063,0.062-0.161,0.063-0.222,0.004l-3.139-3.139l-3.14,3.14
		c-0.06,0.059-0.159,0.058-0.221-0.005l-1.138-1.138C35.2,41.57,35.198,41.471,35.258,41.411z"/>
	<path fill="#33459C" d="M26.857,35.469l2.113,5.47l1.816-11.589c0.024-0.156,0.112-0.288,0.236-0.374
		c0.094-0.065,0.21-0.104,0.331-0.103c4.491,0,8.982,0,13.473,0c0.157,0,0.301,0.067,0.405,0.176
		c0.097,0.102,0.158,0.241,0.158,0.394v1.28c0,0.152-0.061,0.292-0.158,0.394c-0.104,0.109-0.248,0.176-0.405,0.176
		c-3.949,0-7.898,0-11.848,0l-0.048-0.002l-2.03,12.955c-0.025,0.156-0.113,0.288-0.237,0.374c-0.094,0.065-0.21,0.104-0.331,0.102
		l-2.095-0.001c-0.08,0.001-0.158-0.014-0.229-0.044c-0.139-0.058-0.253-0.168-0.31-0.315l-3.098-8.02
		c-0.057-0.148-0.046-0.306,0.018-0.442c0.06-0.127,0.168-0.235,0.31-0.29l1.194-0.461c0.142-0.055,0.295-0.047,0.424,0.006
		C26.686,35.211,26.8,35.322,26.857,35.469z"/>
	<linearGradient id="SVGID_2_" gradientUnits="userSpaceOnUse" x1="34.9771" y1="33.606" x2="34.9771" y2="44.2339">
		<stop  offset="0" style="stop-color:#B6BFE1"/>
		<stop  offset="1" style="stop-color:#8191C9"/>
	</linearGradient>
	<path fill-rule="evenodd" clip-rule="evenodd" fill="url(#SVGID_2_)" d="M26.445,35.629l2.708,7.009l2.071-13.219
		c0.01-0.063,0.069-0.107,0.135-0.102h0c4.489,0,8.979,0,13.468,0c0.066,0,0.121,0.058,0.121,0.127v1.279
		c0,0.07-0.055,0.127-0.121,0.127c-4.092,0-8.184,0-12.275,0l-2.088,13.325c-0.01,0.065-0.076,0.101-0.145,0.101l-2.089,0.002
		c-0.051,0.001-0.1-0.028-0.118-0.077l-3.098-8.02c-0.024-0.063,0.009-0.135,0.075-0.16l1.193-0.461
		C26.348,35.536,26.42,35.566,26.445,35.629z"/>
</g>
</svg>
