<?xml version="1.0" encoding="utf-8"?>
<!-- Generator: Adobe Illustrator 15.1.0, SVG Export Plug-In . SVG Version: 6.00 Build 0)  -->
<!DOCTYPE svg PUBLIC "-//W3C//DTD SVG 1.1//EN" "http://www.w3.org/Graphics/SVG/1.1/DTD/svg11.dtd">
<svg version="1.1" id="Layer_1" xmlns="http://www.w3.org/2000/svg" xmlns:xlink="http://www.w3.org/1999/xlink" x="0px" y="0px"
	 width="72px" height="72px" viewBox="0 0 72 72" enable-background="new 0 0 72 72" xml:space="preserve">
<g>
	<path fill="#33459C" d="M36.471,36.874h8.598c0.157,0,0.302,0.066,0.405,0.176c0.098,0.102,0.159,0.241,0.159,0.394v1.279
		c0,0.152-0.062,0.293-0.159,0.395c-0.104,0.109-0.248,0.176-0.405,0.176h-8.598c-0.158,0-0.302-0.067-0.405-0.176
		c-0.098-0.102-0.159-0.242-0.159-0.395v-1.279c0-0.152,0.063-0.292,0.159-0.394C36.169,36.941,36.313,36.874,36.471,36.874z"/>
	<linearGradient id="SVGID_1_" gradientUnits="userSpaceOnUse" x1="40.7695" y1="37.3662" x2="40.7695" y2="38.7518">
		<stop  offset="0" style="stop-color:#B6BFE1"/>
		<stop  offset="1" style="stop-color:#8191C9"/>
	</linearGradient>
	<path fill-rule="evenodd" clip-rule="evenodd" fill="url(#SVGID_1_)" d="M36.471,37.316h8.598c0.067,0,0.122,0.058,0.122,0.127
		v1.279c0,0.07-0.055,0.127-0.122,0.127h-8.598c-0.067,0-0.122-0.057-0.122-0.127v-1.279C36.349,37.374,36.403,37.316,36.471,37.316
		z"/>
	<path fill="#33459C" d="M28.005,35.469l2.113,5.47l1.816-11.589c0.024-0.156,0.112-0.288,0.236-0.374
		c0.094-0.065,0.21-0.104,0.331-0.103c4.491,0,8.981,0,13.473,0c0.157,0,0.302,0.067,0.405,0.176
		c0.098,0.102,0.159,0.241,0.159,0.394v1.28c0,0.152-0.062,0.292-0.159,0.394c-0.104,0.109-0.248,0.176-0.405,0.176
		c-3.949,0-7.898,0-11.848,0l-0.049-0.002l-2.029,12.955c-0.025,0.156-0.113,0.288-0.237,0.374c-0.094,0.065-0.209,0.104-0.33,0.102
		l-2.095-0.001c-0.079,0.001-0.158-0.014-0.229-0.044c-0.14-0.058-0.254-0.168-0.311-0.315l-3.098-8.02
		c-0.057-0.148-0.046-0.306,0.018-0.442c0.061-0.127,0.168-0.235,0.311-0.29l1.193-0.461c0.143-0.055,0.295-0.047,0.425,0.006
		C27.834,35.211,27.948,35.322,28.005,35.469z"/>
	<linearGradient id="SVGID_2_" gradientUnits="userSpaceOnUse" x1="36.1255" y1="33.6079" x2="36.1255" y2="44.2277">
		<stop  offset="0" style="stop-color:#B6BFE1"/>
		<stop  offset="1" style="stop-color:#8191C9"/>
	</linearGradient>
	<path fill-rule="evenodd" clip-rule="evenodd" fill="url(#SVGID_2_)" d="M27.593,35.629l2.707,7.009l2.071-13.219
		c0.011-0.063,0.069-0.107,0.136-0.102l0,0c4.489,0,8.979,0,13.468,0c0.066,0,0.122,0.058,0.122,0.127v1.279
		c0,0.07-0.056,0.127-0.122,0.127c-4.092,0-8.183,0-12.274,0l-2.089,13.325c-0.01,0.065-0.075,0.101-0.145,0.101l-2.089,0.002
		c-0.052,0.001-0.1-0.028-0.118-0.077l-3.098-8.02c-0.024-0.063,0.009-0.135,0.074-0.16l1.193-0.461
		C27.495,35.536,27.568,35.566,27.593,35.629z"/>
</g>
</svg>
