<?xml version="1.0" encoding="utf-8"?>
<!-- Generator: Adobe Illustrator 15.1.0, SVG Export Plug-In . SVG Version: 6.00 Build 0)  -->
<!DOCTYPE svg PUBLIC "-//W3C//DTD SVG 1.1//EN" "http://www.w3.org/Graphics/SVG/1.1/DTD/svg11.dtd">
<svg version="1.1" id="Layer_1" xmlns="http://www.w3.org/2000/svg" xmlns:xlink="http://www.w3.org/1999/xlink" x="0px" y="0px"
	 width="72px" height="72px" viewBox="0 0 72 72" enable-background="new 0 0 72 72" xml:space="preserve">
<g>
	<g>
		<path fill="#D35927" d="M47.766,27.165c1.396,1.397,1.366,3.851,0.187,6.684c-0.546,1.31-1.341,2.722-2.353,4.155h-1.647V37.09
			c0.986-1.373,1.755-2.72,2.271-3.959c0.881-2.117,1.023-3.832,0.216-4.639c-0.807-0.807-2.521-0.665-4.638,0.216
			c-2.367,0.984-5.127,2.89-7.716,5.479l-0.002,0.002l-0.003,0.003c-2.589,2.589-4.494,5.35-5.479,7.716
			c-0.881,2.117-1.022,3.83-0.216,4.638c0.808,0.807,2.522,0.665,4.639-0.216c1.05-0.438,2.177-1.056,3.332-1.834h1.105v1.514
			c-1.284,0.868-2.542,1.56-3.719,2.05c-2.834,1.18-5.287,1.21-6.684-0.188s-1.367-3.85-0.188-6.683
			c1.075-2.583,3.122-5.563,5.882-8.324l0.003-0.003l0.002-0.002c2.76-2.759,5.741-4.807,8.324-5.882
			C43.916,25.799,46.367,25.769,47.766,27.165z"/>
		<path fill="#6F1A16" d="M47.004,25.943L47.004,25.943l0.001,0.004c1.396,1.397,1.364,3.847,0.187,6.677
			c-0.695,1.673-1.799,3.511-3.239,5.349v-3.227c0.628-0.983,1.136-1.939,1.511-2.84c0.88-2.116,1.021-3.83,0.217-4.638
			l-0.001,0.001h-0.001v-0.001l0.002-0.001c-0.808-0.805-2.522-0.663-4.639,0.218c-2.365,0.985-5.125,2.888-7.711,5.476
			l-0.007,0.007l-0.007,0.007c-2.588,2.588-4.492,5.346-5.476,7.712c-0.88,2.115-1.022,3.83-0.218,4.638l0.001-0.002l0,0.001h0.001
			l-0.002,0.002c0.808,0.805,2.522,0.662,4.639-0.219c0.448-0.186,0.91-0.406,1.382-0.656c0.143,0.029,0.289,0.045,0.436,0.045h3.04
			c-1.428,1.006-2.834,1.799-4.14,2.342c-2.831,1.178-5.282,1.208-6.678-0.188h-0.003h0l0-0.001v-0.003
			c-1.396-1.396-1.365-3.848-0.187-6.678c1.075-2.582,3.12-5.561,5.879-8.32l0.007-0.007l0.007-0.007
			c2.758-2.759,5.737-4.804,8.32-5.879c2.83-1.178,5.28-1.209,6.677,0.187L47.004,25.943L47.004,25.943z"/>
	</g>
	<path fill="#676767" d="M34.08,38.942h4.319v-4.319c0-0.368,0.156-0.705,0.41-0.946c0.234-0.226,0.559-0.368,0.912-0.368h1.971
		c0.353,0,0.676,0.141,0.913,0.368c0.253,0.242,0.409,0.578,0.409,0.946v4.319h4.318c0.367,0,0.705,0.155,0.947,0.409
		c0.225,0.236,0.367,0.56,0.367,0.913v1.972c0,0.352-0.141,0.676-0.367,0.912c-0.242,0.254-0.58,0.41-0.947,0.41h-4.318v4.317
		c0,0.367-0.156,0.705-0.409,0.947c-0.237,0.226-0.561,0.367-0.913,0.367h-1.971c-0.354,0-0.678-0.143-0.912-0.367
		c-0.254-0.242-0.41-0.58-0.41-0.947v-4.317H34.08c-0.368,0-0.705-0.157-0.946-0.41c-0.227-0.236-0.368-0.561-0.368-0.912v-1.972
		c0-0.354,0.143-0.677,0.368-0.913C33.375,39.1,33.711,38.942,34.08,38.942z"/>
	<linearGradient id="SVGID_1_" gradientUnits="userSpaceOnUse" x1="40.7051" y1="36.0903" x2="40.7051" y2="44.0469">
		<stop  offset="0" style="stop-color:#CBCACA"/>
		<stop  offset="1" style="stop-color:#969697"/>
	</linearGradient>
	<path fill-rule="evenodd" clip-rule="evenodd" fill="url(#SVGID_1_)" d="M34.08,40.068h5.444v-5.445
		c0-0.103,0.088-0.188,0.196-0.188h1.972c0.109,0,0.197,0.085,0.197,0.188v5.445h5.443c0.104,0,0.188,0.088,0.188,0.195v1.973
		c0,0.107-0.084,0.195-0.188,0.195h-5.443v5.445c0,0.103-0.088,0.188-0.197,0.188H39.72c-0.108,0-0.196-0.085-0.196-0.188v-5.445
		H34.08c-0.104,0-0.188-0.088-0.188-0.195v-1.973C33.892,40.156,33.976,40.068,34.08,40.068z"/>
</g>
</svg>
