<?xml version="1.0" encoding="utf-8"?>
<!-- Generator: Adobe Illustrator 15.1.0, SVG Export Plug-In . SVG Version: 6.00 Build 0)  -->
<!DOCTYPE svg PUBLIC "-//W3C//DTD SVG 1.1//EN" "http://www.w3.org/Graphics/SVG/1.1/DTD/svg11.dtd">
<svg version="1.1" id="Layer_1" xmlns="http://www.w3.org/2000/svg" xmlns:xlink="http://www.w3.org/1999/xlink" x="0px" y="0px"
	 width="72px" height="72px" viewBox="0 0 72 72" enable-background="new 0 0 72 72" xml:space="preserve">
<g>
	<g>
		<path fill-rule="evenodd" clip-rule="evenodd" fill="#C43B3E" d="M43.572,36.506c3.497,0,6.35-2.852,6.35-6.349
			c0-3.497-2.853-6.349-6.35-6.349s-6.349,2.852-6.349,6.349C37.224,33.654,40.075,36.506,43.572,36.506z"/>
		<path fill="#992523" d="M43.572,23.34c1.881,0,3.585,0.763,4.819,1.997l0.001,0.001l0.001,0.001
			c1.234,1.234,1.997,2.938,1.997,4.818s-0.763,3.585-1.997,4.819l-0.001,0.001l-0.001,0.001c-1.234,1.234-2.938,1.997-4.819,1.997
			c-1.88,0-3.584-0.763-4.818-1.997l-0.001-0.001l-0.001-0.001c-1.234-1.234-1.997-2.939-1.997-4.819s0.763-3.584,1.997-4.818
			l0.001-0.001l0.001-0.001C39.988,24.103,41.692,23.34,43.572,23.34L43.572,23.34z M47.73,25.998
			c-1.063-1.063-2.533-1.721-4.158-1.721c-1.624,0-3.095,0.658-4.157,1.721L39.413,26c-1.063,1.063-1.721,2.533-1.721,4.157
			s0.658,3.096,1.721,4.157l0.002,0.002c1.063,1.063,2.533,1.721,4.157,1.721c1.625,0,3.096-0.658,4.158-1.721l0.002-0.002
			c1.063-1.062,1.72-2.533,1.72-4.157s-0.657-3.095-1.72-4.157L47.73,25.998z"/>
		<path fill="#FFFFFF" d="M46.784,28.121c0.116,0.118,0.096,0.245-0.044,0.382l-1.659,1.659l1.649,1.648
			c0.139,0.138,0.16,0.266,0.042,0.383l-1.17,1.17c-0.115,0.117-0.243,0.095-0.382-0.042l-1.648-1.648l-1.647,1.648
			c-0.139,0.138-0.267,0.159-0.384,0.042l-1.17-1.17c-0.115-0.116-0.096-0.245,0.044-0.382l1.648-1.648l-1.659-1.659
			c-0.139-0.137-0.159-0.265-0.043-0.382l1.17-1.169c0.116-0.117,0.244-0.096,0.383,0.042l1.658,1.658l1.66-1.658
			c0.138-0.139,0.265-0.16,0.383-0.042L46.784,28.121z"/>
	</g>
	<g>
		<polygon fill-rule="evenodd" clip-rule="evenodd" fill="#FFFFFF" points="29.94,37.794 33.329,43.822 36.718,49.851 29.94,49.851 
			23.163,49.851 26.553,43.822 		"/>
		<path fill="#C43B3E" d="M30.349,37.564l3.389,6.029l3.389,6.027l0.393,0.698h-0.801H29.94h-6.777h-0.802l0.394-0.698l3.389-6.027
			l3.389-6.029l0.408-0.727L30.349,37.564L30.349,37.564z M32.92,44.052L29.94,38.75l-2.979,5.302l-2.997,5.329h5.977h5.977
			L32.92,44.052z"/>
		<path fill="#010101" d="M30.457,45.98h-1.085l-0.251-4.705c0.091-0.074,0.205-0.137,0.342-0.189
			c0.136-0.053,0.296-0.08,0.478-0.08s0.342,0.027,0.479,0.08s0.25,0.115,0.341,0.189L30.457,45.98L30.457,45.98z M29.183,47.23
			c0-0.105,0.021-0.205,0.062-0.295c0.041-0.091,0.096-0.171,0.167-0.237c0.071-0.067,0.152-0.122,0.244-0.159
			c0.09-0.038,0.186-0.057,0.285-0.057s0.195,0.019,0.286,0.06c0.092,0.04,0.171,0.093,0.24,0.163
			c0.069,0.068,0.125,0.148,0.166,0.236c0.041,0.092,0.062,0.188,0.062,0.289c0,0.103-0.02,0.2-0.061,0.294
			c-0.04,0.092-0.093,0.173-0.159,0.242c-0.067,0.069-0.148,0.122-0.24,0.162c-0.094,0.04-0.191,0.061-0.294,0.061
			c-0.105,0-0.204-0.021-0.295-0.061s-0.172-0.093-0.24-0.159c-0.069-0.068-0.123-0.149-0.162-0.24
			C29.203,47.436,29.183,47.336,29.183,47.23z"/>
	</g>
	<g>
		<path fill-rule="evenodd" clip-rule="evenodd" fill="#F99F20" d="M29.94,36.506c3.496,0,6.349-2.852,6.349-6.349
			c0-3.497-2.853-6.349-6.349-6.349c-3.497,0-6.35,2.852-6.35,6.349C23.591,33.654,26.443,36.506,29.94,36.506z"/>
		<path fill="#D37028" d="M29.94,23.34c1.88,0,3.584,0.763,4.818,1.997l0.001,0.001l0.001,0.001
			c1.234,1.234,1.997,2.938,1.997,4.818s-0.763,3.585-1.997,4.819l-0.001,0.001l-0.001,0.001c-1.234,1.234-2.938,1.997-4.818,1.997
			c-1.881,0-3.585-0.763-4.819-1.997l-0.001-0.001l-0.001-0.001c-1.234-1.234-1.997-2.939-1.997-4.819s0.763-3.584,1.997-4.818
			l0.001-0.001l0.001-0.001C26.355,24.103,28.06,23.34,29.94,23.34L29.94,23.34z M34.098,25.998
			c-1.063-1.063-2.533-1.721-4.157-1.721c-1.625,0-3.096,0.658-4.157,1.721L25.78,26c-1.063,1.063-1.721,2.533-1.721,4.157
			s0.658,3.096,1.721,4.157l0.003,0.002c1.062,1.063,2.532,1.721,4.157,1.721c1.624,0,3.095-0.658,4.157-1.721l0.002-0.002
			c1.063-1.062,1.721-2.533,1.721-4.157S35.162,27.063,34.1,26L34.098,25.998z"/>
		<polygon fill-rule="evenodd" clip-rule="evenodd" fill="#FFFFFF" points="29.94,25.352 31.536,29.612 33.132,33.872 
			31.031,33.872 31.031,34.963 28.85,34.963 28.85,33.872 26.748,33.872 28.344,29.612 		"/>
	</g>
	<g>
		
			<path fill-rule="evenodd" clip-rule="evenodd" fill="#FFFFFF" stroke="#C43B3E" stroke-width="0.5" stroke-miterlimit="2.6131" d="
			M37.892,49.023l1.548-1.547c1.036,1.098,2.505,1.783,4.133,1.783c3.137,0,5.681-2.544,5.681-5.681l0,0
			c0,1.726-1.8,3.124-4.019,3.124c-1.48,0-2.773-0.623-3.472-1.551l1.574-1.573h-2.119h-3.326V49.023z"/>
		<path fill="#F99F20" d="M47.701,39.021l1.221-1.22l0.801-0.801v1.133v5.445v0.469h-0.47h-3.326h-2.118h-1.131l0.799-0.799
			l1.266-1.267c-0.279-0.275-0.627-0.51-1.025-0.688c-0.528-0.235-1.146-0.371-1.807-0.371c-1.003,0-1.905,0.313-2.554,0.816
			c-0.477,0.37-0.812,0.846-0.938,1.37h-0.979c0.114-1.511,0.775-2.87,1.784-3.879c1.112-1.113,2.651-1.802,4.349-1.802
			c0.859,0,1.684,0.18,2.433,0.503l0.001-0.002C46.63,38.199,47.203,38.57,47.701,39.021z"/>
		<linearGradient id="SVGID_1_" gradientUnits="userSpaceOnUse" x1="46.6221" y1="41.1279" x2="41.183" y2="39.7718">
			<stop  offset="0" style="stop-color:#FFFFFF"/>
			<stop  offset="1" style="stop-color:#FCB244"/>
		</linearGradient>
		<path fill-rule="evenodd" clip-rule="evenodd" fill="url(#SVGID_1_)" d="M48.784,39.266l-0.747,0.748l-0.341,0.34l-0.332-0.352
			c-0.482-0.512-1.071-0.927-1.729-1.211v-0.002c-0.629-0.271-1.327-0.422-2.063-0.422c-1.438,0-2.742,0.584-3.685,1.526
			c-0.243,0.243-0.463,0.511-0.654,0.798c0.746-0.443,1.675-0.707,2.677-0.707c0.791,0,1.54,0.166,2.188,0.455
			c0.681,0.306,1.255,0.75,1.657,1.285l0.244,0.324l-0.286,0.286l-0.774,0.774h0.988h2.857V39.266z"/>
		<path fill="#C43B3E" d="M39.444,48.136l-1.221,1.221l-0.801,0.801v-1.133v-5.445v-0.47h0.469h3.327h2.118h1.131l-0.799,0.799
			l-1.266,1.268c0.278,0.275,0.627,0.51,1.025,0.688c0.527,0.236,1.145,0.371,1.807,0.371c1.002,0,1.905-0.313,2.553-0.816
			c0.477-0.37,0.813-0.845,0.939-1.37h0.978c-0.114,1.512-0.774,2.87-1.783,3.88c-1.113,1.112-2.651,1.802-4.35,1.802
			c-0.859,0-1.683-0.18-2.433-0.503v0.002C40.515,48.959,39.942,48.588,39.444,48.136z"/>
		<linearGradient id="SVGID_2_" gradientUnits="userSpaceOnUse" x1="45.751" y1="47.4346" x2="40.5867" y2="46.0508">
			<stop  offset="0" style="stop-color:#F59396"/>
			<stop  offset="1" style="stop-color:#FFFFFF"/>
		</linearGradient>
		<path fill-rule="evenodd" clip-rule="evenodd" fill="url(#SVGID_2_)" d="M38.361,47.892l0.746-0.747l0.341-0.341l0.332,0.353
			c0.483,0.512,1.072,0.927,1.729,1.21v0.002c0.628,0.271,1.326,0.423,2.063,0.423c1.439,0,2.743-0.584,3.686-1.527
			c0.243-0.242,0.462-0.51,0.654-0.797c-0.746,0.442-1.675,0.706-2.677,0.706c-0.792,0-1.54-0.166-2.188-0.455
			c-0.681-0.305-1.255-0.749-1.658-1.284l-0.243-0.324l0.285-0.286l0.775-0.775h-0.988h-2.857V47.892z"/>
	</g>
</g>
</svg>
