<?xml version="1.0" encoding="utf-8"?>
<!-- Generator: Adobe Illustrator 15.1.0, SVG Export Plug-In . SVG Version: 6.00 Build 0)  -->
<!DOCTYPE svg PUBLIC "-//W3C//DTD SVG 1.1//EN" "http://www.w3.org/Graphics/SVG/1.1/DTD/svg11.dtd">
<svg version="1.1" id="Layer_1" xmlns="http://www.w3.org/2000/svg" xmlns:xlink="http://www.w3.org/1999/xlink" x="0px" y="0px"
	 width="72px" height="72px" viewBox="0 0 72 72" enable-background="new 0 0 72 72" xml:space="preserve">
<g>
	<path fill="#763217" d="M30.254,29.993c-0.097-0.11-0.177-0.199-0.244-0.271l0.002-0.002c-0.056-0.059-0.14-0.146-0.265-0.272
		l-0.537-0.542l0.3-0.693l0.278-0.646l0.3-0.695l0.761,0.018c3.96,0.093,8.776,1.157,12.324,2.973
		c3.161,1.618,5.385,3.866,5.385,6.649c0,2.784-2.224,5.032-5.385,6.65c-3.547,1.814-8.363,2.879-12.324,2.973l-0.761,0.019
		l-0.3-0.696l-0.278-0.646l-0.299-0.69l0.531-0.541c0.08-0.08,0.167-0.17,0.264-0.274h0.004l0.244-0.274l0.005-0.004
		c0.92-1.035,1.612-2.115,2.072-3.213c0.452-1.082,0.683-2.191,0.683-3.303c0-1.111-0.23-2.221-0.683-3.303
		c-0.46-1.097-1.152-2.176-2.072-3.212L30.254,29.993L30.254,29.993z M44.221,36.512c0-0.331-0.101-0.716-0.283-1.105
		c-0.195-0.419-0.481-0.834-0.836-1.195c-0.941-0.957-2.172-1.812-3.875-2.45c-1.296-0.486-2.866-0.849-4.785-1.04
		c0.308,0.546,0.571,1.104,0.79,1.677c0.491,1.291,0.748,2.648,0.748,4.113s-0.257,2.823-0.748,4.113
		c-0.219,0.574-0.482,1.131-0.79,1.678c1.92-0.191,3.489-0.555,4.785-1.041c1.703-0.638,2.934-1.493,3.875-2.449
		c0.354-0.361,0.641-0.776,0.836-1.195C44.12,37.229,44.221,36.842,44.221,36.512z"/>
	<path fill="#F47B20" d="M31.099,29.25c-0.176-0.199-0.362-0.397-0.556-0.594l0.278-0.645c6.954,0.165,16.61,3.417,16.61,8.501
		s-9.656,8.336-16.61,8.502l-0.278-0.646c0.193-0.195,0.38-0.395,0.556-0.594c2.013-2.266,3.04-4.755,3.04-7.262
		S33.111,31.515,31.099,29.25L31.099,29.25z M45.347,36.512c0-0.97-0.549-2.178-1.444-3.087c-2.093-2.126-5.443-3.791-11.664-3.963
		c1.691,2.15,2.615,4.397,2.615,7.05c0,2.654-0.924,4.9-2.615,7.051c6.221-0.173,9.571-1.838,11.664-3.963
		C44.798,38.689,45.347,37.481,45.347,36.512z"/>
	<path fill="#763217" d="M30.519,36.512c0,1.193-0.174,2.322-0.508,3.407c-0.331,1.075-0.818,2.093-1.446,3.072
		c-0.354,0.552-0.727,1.045-1.134,1.514c-0.403,0.464-0.834,0.897-1.31,1.335l-1.166,1.073l-0.628-1.456l-0.279-0.646l-0.298-0.69
		l0.531-0.541c0.079-0.08,0.166-0.17,0.264-0.274h0.004l0.244-0.274l0.004-0.004c0.92-1.035,1.613-2.115,2.072-3.213
		c0.453-1.082,0.683-2.191,0.683-3.303c0-1.111-0.229-2.22-0.683-3.303c-0.459-1.097-1.152-2.177-2.072-3.212l-0.004-0.004
		l-0.244-0.274h-0.004c-0.098-0.104-0.185-0.193-0.264-0.275l-0.531-0.54l0.298-0.691l0.279-0.646l0.628-1.455l1.166,1.072
		c0.476,0.438,0.906,0.871,1.31,1.335c0.407,0.469,0.78,0.962,1.134,1.513c0.628,0.98,1.115,1.997,1.446,3.072
		C30.345,34.189,30.519,35.318,30.519,36.512z"/>
	<path fill="#F47B20" d="M29.393,36.512c0,2.174-0.621,4.076-1.774,5.873c-0.652,1.018-1.358,1.801-2.258,2.629l-0.278-0.646
		c0.193-0.195,0.38-0.395,0.555-0.594c2.014-2.266,3.041-4.755,3.041-7.262s-1.027-4.996-3.041-7.262
		c-0.175-0.198-0.361-0.397-0.555-0.594l0.278-0.645c0.899,0.827,1.605,1.611,2.258,2.628
		C28.771,32.437,29.393,34.338,29.393,36.512z"/>
</g>
</svg>
