<?xml version="1.0" encoding="utf-8"?>
<!-- Generator: Adobe Illustrator 15.1.0, SVG Export Plug-In . SVG Version: 6.00 Build 0)  -->
<!DOCTYPE svg PUBLIC "-//W3C//DTD SVG 1.1//EN" "http://www.w3.org/Graphics/SVG/1.1/DTD/svg11.dtd">
<svg version="1.1" id="Layer_1" xmlns="http://www.w3.org/2000/svg" xmlns:xlink="http://www.w3.org/1999/xlink" x="0px" y="0px"
	 width="72px" height="72px" viewBox="0 0 72 72" enable-background="new 0 0 72 72" xml:space="preserve">
<g>
	<path fill-rule="evenodd" clip-rule="evenodd" fill="#E66161" d="M48.152,33.133v10.172H31.215
		c2.776-3.197,4.624-6.93,6.482-10.172H48.152z"/>
	<rect x="47.636" y="23.646" fill="#010101" width="1.032" height="27.03"/>
	<rect x="22.823" y="48.433" fill="#010101" width="27.03" height="1.032"/>
	<path fill-rule="evenodd" clip-rule="evenodd" fill="#A7DCDD" d="M48.152,25.231c0,7.906,0,15.812,0,23.717
		c-8.209,0-16.417,0-24.625,0C37.775,43.006,36.518,24.774,48.152,25.231z"/>
	<path fill="#010101" d="M48.668,25.231v23.717v0.517h-0.516H23.527l-0.197-0.992c6.811-2.84,10.024-8.613,12.858-13.705
		c3.079-5.533,5.73-10.295,11.983-10.05l0.496,0.02V25.231L48.668,25.231z M47.636,48.433V25.738
		c-5.276,0.057-7.722,4.451-10.549,9.53c-2.62,4.708-5.558,9.982-11.31,13.165H47.636z"/>
	<path fill-rule="evenodd" clip-rule="evenodd" fill="#E66161" d="M48.152,33.133v10.172H31.215
		c2.776-3.197,4.624-6.93,6.482-10.172H48.152z"/>
	<path fill="#010101" d="M48.668,33.133v10.172v0.516h-0.516H31.215h-1.129l0.74-0.852c2.218-2.555,3.848-5.48,5.367-8.21
		c0.376-0.675,0.746-1.34,1.057-1.882l0.149-0.26h0.298h10.455h0.516V33.133L48.668,33.133z M47.636,42.789v-9.141h-9.64
		c-0.325,0.572-0.613,1.088-0.904,1.61c-1.381,2.479-2.849,5.118-4.778,7.53H47.636z"/>
	<rect x="27.836" y="42.789" fill="#5D5D5D" width="22.017" height="1.031"/>
	<path fill="#5D5D5D" d="M47.789,38.163v-1.032h2.063v1.032H47.789L47.789,38.163z M32.312,38.163v-1.032h2.064v1.032H32.312
		L32.312,38.163z M37.471,38.163v-1.032h2.064v1.032H37.471L37.471,38.163z M42.63,38.163v-1.032h2.063v1.032H42.63z"/>
	<rect x="32.972" y="32.617" fill="#5D5D5D" width="16.88" height="1.032"/>
	<polygon fill="#010101" points="25.047,30.909 26.66,28.604 25.134,26.463 24.079,24.983 25.896,24.983 27.68,24.983 
		28.189,24.983 28.468,25.415 28.679,25.744 28.914,25.397 29.196,24.983 29.688,24.983 31.404,24.983 33.229,24.983 32.167,26.467 
		30.681,28.542 32.34,30.905 33.378,32.382 31.575,32.382 29.782,32.382 29.28,32.382 29.001,31.957 28.655,31.431 28.305,31.96 
		28.025,32.382 27.523,32.382 25.813,32.382 24.016,32.382 	"/>
	<polygon fill="#E66161" points="25.813,31.443 27.805,28.598 25.896,25.921 27.68,25.921 28.658,27.438 29.688,25.921 
		31.404,25.921 29.532,28.536 31.575,31.443 29.782,31.443 28.658,29.732 27.524,31.443 	"/>
	<path fill="#010101" d="M25.854,35.141h1.555h0.671l0.216,0.641l0.422,1.254l0.412-1.25l0.212-0.645h0.678h1.512h1.343l-0.463,1.26
		l-1.949,5.314h-0.001l-0.349,0.959l-0.008,0.027c-0.067,0.168-0.142,0.336-0.22,0.494l-0.003,0.003
		c-0.079,0.157-0.16,0.299-0.241,0.42l-0.004,0.007c-0.089,0.13-0.186,0.248-0.287,0.353c-0.108,0.111-0.223,0.21-0.345,0.296
		l-0.008,0.004c-0.126,0.088-0.264,0.166-0.408,0.229l0-0.001c-0.14,0.061-0.286,0.113-0.439,0.154
		c-0.157,0.041-0.318,0.072-0.482,0.092c-0.165,0.02-0.333,0.029-0.504,0.029c-0.161,0-0.333-0.01-0.516-0.029
		c-0.176-0.02-0.345-0.047-0.505-0.081l-0.66-0.142l-0.076-0.672l-0.13-1.146l-0.144-1.274l1.258,0.256
		c0.075,0.015,0.156,0.027,0.238,0.036h0.004c0.059,0.007,0.125,0.01,0.194,0.01c0.041,0,0.018,0.056,0.025,0.053
		c0.042-0.05,0.077-0.106,0.106-0.165v-0.001l-1.98-5.218l-0.48-1.268H25.854L25.854,35.141z M28.989,40.294l-0.534,0.001
		l0.271,0.715L28.989,40.294z"/>
	<path fill="#A7DCDD" d="M25.854,36.079h1.555L28.729,40l1.291-3.921h1.512l-1.949,5.315l-0.35,0.962
		c-0.128,0.321-0.25,0.568-0.366,0.738c-0.117,0.171-0.25,0.308-0.401,0.414c-0.151,0.104-0.336,0.188-0.556,0.246
		c-0.22,0.059-0.469,0.09-0.748,0.09c-0.28,0-0.556-0.031-0.827-0.09l-0.129-1.145c0.229,0.047,0.435,0.067,0.62,0.067
		c0.339,0,0.591-0.1,0.754-0.298c0.162-0.199,0.288-0.453,0.374-0.762L25.854,36.079z"/>
</g>
</svg>
